M48
; DRILL file {KiCad 7.0.7} date Thu Mar 21 17:46:47 2024
; FORMAT={-:-/ absolute / inch / decimal}
; #@! TF.CreationDate,2024-03-21T17:46:47+00:00
; #@! TF.GenerationSoftware,Kicad,Pcbnew,7.0.7
; #@! TF.FileFunction,Plated,1,2,PTH
FMAT,2
INCH
; #@! TA.AperFunction,Plated,PTH,ViaDrill
T1C0.0157
; #@! TA.AperFunction,Plated,PTH,ComponentDrill
T2C0.0315
; #@! TA.AperFunction,Plated,PTH,ComponentDrill
T3C0.0394
; #@! TA.AperFunction,Plated,PTH,ComponentDrill
T4C0.1260
%
G90
G05
T1
X5.4Y-3.54
X5.495Y-3.12
X5.615Y-3.51
X5.755Y-2.905
X6.105Y-3.03
X6.295Y-3.665
T2
X5.275Y-2.955
X5.375Y-2.955
X5.375Y-3.23
X5.375Y-3.33
X5.375Y-3.43
X5.475Y-2.955
X5.68Y-2.391
X5.68Y-2.4894
X6.165Y-3.605
X6.165Y-3.705
X6.2966Y-2.401
X6.38Y-3.605
X6.38Y-3.705
X6.395Y-2.401
T3
X5.365Y-3.86
X5.465Y-3.86
X5.565Y-3.86
X5.665Y-3.86
X5.765Y-3.86
X5.865Y-3.86
X6.15Y-3.47
X6.25Y-3.47
X6.35Y-3.47
X6.36Y-2.155
X6.45Y-3.47
X6.46Y-2.155
T4
X5.144Y-3.852
X5.145Y-2.19
X6.59Y-3.855
T0
M30
