%TF.GenerationSoftware,KiCad,Pcbnew,7.0.7*%
%TF.CreationDate,2024-03-21T17:46:49+00:00*%
%TF.ProjectId,BT401_Digimodes,42543430-315f-4446-9967-696d6f646573,rev?*%
%TF.SameCoordinates,Original*%
%TF.FileFunction,Drillmap*%
%TF.FilePolarity,Positive*%
%FSLAX45Y45*%
G04 Gerber Fmt 4.5, Leading zero omitted, Abs format (unit mm)*
G04 Created by KiCad (PCBNEW 7.0.7) date 2024-03-21 17:46:49*
%MOMM*%
%LPD*%
G01*
G04 APERTURE LIST*
%ADD10C,0.100000*%
%ADD11C,0.200000*%
%ADD12C,0.040000*%
%ADD13C,0.080000*%
%ADD14C,0.320000*%
G04 APERTURE END LIST*
D10*
X12700000Y-5194300D02*
X17119600Y-5194300D01*
X12712700Y-10134600D02*
X12700000Y-5194300D01*
X17119600Y-5194300D02*
X17119600Y-10147300D01*
X17119600Y-10147300D02*
X12712700Y-10134600D01*
D11*
D12*
X13696000Y-8971600D02*
X13736000Y-9011600D01*
X13736000Y-8971600D02*
X13696000Y-9011600D01*
X13937300Y-7904800D02*
X13977300Y-7944800D01*
X13977300Y-7904800D02*
X13937300Y-7944800D01*
X14242100Y-8895400D02*
X14282100Y-8935400D01*
X14282100Y-8895400D02*
X14242100Y-8935400D01*
X14597700Y-7358700D02*
X14637700Y-7398700D01*
X14637700Y-7358700D02*
X14597700Y-7398700D01*
X15486700Y-7676200D02*
X15526700Y-7716200D01*
X15526700Y-7676200D02*
X15486700Y-7716200D01*
X15969300Y-9289100D02*
X16009300Y-9329100D01*
X16009300Y-9289100D02*
X15969300Y-9329100D01*
D13*
X13438500Y-7505700D02*
G75*
G03*
X13438500Y-7505700I-40000J0D01*
G01*
X13692500Y-7505700D02*
G75*
G03*
X13692500Y-7505700I-40000J0D01*
G01*
X13692500Y-8204200D02*
G75*
G03*
X13692500Y-8204200I-40000J0D01*
G01*
X13692500Y-8458200D02*
G75*
G03*
X13692500Y-8458200I-40000J0D01*
G01*
X13692500Y-8712200D02*
G75*
G03*
X13692500Y-8712200I-40000J0D01*
G01*
X13946500Y-7505700D02*
G75*
G03*
X13946500Y-7505700I-40000J0D01*
G01*
X14467200Y-6073100D02*
G75*
G03*
X14467200Y-6073100I-40000J0D01*
G01*
X14467200Y-6323100D02*
G75*
G03*
X14467200Y-6323100I-40000J0D01*
G01*
X15699100Y-9156700D02*
G75*
G03*
X15699100Y-9156700I-40000J0D01*
G01*
X15699100Y-9410700D02*
G75*
G03*
X15699100Y-9410700I-40000J0D01*
G01*
X16033300Y-6098500D02*
G75*
G03*
X16033300Y-6098500I-40000J0D01*
G01*
X16245200Y-9156700D02*
G75*
G03*
X16245200Y-9156700I-40000J0D01*
G01*
X16245200Y-9410700D02*
G75*
G03*
X16245200Y-9410700I-40000J0D01*
G01*
X16283300Y-6098500D02*
G75*
G03*
X16283300Y-6098500I-40000J0D01*
G01*
D10*
X13627100Y-9754400D02*
X13627100Y-9854400D01*
X13577100Y-9804400D02*
X13677100Y-9804400D01*
X13881100Y-9754400D02*
X13881100Y-9854400D01*
X13831100Y-9804400D02*
X13931100Y-9804400D01*
X14135100Y-9754400D02*
X14135100Y-9854400D01*
X14085100Y-9804400D02*
X14185100Y-9804400D01*
X14389100Y-9754400D02*
X14389100Y-9854400D01*
X14339100Y-9804400D02*
X14439100Y-9804400D01*
X14643100Y-9754400D02*
X14643100Y-9854400D01*
X14593100Y-9804400D02*
X14693100Y-9804400D01*
X14897100Y-9754400D02*
X14897100Y-9854400D01*
X14847100Y-9804400D02*
X14947100Y-9804400D01*
X15621000Y-8763800D02*
X15621000Y-8863800D01*
X15571000Y-8813800D02*
X15671000Y-8813800D01*
X15875000Y-8763800D02*
X15875000Y-8863800D01*
X15825000Y-8813800D02*
X15925000Y-8813800D01*
X16129000Y-8763800D02*
X16129000Y-8863800D01*
X16079000Y-8813800D02*
X16179000Y-8813800D01*
X16154400Y-5423700D02*
X16154400Y-5523700D01*
X16104400Y-5473700D02*
X16204400Y-5473700D01*
X16383000Y-8763800D02*
X16383000Y-8863800D01*
X16333000Y-8813800D02*
X16433000Y-8813800D01*
X16408400Y-5423700D02*
X16408400Y-5523700D01*
X16358400Y-5473700D02*
X16458400Y-5473700D01*
D14*
X13178898Y-9897218D02*
X13178898Y-9670942D01*
X12952622Y-9670942D01*
X12952622Y-9897218D01*
X13178898Y-9897218D01*
X13181438Y-5675738D02*
X13181438Y-5449462D01*
X12955162Y-5449462D01*
X12955162Y-5675738D01*
X13181438Y-5675738D01*
X16851738Y-9904838D02*
X16851738Y-9678562D01*
X16625462Y-9678562D01*
X16625462Y-9904838D01*
X16851738Y-9904838D01*
D11*
X12955777Y-10463784D02*
X12955777Y-10263784D01*
X12955777Y-10263784D02*
X13003396Y-10263784D01*
X13003396Y-10263784D02*
X13031967Y-10273308D01*
X13031967Y-10273308D02*
X13051015Y-10292355D01*
X13051015Y-10292355D02*
X13060539Y-10311403D01*
X13060539Y-10311403D02*
X13070062Y-10349498D01*
X13070062Y-10349498D02*
X13070062Y-10378070D01*
X13070062Y-10378070D02*
X13060539Y-10416165D01*
X13060539Y-10416165D02*
X13051015Y-10435212D01*
X13051015Y-10435212D02*
X13031967Y-10454260D01*
X13031967Y-10454260D02*
X13003396Y-10463784D01*
X13003396Y-10463784D02*
X12955777Y-10463784D01*
X13155777Y-10463784D02*
X13155777Y-10330450D01*
X13155777Y-10368546D02*
X13165301Y-10349498D01*
X13165301Y-10349498D02*
X13174824Y-10339974D01*
X13174824Y-10339974D02*
X13193872Y-10330450D01*
X13193872Y-10330450D02*
X13212920Y-10330450D01*
X13279586Y-10463784D02*
X13279586Y-10330450D01*
X13279586Y-10263784D02*
X13270062Y-10273308D01*
X13270062Y-10273308D02*
X13279586Y-10282831D01*
X13279586Y-10282831D02*
X13289110Y-10273308D01*
X13289110Y-10273308D02*
X13279586Y-10263784D01*
X13279586Y-10263784D02*
X13279586Y-10282831D01*
X13403396Y-10463784D02*
X13384348Y-10454260D01*
X13384348Y-10454260D02*
X13374824Y-10435212D01*
X13374824Y-10435212D02*
X13374824Y-10263784D01*
X13508158Y-10463784D02*
X13489110Y-10454260D01*
X13489110Y-10454260D02*
X13479586Y-10435212D01*
X13479586Y-10435212D02*
X13479586Y-10263784D01*
X13736729Y-10463784D02*
X13736729Y-10263784D01*
X13736729Y-10263784D02*
X13803396Y-10406641D01*
X13803396Y-10406641D02*
X13870062Y-10263784D01*
X13870062Y-10263784D02*
X13870062Y-10463784D01*
X14051015Y-10463784D02*
X14051015Y-10359022D01*
X14051015Y-10359022D02*
X14041491Y-10339974D01*
X14041491Y-10339974D02*
X14022443Y-10330450D01*
X14022443Y-10330450D02*
X13984348Y-10330450D01*
X13984348Y-10330450D02*
X13965301Y-10339974D01*
X14051015Y-10454260D02*
X14031967Y-10463784D01*
X14031967Y-10463784D02*
X13984348Y-10463784D01*
X13984348Y-10463784D02*
X13965301Y-10454260D01*
X13965301Y-10454260D02*
X13955777Y-10435212D01*
X13955777Y-10435212D02*
X13955777Y-10416165D01*
X13955777Y-10416165D02*
X13965301Y-10397117D01*
X13965301Y-10397117D02*
X13984348Y-10387593D01*
X13984348Y-10387593D02*
X14031967Y-10387593D01*
X14031967Y-10387593D02*
X14051015Y-10378070D01*
X14146253Y-10330450D02*
X14146253Y-10530450D01*
X14146253Y-10339974D02*
X14165301Y-10330450D01*
X14165301Y-10330450D02*
X14203396Y-10330450D01*
X14203396Y-10330450D02*
X14222443Y-10339974D01*
X14222443Y-10339974D02*
X14231967Y-10349498D01*
X14231967Y-10349498D02*
X14241491Y-10368546D01*
X14241491Y-10368546D02*
X14241491Y-10425689D01*
X14241491Y-10425689D02*
X14231967Y-10444736D01*
X14231967Y-10444736D02*
X14222443Y-10454260D01*
X14222443Y-10454260D02*
X14203396Y-10463784D01*
X14203396Y-10463784D02*
X14165301Y-10463784D01*
X14165301Y-10463784D02*
X14146253Y-10454260D01*
X14327205Y-10444736D02*
X14336729Y-10454260D01*
X14336729Y-10454260D02*
X14327205Y-10463784D01*
X14327205Y-10463784D02*
X14317682Y-10454260D01*
X14317682Y-10454260D02*
X14327205Y-10444736D01*
X14327205Y-10444736D02*
X14327205Y-10463784D01*
X14327205Y-10339974D02*
X14336729Y-10349498D01*
X14336729Y-10349498D02*
X14327205Y-10359022D01*
X14327205Y-10359022D02*
X14317682Y-10349498D01*
X14317682Y-10349498D02*
X14327205Y-10339974D01*
X14327205Y-10339974D02*
X14327205Y-10359022D01*
D12*
X12655000Y-10772300D02*
X12695000Y-10812300D01*
X12695000Y-10772300D02*
X12655000Y-10812300D01*
D11*
X12993872Y-10683784D02*
X13012920Y-10683784D01*
X13012920Y-10683784D02*
X13031967Y-10693308D01*
X13031967Y-10693308D02*
X13041491Y-10702831D01*
X13041491Y-10702831D02*
X13051015Y-10721879D01*
X13051015Y-10721879D02*
X13060539Y-10759974D01*
X13060539Y-10759974D02*
X13060539Y-10807593D01*
X13060539Y-10807593D02*
X13051015Y-10845689D01*
X13051015Y-10845689D02*
X13041491Y-10864736D01*
X13041491Y-10864736D02*
X13031967Y-10874260D01*
X13031967Y-10874260D02*
X13012920Y-10883784D01*
X13012920Y-10883784D02*
X12993872Y-10883784D01*
X12993872Y-10883784D02*
X12974824Y-10874260D01*
X12974824Y-10874260D02*
X12965301Y-10864736D01*
X12965301Y-10864736D02*
X12955777Y-10845689D01*
X12955777Y-10845689D02*
X12946253Y-10807593D01*
X12946253Y-10807593D02*
X12946253Y-10759974D01*
X12946253Y-10759974D02*
X12955777Y-10721879D01*
X12955777Y-10721879D02*
X12965301Y-10702831D01*
X12965301Y-10702831D02*
X12974824Y-10693308D01*
X12974824Y-10693308D02*
X12993872Y-10683784D01*
X13146253Y-10864736D02*
X13155777Y-10874260D01*
X13155777Y-10874260D02*
X13146253Y-10883784D01*
X13146253Y-10883784D02*
X13136729Y-10874260D01*
X13136729Y-10874260D02*
X13146253Y-10864736D01*
X13146253Y-10864736D02*
X13146253Y-10883784D01*
X13327205Y-10750450D02*
X13327205Y-10883784D01*
X13279586Y-10674260D02*
X13231967Y-10817117D01*
X13231967Y-10817117D02*
X13355777Y-10817117D01*
X13470062Y-10683784D02*
X13489110Y-10683784D01*
X13489110Y-10683784D02*
X13508158Y-10693308D01*
X13508158Y-10693308D02*
X13517682Y-10702831D01*
X13517682Y-10702831D02*
X13527205Y-10721879D01*
X13527205Y-10721879D02*
X13536729Y-10759974D01*
X13536729Y-10759974D02*
X13536729Y-10807593D01*
X13536729Y-10807593D02*
X13527205Y-10845689D01*
X13527205Y-10845689D02*
X13517682Y-10864736D01*
X13517682Y-10864736D02*
X13508158Y-10874260D01*
X13508158Y-10874260D02*
X13489110Y-10883784D01*
X13489110Y-10883784D02*
X13470062Y-10883784D01*
X13470062Y-10883784D02*
X13451015Y-10874260D01*
X13451015Y-10874260D02*
X13441491Y-10864736D01*
X13441491Y-10864736D02*
X13431967Y-10845689D01*
X13431967Y-10845689D02*
X13422443Y-10807593D01*
X13422443Y-10807593D02*
X13422443Y-10759974D01*
X13422443Y-10759974D02*
X13431967Y-10721879D01*
X13431967Y-10721879D02*
X13441491Y-10702831D01*
X13441491Y-10702831D02*
X13451015Y-10693308D01*
X13451015Y-10693308D02*
X13470062Y-10683784D01*
X13660539Y-10683784D02*
X13679586Y-10683784D01*
X13679586Y-10683784D02*
X13698634Y-10693308D01*
X13698634Y-10693308D02*
X13708158Y-10702831D01*
X13708158Y-10702831D02*
X13717682Y-10721879D01*
X13717682Y-10721879D02*
X13727205Y-10759974D01*
X13727205Y-10759974D02*
X13727205Y-10807593D01*
X13727205Y-10807593D02*
X13717682Y-10845689D01*
X13717682Y-10845689D02*
X13708158Y-10864736D01*
X13708158Y-10864736D02*
X13698634Y-10874260D01*
X13698634Y-10874260D02*
X13679586Y-10883784D01*
X13679586Y-10883784D02*
X13660539Y-10883784D01*
X13660539Y-10883784D02*
X13641491Y-10874260D01*
X13641491Y-10874260D02*
X13631967Y-10864736D01*
X13631967Y-10864736D02*
X13622443Y-10845689D01*
X13622443Y-10845689D02*
X13612920Y-10807593D01*
X13612920Y-10807593D02*
X13612920Y-10759974D01*
X13612920Y-10759974D02*
X13622443Y-10721879D01*
X13622443Y-10721879D02*
X13631967Y-10702831D01*
X13631967Y-10702831D02*
X13641491Y-10693308D01*
X13641491Y-10693308D02*
X13660539Y-10683784D01*
X13812920Y-10883784D02*
X13812920Y-10750450D01*
X13812920Y-10769498D02*
X13822443Y-10759974D01*
X13822443Y-10759974D02*
X13841491Y-10750450D01*
X13841491Y-10750450D02*
X13870063Y-10750450D01*
X13870063Y-10750450D02*
X13889110Y-10759974D01*
X13889110Y-10759974D02*
X13898634Y-10779022D01*
X13898634Y-10779022D02*
X13898634Y-10883784D01*
X13898634Y-10779022D02*
X13908158Y-10759974D01*
X13908158Y-10759974D02*
X13927205Y-10750450D01*
X13927205Y-10750450D02*
X13955777Y-10750450D01*
X13955777Y-10750450D02*
X13974824Y-10759974D01*
X13974824Y-10759974D02*
X13984348Y-10779022D01*
X13984348Y-10779022D02*
X13984348Y-10883784D01*
X14079586Y-10883784D02*
X14079586Y-10750450D01*
X14079586Y-10769498D02*
X14089110Y-10759974D01*
X14089110Y-10759974D02*
X14108158Y-10750450D01*
X14108158Y-10750450D02*
X14136729Y-10750450D01*
X14136729Y-10750450D02*
X14155777Y-10759974D01*
X14155777Y-10759974D02*
X14165301Y-10779022D01*
X14165301Y-10779022D02*
X14165301Y-10883784D01*
X14165301Y-10779022D02*
X14174824Y-10759974D01*
X14174824Y-10759974D02*
X14193872Y-10750450D01*
X14193872Y-10750450D02*
X14222443Y-10750450D01*
X14222443Y-10750450D02*
X14241491Y-10759974D01*
X14241491Y-10759974D02*
X14251015Y-10779022D01*
X14251015Y-10779022D02*
X14251015Y-10883784D01*
X14641491Y-10674260D02*
X14470063Y-10931403D01*
X14898634Y-10683784D02*
X14917682Y-10683784D01*
X14917682Y-10683784D02*
X14936729Y-10693308D01*
X14936729Y-10693308D02*
X14946253Y-10702831D01*
X14946253Y-10702831D02*
X14955777Y-10721879D01*
X14955777Y-10721879D02*
X14965301Y-10759974D01*
X14965301Y-10759974D02*
X14965301Y-10807593D01*
X14965301Y-10807593D02*
X14955777Y-10845689D01*
X14955777Y-10845689D02*
X14946253Y-10864736D01*
X14946253Y-10864736D02*
X14936729Y-10874260D01*
X14936729Y-10874260D02*
X14917682Y-10883784D01*
X14917682Y-10883784D02*
X14898634Y-10883784D01*
X14898634Y-10883784D02*
X14879586Y-10874260D01*
X14879586Y-10874260D02*
X14870063Y-10864736D01*
X14870063Y-10864736D02*
X14860539Y-10845689D01*
X14860539Y-10845689D02*
X14851015Y-10807593D01*
X14851015Y-10807593D02*
X14851015Y-10759974D01*
X14851015Y-10759974D02*
X14860539Y-10721879D01*
X14860539Y-10721879D02*
X14870063Y-10702831D01*
X14870063Y-10702831D02*
X14879586Y-10693308D01*
X14879586Y-10693308D02*
X14898634Y-10683784D01*
X15051015Y-10864736D02*
X15060539Y-10874260D01*
X15060539Y-10874260D02*
X15051015Y-10883784D01*
X15051015Y-10883784D02*
X15041491Y-10874260D01*
X15041491Y-10874260D02*
X15051015Y-10864736D01*
X15051015Y-10864736D02*
X15051015Y-10883784D01*
X15184348Y-10683784D02*
X15203396Y-10683784D01*
X15203396Y-10683784D02*
X15222444Y-10693308D01*
X15222444Y-10693308D02*
X15231967Y-10702831D01*
X15231967Y-10702831D02*
X15241491Y-10721879D01*
X15241491Y-10721879D02*
X15251015Y-10759974D01*
X15251015Y-10759974D02*
X15251015Y-10807593D01*
X15251015Y-10807593D02*
X15241491Y-10845689D01*
X15241491Y-10845689D02*
X15231967Y-10864736D01*
X15231967Y-10864736D02*
X15222444Y-10874260D01*
X15222444Y-10874260D02*
X15203396Y-10883784D01*
X15203396Y-10883784D02*
X15184348Y-10883784D01*
X15184348Y-10883784D02*
X15165301Y-10874260D01*
X15165301Y-10874260D02*
X15155777Y-10864736D01*
X15155777Y-10864736D02*
X15146253Y-10845689D01*
X15146253Y-10845689D02*
X15136729Y-10807593D01*
X15136729Y-10807593D02*
X15136729Y-10759974D01*
X15136729Y-10759974D02*
X15146253Y-10721879D01*
X15146253Y-10721879D02*
X15155777Y-10702831D01*
X15155777Y-10702831D02*
X15165301Y-10693308D01*
X15165301Y-10693308D02*
X15184348Y-10683784D01*
X15441491Y-10883784D02*
X15327206Y-10883784D01*
X15384348Y-10883784D02*
X15384348Y-10683784D01*
X15384348Y-10683784D02*
X15365301Y-10712355D01*
X15365301Y-10712355D02*
X15346253Y-10731403D01*
X15346253Y-10731403D02*
X15327206Y-10740927D01*
X15622444Y-10683784D02*
X15527206Y-10683784D01*
X15527206Y-10683784D02*
X15517682Y-10779022D01*
X15517682Y-10779022D02*
X15527206Y-10769498D01*
X15527206Y-10769498D02*
X15546253Y-10759974D01*
X15546253Y-10759974D02*
X15593872Y-10759974D01*
X15593872Y-10759974D02*
X15612920Y-10769498D01*
X15612920Y-10769498D02*
X15622444Y-10779022D01*
X15622444Y-10779022D02*
X15631967Y-10798070D01*
X15631967Y-10798070D02*
X15631967Y-10845689D01*
X15631967Y-10845689D02*
X15622444Y-10864736D01*
X15622444Y-10864736D02*
X15612920Y-10874260D01*
X15612920Y-10874260D02*
X15593872Y-10883784D01*
X15593872Y-10883784D02*
X15546253Y-10883784D01*
X15546253Y-10883784D02*
X15527206Y-10874260D01*
X15527206Y-10874260D02*
X15517682Y-10864736D01*
X15698634Y-10683784D02*
X15831967Y-10683784D01*
X15831967Y-10683784D02*
X15746253Y-10883784D01*
X15898634Y-10683784D02*
X15898634Y-10721879D01*
X15974825Y-10683784D02*
X15974825Y-10721879D01*
X16270063Y-10959974D02*
X16260539Y-10950450D01*
X16260539Y-10950450D02*
X16241491Y-10921879D01*
X16241491Y-10921879D02*
X16231968Y-10902831D01*
X16231968Y-10902831D02*
X16222444Y-10874260D01*
X16222444Y-10874260D02*
X16212920Y-10826641D01*
X16212920Y-10826641D02*
X16212920Y-10788546D01*
X16212920Y-10788546D02*
X16222444Y-10740927D01*
X16222444Y-10740927D02*
X16231968Y-10712355D01*
X16231968Y-10712355D02*
X16241491Y-10693308D01*
X16241491Y-10693308D02*
X16260539Y-10664736D01*
X16260539Y-10664736D02*
X16270063Y-10655212D01*
X16431968Y-10683784D02*
X16393872Y-10683784D01*
X16393872Y-10683784D02*
X16374825Y-10693308D01*
X16374825Y-10693308D02*
X16365301Y-10702831D01*
X16365301Y-10702831D02*
X16346253Y-10731403D01*
X16346253Y-10731403D02*
X16336729Y-10769498D01*
X16336729Y-10769498D02*
X16336729Y-10845689D01*
X16336729Y-10845689D02*
X16346253Y-10864736D01*
X16346253Y-10864736D02*
X16355777Y-10874260D01*
X16355777Y-10874260D02*
X16374825Y-10883784D01*
X16374825Y-10883784D02*
X16412920Y-10883784D01*
X16412920Y-10883784D02*
X16431968Y-10874260D01*
X16431968Y-10874260D02*
X16441491Y-10864736D01*
X16441491Y-10864736D02*
X16451015Y-10845689D01*
X16451015Y-10845689D02*
X16451015Y-10798070D01*
X16451015Y-10798070D02*
X16441491Y-10779022D01*
X16441491Y-10779022D02*
X16431968Y-10769498D01*
X16431968Y-10769498D02*
X16412920Y-10759974D01*
X16412920Y-10759974D02*
X16374825Y-10759974D01*
X16374825Y-10759974D02*
X16355777Y-10769498D01*
X16355777Y-10769498D02*
X16346253Y-10779022D01*
X16346253Y-10779022D02*
X16336729Y-10798070D01*
X16689110Y-10883784D02*
X16689110Y-10683784D01*
X16774825Y-10883784D02*
X16774825Y-10779022D01*
X16774825Y-10779022D02*
X16765301Y-10759974D01*
X16765301Y-10759974D02*
X16746253Y-10750450D01*
X16746253Y-10750450D02*
X16717682Y-10750450D01*
X16717682Y-10750450D02*
X16698634Y-10759974D01*
X16698634Y-10759974D02*
X16689110Y-10769498D01*
X16898634Y-10883784D02*
X16879587Y-10874260D01*
X16879587Y-10874260D02*
X16870063Y-10864736D01*
X16870063Y-10864736D02*
X16860539Y-10845689D01*
X16860539Y-10845689D02*
X16860539Y-10788546D01*
X16860539Y-10788546D02*
X16870063Y-10769498D01*
X16870063Y-10769498D02*
X16879587Y-10759974D01*
X16879587Y-10759974D02*
X16898634Y-10750450D01*
X16898634Y-10750450D02*
X16927206Y-10750450D01*
X16927206Y-10750450D02*
X16946253Y-10759974D01*
X16946253Y-10759974D02*
X16955777Y-10769498D01*
X16955777Y-10769498D02*
X16965301Y-10788546D01*
X16965301Y-10788546D02*
X16965301Y-10845689D01*
X16965301Y-10845689D02*
X16955777Y-10864736D01*
X16955777Y-10864736D02*
X16946253Y-10874260D01*
X16946253Y-10874260D02*
X16927206Y-10883784D01*
X16927206Y-10883784D02*
X16898634Y-10883784D01*
X17079587Y-10883784D02*
X17060539Y-10874260D01*
X17060539Y-10874260D02*
X17051015Y-10855212D01*
X17051015Y-10855212D02*
X17051015Y-10683784D01*
X17231968Y-10874260D02*
X17212920Y-10883784D01*
X17212920Y-10883784D02*
X17174825Y-10883784D01*
X17174825Y-10883784D02*
X17155777Y-10874260D01*
X17155777Y-10874260D02*
X17146253Y-10855212D01*
X17146253Y-10855212D02*
X17146253Y-10779022D01*
X17146253Y-10779022D02*
X17155777Y-10759974D01*
X17155777Y-10759974D02*
X17174825Y-10750450D01*
X17174825Y-10750450D02*
X17212920Y-10750450D01*
X17212920Y-10750450D02*
X17231968Y-10759974D01*
X17231968Y-10759974D02*
X17241492Y-10779022D01*
X17241492Y-10779022D02*
X17241492Y-10798070D01*
X17241492Y-10798070D02*
X17146253Y-10817117D01*
X17317682Y-10874260D02*
X17336730Y-10883784D01*
X17336730Y-10883784D02*
X17374825Y-10883784D01*
X17374825Y-10883784D02*
X17393873Y-10874260D01*
X17393873Y-10874260D02*
X17403396Y-10855212D01*
X17403396Y-10855212D02*
X17403396Y-10845689D01*
X17403396Y-10845689D02*
X17393873Y-10826641D01*
X17393873Y-10826641D02*
X17374825Y-10817117D01*
X17374825Y-10817117D02*
X17346253Y-10817117D01*
X17346253Y-10817117D02*
X17327206Y-10807593D01*
X17327206Y-10807593D02*
X17317682Y-10788546D01*
X17317682Y-10788546D02*
X17317682Y-10779022D01*
X17317682Y-10779022D02*
X17327206Y-10759974D01*
X17327206Y-10759974D02*
X17346253Y-10750450D01*
X17346253Y-10750450D02*
X17374825Y-10750450D01*
X17374825Y-10750450D02*
X17393873Y-10759974D01*
X17470063Y-10959974D02*
X17479587Y-10950450D01*
X17479587Y-10950450D02*
X17498634Y-10921879D01*
X17498634Y-10921879D02*
X17508158Y-10902831D01*
X17508158Y-10902831D02*
X17517682Y-10874260D01*
X17517682Y-10874260D02*
X17527206Y-10826641D01*
X17527206Y-10826641D02*
X17527206Y-10788546D01*
X17527206Y-10788546D02*
X17517682Y-10740927D01*
X17517682Y-10740927D02*
X17508158Y-10712355D01*
X17508158Y-10712355D02*
X17498634Y-10693308D01*
X17498634Y-10693308D02*
X17479587Y-10664736D01*
X17479587Y-10664736D02*
X17470063Y-10655212D01*
D13*
X12695000Y-11056300D02*
G75*
G03*
X12695000Y-11056300I-40000J0D01*
G01*
D11*
X12993872Y-10947784D02*
X13012920Y-10947784D01*
X13012920Y-10947784D02*
X13031967Y-10957308D01*
X13031967Y-10957308D02*
X13041491Y-10966831D01*
X13041491Y-10966831D02*
X13051015Y-10985879D01*
X13051015Y-10985879D02*
X13060539Y-11023974D01*
X13060539Y-11023974D02*
X13060539Y-11071593D01*
X13060539Y-11071593D02*
X13051015Y-11109689D01*
X13051015Y-11109689D02*
X13041491Y-11128736D01*
X13041491Y-11128736D02*
X13031967Y-11138260D01*
X13031967Y-11138260D02*
X13012920Y-11147784D01*
X13012920Y-11147784D02*
X12993872Y-11147784D01*
X12993872Y-11147784D02*
X12974824Y-11138260D01*
X12974824Y-11138260D02*
X12965301Y-11128736D01*
X12965301Y-11128736D02*
X12955777Y-11109689D01*
X12955777Y-11109689D02*
X12946253Y-11071593D01*
X12946253Y-11071593D02*
X12946253Y-11023974D01*
X12946253Y-11023974D02*
X12955777Y-10985879D01*
X12955777Y-10985879D02*
X12965301Y-10966831D01*
X12965301Y-10966831D02*
X12974824Y-10957308D01*
X12974824Y-10957308D02*
X12993872Y-10947784D01*
X13146253Y-11128736D02*
X13155777Y-11138260D01*
X13155777Y-11138260D02*
X13146253Y-11147784D01*
X13146253Y-11147784D02*
X13136729Y-11138260D01*
X13136729Y-11138260D02*
X13146253Y-11128736D01*
X13146253Y-11128736D02*
X13146253Y-11147784D01*
X13270062Y-11033498D02*
X13251015Y-11023974D01*
X13251015Y-11023974D02*
X13241491Y-11014450D01*
X13241491Y-11014450D02*
X13231967Y-10995403D01*
X13231967Y-10995403D02*
X13231967Y-10985879D01*
X13231967Y-10985879D02*
X13241491Y-10966831D01*
X13241491Y-10966831D02*
X13251015Y-10957308D01*
X13251015Y-10957308D02*
X13270062Y-10947784D01*
X13270062Y-10947784D02*
X13308158Y-10947784D01*
X13308158Y-10947784D02*
X13327205Y-10957308D01*
X13327205Y-10957308D02*
X13336729Y-10966831D01*
X13336729Y-10966831D02*
X13346253Y-10985879D01*
X13346253Y-10985879D02*
X13346253Y-10995403D01*
X13346253Y-10995403D02*
X13336729Y-11014450D01*
X13336729Y-11014450D02*
X13327205Y-11023974D01*
X13327205Y-11023974D02*
X13308158Y-11033498D01*
X13308158Y-11033498D02*
X13270062Y-11033498D01*
X13270062Y-11033498D02*
X13251015Y-11043022D01*
X13251015Y-11043022D02*
X13241491Y-11052546D01*
X13241491Y-11052546D02*
X13231967Y-11071593D01*
X13231967Y-11071593D02*
X13231967Y-11109689D01*
X13231967Y-11109689D02*
X13241491Y-11128736D01*
X13241491Y-11128736D02*
X13251015Y-11138260D01*
X13251015Y-11138260D02*
X13270062Y-11147784D01*
X13270062Y-11147784D02*
X13308158Y-11147784D01*
X13308158Y-11147784D02*
X13327205Y-11138260D01*
X13327205Y-11138260D02*
X13336729Y-11128736D01*
X13336729Y-11128736D02*
X13346253Y-11109689D01*
X13346253Y-11109689D02*
X13346253Y-11071593D01*
X13346253Y-11071593D02*
X13336729Y-11052546D01*
X13336729Y-11052546D02*
X13327205Y-11043022D01*
X13327205Y-11043022D02*
X13308158Y-11033498D01*
X13470062Y-10947784D02*
X13489110Y-10947784D01*
X13489110Y-10947784D02*
X13508158Y-10957308D01*
X13508158Y-10957308D02*
X13517682Y-10966831D01*
X13517682Y-10966831D02*
X13527205Y-10985879D01*
X13527205Y-10985879D02*
X13536729Y-11023974D01*
X13536729Y-11023974D02*
X13536729Y-11071593D01*
X13536729Y-11071593D02*
X13527205Y-11109689D01*
X13527205Y-11109689D02*
X13517682Y-11128736D01*
X13517682Y-11128736D02*
X13508158Y-11138260D01*
X13508158Y-11138260D02*
X13489110Y-11147784D01*
X13489110Y-11147784D02*
X13470062Y-11147784D01*
X13470062Y-11147784D02*
X13451015Y-11138260D01*
X13451015Y-11138260D02*
X13441491Y-11128736D01*
X13441491Y-11128736D02*
X13431967Y-11109689D01*
X13431967Y-11109689D02*
X13422443Y-11071593D01*
X13422443Y-11071593D02*
X13422443Y-11023974D01*
X13422443Y-11023974D02*
X13431967Y-10985879D01*
X13431967Y-10985879D02*
X13441491Y-10966831D01*
X13441491Y-10966831D02*
X13451015Y-10957308D01*
X13451015Y-10957308D02*
X13470062Y-10947784D01*
X13660539Y-10947784D02*
X13679586Y-10947784D01*
X13679586Y-10947784D02*
X13698634Y-10957308D01*
X13698634Y-10957308D02*
X13708158Y-10966831D01*
X13708158Y-10966831D02*
X13717682Y-10985879D01*
X13717682Y-10985879D02*
X13727205Y-11023974D01*
X13727205Y-11023974D02*
X13727205Y-11071593D01*
X13727205Y-11071593D02*
X13717682Y-11109689D01*
X13717682Y-11109689D02*
X13708158Y-11128736D01*
X13708158Y-11128736D02*
X13698634Y-11138260D01*
X13698634Y-11138260D02*
X13679586Y-11147784D01*
X13679586Y-11147784D02*
X13660539Y-11147784D01*
X13660539Y-11147784D02*
X13641491Y-11138260D01*
X13641491Y-11138260D02*
X13631967Y-11128736D01*
X13631967Y-11128736D02*
X13622443Y-11109689D01*
X13622443Y-11109689D02*
X13612920Y-11071593D01*
X13612920Y-11071593D02*
X13612920Y-11023974D01*
X13612920Y-11023974D02*
X13622443Y-10985879D01*
X13622443Y-10985879D02*
X13631967Y-10966831D01*
X13631967Y-10966831D02*
X13641491Y-10957308D01*
X13641491Y-10957308D02*
X13660539Y-10947784D01*
X13812920Y-11147784D02*
X13812920Y-11014450D01*
X13812920Y-11033498D02*
X13822443Y-11023974D01*
X13822443Y-11023974D02*
X13841491Y-11014450D01*
X13841491Y-11014450D02*
X13870063Y-11014450D01*
X13870063Y-11014450D02*
X13889110Y-11023974D01*
X13889110Y-11023974D02*
X13898634Y-11043022D01*
X13898634Y-11043022D02*
X13898634Y-11147784D01*
X13898634Y-11043022D02*
X13908158Y-11023974D01*
X13908158Y-11023974D02*
X13927205Y-11014450D01*
X13927205Y-11014450D02*
X13955777Y-11014450D01*
X13955777Y-11014450D02*
X13974824Y-11023974D01*
X13974824Y-11023974D02*
X13984348Y-11043022D01*
X13984348Y-11043022D02*
X13984348Y-11147784D01*
X14079586Y-11147784D02*
X14079586Y-11014450D01*
X14079586Y-11033498D02*
X14089110Y-11023974D01*
X14089110Y-11023974D02*
X14108158Y-11014450D01*
X14108158Y-11014450D02*
X14136729Y-11014450D01*
X14136729Y-11014450D02*
X14155777Y-11023974D01*
X14155777Y-11023974D02*
X14165301Y-11043022D01*
X14165301Y-11043022D02*
X14165301Y-11147784D01*
X14165301Y-11043022D02*
X14174824Y-11023974D01*
X14174824Y-11023974D02*
X14193872Y-11014450D01*
X14193872Y-11014450D02*
X14222443Y-11014450D01*
X14222443Y-11014450D02*
X14241491Y-11023974D01*
X14241491Y-11023974D02*
X14251015Y-11043022D01*
X14251015Y-11043022D02*
X14251015Y-11147784D01*
X14641491Y-10938260D02*
X14470063Y-11195403D01*
X14898634Y-10947784D02*
X14917682Y-10947784D01*
X14917682Y-10947784D02*
X14936729Y-10957308D01*
X14936729Y-10957308D02*
X14946253Y-10966831D01*
X14946253Y-10966831D02*
X14955777Y-10985879D01*
X14955777Y-10985879D02*
X14965301Y-11023974D01*
X14965301Y-11023974D02*
X14965301Y-11071593D01*
X14965301Y-11071593D02*
X14955777Y-11109689D01*
X14955777Y-11109689D02*
X14946253Y-11128736D01*
X14946253Y-11128736D02*
X14936729Y-11138260D01*
X14936729Y-11138260D02*
X14917682Y-11147784D01*
X14917682Y-11147784D02*
X14898634Y-11147784D01*
X14898634Y-11147784D02*
X14879586Y-11138260D01*
X14879586Y-11138260D02*
X14870063Y-11128736D01*
X14870063Y-11128736D02*
X14860539Y-11109689D01*
X14860539Y-11109689D02*
X14851015Y-11071593D01*
X14851015Y-11071593D02*
X14851015Y-11023974D01*
X14851015Y-11023974D02*
X14860539Y-10985879D01*
X14860539Y-10985879D02*
X14870063Y-10966831D01*
X14870063Y-10966831D02*
X14879586Y-10957308D01*
X14879586Y-10957308D02*
X14898634Y-10947784D01*
X15051015Y-11128736D02*
X15060539Y-11138260D01*
X15060539Y-11138260D02*
X15051015Y-11147784D01*
X15051015Y-11147784D02*
X15041491Y-11138260D01*
X15041491Y-11138260D02*
X15051015Y-11128736D01*
X15051015Y-11128736D02*
X15051015Y-11147784D01*
X15184348Y-10947784D02*
X15203396Y-10947784D01*
X15203396Y-10947784D02*
X15222444Y-10957308D01*
X15222444Y-10957308D02*
X15231967Y-10966831D01*
X15231967Y-10966831D02*
X15241491Y-10985879D01*
X15241491Y-10985879D02*
X15251015Y-11023974D01*
X15251015Y-11023974D02*
X15251015Y-11071593D01*
X15251015Y-11071593D02*
X15241491Y-11109689D01*
X15241491Y-11109689D02*
X15231967Y-11128736D01*
X15231967Y-11128736D02*
X15222444Y-11138260D01*
X15222444Y-11138260D02*
X15203396Y-11147784D01*
X15203396Y-11147784D02*
X15184348Y-11147784D01*
X15184348Y-11147784D02*
X15165301Y-11138260D01*
X15165301Y-11138260D02*
X15155777Y-11128736D01*
X15155777Y-11128736D02*
X15146253Y-11109689D01*
X15146253Y-11109689D02*
X15136729Y-11071593D01*
X15136729Y-11071593D02*
X15136729Y-11023974D01*
X15136729Y-11023974D02*
X15146253Y-10985879D01*
X15146253Y-10985879D02*
X15155777Y-10966831D01*
X15155777Y-10966831D02*
X15165301Y-10957308D01*
X15165301Y-10957308D02*
X15184348Y-10947784D01*
X15317682Y-10947784D02*
X15441491Y-10947784D01*
X15441491Y-10947784D02*
X15374825Y-11023974D01*
X15374825Y-11023974D02*
X15403396Y-11023974D01*
X15403396Y-11023974D02*
X15422444Y-11033498D01*
X15422444Y-11033498D02*
X15431967Y-11043022D01*
X15431967Y-11043022D02*
X15441491Y-11062070D01*
X15441491Y-11062070D02*
X15441491Y-11109689D01*
X15441491Y-11109689D02*
X15431967Y-11128736D01*
X15431967Y-11128736D02*
X15422444Y-11138260D01*
X15422444Y-11138260D02*
X15403396Y-11147784D01*
X15403396Y-11147784D02*
X15346253Y-11147784D01*
X15346253Y-11147784D02*
X15327206Y-11138260D01*
X15327206Y-11138260D02*
X15317682Y-11128736D01*
X15631967Y-11147784D02*
X15517682Y-11147784D01*
X15574825Y-11147784D02*
X15574825Y-10947784D01*
X15574825Y-10947784D02*
X15555777Y-10976355D01*
X15555777Y-10976355D02*
X15536729Y-10995403D01*
X15536729Y-10995403D02*
X15517682Y-11004927D01*
X15812920Y-10947784D02*
X15717682Y-10947784D01*
X15717682Y-10947784D02*
X15708158Y-11043022D01*
X15708158Y-11043022D02*
X15717682Y-11033498D01*
X15717682Y-11033498D02*
X15736729Y-11023974D01*
X15736729Y-11023974D02*
X15784348Y-11023974D01*
X15784348Y-11023974D02*
X15803396Y-11033498D01*
X15803396Y-11033498D02*
X15812920Y-11043022D01*
X15812920Y-11043022D02*
X15822444Y-11062070D01*
X15822444Y-11062070D02*
X15822444Y-11109689D01*
X15822444Y-11109689D02*
X15812920Y-11128736D01*
X15812920Y-11128736D02*
X15803396Y-11138260D01*
X15803396Y-11138260D02*
X15784348Y-11147784D01*
X15784348Y-11147784D02*
X15736729Y-11147784D01*
X15736729Y-11147784D02*
X15717682Y-11138260D01*
X15717682Y-11138260D02*
X15708158Y-11128736D01*
X15898634Y-10947784D02*
X15898634Y-10985879D01*
X15974825Y-10947784D02*
X15974825Y-10985879D01*
X16270063Y-11223974D02*
X16260539Y-11214450D01*
X16260539Y-11214450D02*
X16241491Y-11185879D01*
X16241491Y-11185879D02*
X16231968Y-11166831D01*
X16231968Y-11166831D02*
X16222444Y-11138260D01*
X16222444Y-11138260D02*
X16212920Y-11090641D01*
X16212920Y-11090641D02*
X16212920Y-11052546D01*
X16212920Y-11052546D02*
X16222444Y-11004927D01*
X16222444Y-11004927D02*
X16231968Y-10976355D01*
X16231968Y-10976355D02*
X16241491Y-10957308D01*
X16241491Y-10957308D02*
X16260539Y-10928736D01*
X16260539Y-10928736D02*
X16270063Y-10919212D01*
X16451015Y-11147784D02*
X16336729Y-11147784D01*
X16393872Y-11147784D02*
X16393872Y-10947784D01*
X16393872Y-10947784D02*
X16374825Y-10976355D01*
X16374825Y-10976355D02*
X16355777Y-10995403D01*
X16355777Y-10995403D02*
X16336729Y-11004927D01*
X16622444Y-11014450D02*
X16622444Y-11147784D01*
X16574825Y-10938260D02*
X16527206Y-11081117D01*
X16527206Y-11081117D02*
X16651015Y-11081117D01*
X16879587Y-11147784D02*
X16879587Y-10947784D01*
X16965301Y-11147784D02*
X16965301Y-11043022D01*
X16965301Y-11043022D02*
X16955777Y-11023974D01*
X16955777Y-11023974D02*
X16936730Y-11014450D01*
X16936730Y-11014450D02*
X16908158Y-11014450D01*
X16908158Y-11014450D02*
X16889111Y-11023974D01*
X16889111Y-11023974D02*
X16879587Y-11033498D01*
X17089111Y-11147784D02*
X17070063Y-11138260D01*
X17070063Y-11138260D02*
X17060539Y-11128736D01*
X17060539Y-11128736D02*
X17051015Y-11109689D01*
X17051015Y-11109689D02*
X17051015Y-11052546D01*
X17051015Y-11052546D02*
X17060539Y-11033498D01*
X17060539Y-11033498D02*
X17070063Y-11023974D01*
X17070063Y-11023974D02*
X17089111Y-11014450D01*
X17089111Y-11014450D02*
X17117682Y-11014450D01*
X17117682Y-11014450D02*
X17136730Y-11023974D01*
X17136730Y-11023974D02*
X17146253Y-11033498D01*
X17146253Y-11033498D02*
X17155777Y-11052546D01*
X17155777Y-11052546D02*
X17155777Y-11109689D01*
X17155777Y-11109689D02*
X17146253Y-11128736D01*
X17146253Y-11128736D02*
X17136730Y-11138260D01*
X17136730Y-11138260D02*
X17117682Y-11147784D01*
X17117682Y-11147784D02*
X17089111Y-11147784D01*
X17270063Y-11147784D02*
X17251015Y-11138260D01*
X17251015Y-11138260D02*
X17241492Y-11119212D01*
X17241492Y-11119212D02*
X17241492Y-10947784D01*
X17422444Y-11138260D02*
X17403396Y-11147784D01*
X17403396Y-11147784D02*
X17365301Y-11147784D01*
X17365301Y-11147784D02*
X17346253Y-11138260D01*
X17346253Y-11138260D02*
X17336730Y-11119212D01*
X17336730Y-11119212D02*
X17336730Y-11043022D01*
X17336730Y-11043022D02*
X17346253Y-11023974D01*
X17346253Y-11023974D02*
X17365301Y-11014450D01*
X17365301Y-11014450D02*
X17403396Y-11014450D01*
X17403396Y-11014450D02*
X17422444Y-11023974D01*
X17422444Y-11023974D02*
X17431968Y-11043022D01*
X17431968Y-11043022D02*
X17431968Y-11062070D01*
X17431968Y-11062070D02*
X17336730Y-11081117D01*
X17508158Y-11138260D02*
X17527206Y-11147784D01*
X17527206Y-11147784D02*
X17565301Y-11147784D01*
X17565301Y-11147784D02*
X17584349Y-11138260D01*
X17584349Y-11138260D02*
X17593873Y-11119212D01*
X17593873Y-11119212D02*
X17593873Y-11109689D01*
X17593873Y-11109689D02*
X17584349Y-11090641D01*
X17584349Y-11090641D02*
X17565301Y-11081117D01*
X17565301Y-11081117D02*
X17536730Y-11081117D01*
X17536730Y-11081117D02*
X17517682Y-11071593D01*
X17517682Y-11071593D02*
X17508158Y-11052546D01*
X17508158Y-11052546D02*
X17508158Y-11043022D01*
X17508158Y-11043022D02*
X17517682Y-11023974D01*
X17517682Y-11023974D02*
X17536730Y-11014450D01*
X17536730Y-11014450D02*
X17565301Y-11014450D01*
X17565301Y-11014450D02*
X17584349Y-11023974D01*
X17660539Y-11223974D02*
X17670063Y-11214450D01*
X17670063Y-11214450D02*
X17689111Y-11185879D01*
X17689111Y-11185879D02*
X17698634Y-11166831D01*
X17698634Y-11166831D02*
X17708158Y-11138260D01*
X17708158Y-11138260D02*
X17717682Y-11090641D01*
X17717682Y-11090641D02*
X17717682Y-11052546D01*
X17717682Y-11052546D02*
X17708158Y-11004927D01*
X17708158Y-11004927D02*
X17698634Y-10976355D01*
X17698634Y-10976355D02*
X17689111Y-10957308D01*
X17689111Y-10957308D02*
X17670063Y-10928736D01*
X17670063Y-10928736D02*
X17660539Y-10919212D01*
D10*
X12645000Y-11270300D02*
X12645000Y-11370300D01*
X12595000Y-11320300D02*
X12695000Y-11320300D01*
D11*
X13060539Y-11411784D02*
X12946253Y-11411784D01*
X13003396Y-11411784D02*
X13003396Y-11211784D01*
X13003396Y-11211784D02*
X12984348Y-11240355D01*
X12984348Y-11240355D02*
X12965301Y-11259403D01*
X12965301Y-11259403D02*
X12946253Y-11268927D01*
X13146253Y-11392736D02*
X13155777Y-11402260D01*
X13155777Y-11402260D02*
X13146253Y-11411784D01*
X13146253Y-11411784D02*
X13136729Y-11402260D01*
X13136729Y-11402260D02*
X13146253Y-11392736D01*
X13146253Y-11392736D02*
X13146253Y-11411784D01*
X13279586Y-11211784D02*
X13298634Y-11211784D01*
X13298634Y-11211784D02*
X13317682Y-11221308D01*
X13317682Y-11221308D02*
X13327205Y-11230831D01*
X13327205Y-11230831D02*
X13336729Y-11249879D01*
X13336729Y-11249879D02*
X13346253Y-11287974D01*
X13346253Y-11287974D02*
X13346253Y-11335593D01*
X13346253Y-11335593D02*
X13336729Y-11373688D01*
X13336729Y-11373688D02*
X13327205Y-11392736D01*
X13327205Y-11392736D02*
X13317682Y-11402260D01*
X13317682Y-11402260D02*
X13298634Y-11411784D01*
X13298634Y-11411784D02*
X13279586Y-11411784D01*
X13279586Y-11411784D02*
X13260539Y-11402260D01*
X13260539Y-11402260D02*
X13251015Y-11392736D01*
X13251015Y-11392736D02*
X13241491Y-11373688D01*
X13241491Y-11373688D02*
X13231967Y-11335593D01*
X13231967Y-11335593D02*
X13231967Y-11287974D01*
X13231967Y-11287974D02*
X13241491Y-11249879D01*
X13241491Y-11249879D02*
X13251015Y-11230831D01*
X13251015Y-11230831D02*
X13260539Y-11221308D01*
X13260539Y-11221308D02*
X13279586Y-11211784D01*
X13470062Y-11211784D02*
X13489110Y-11211784D01*
X13489110Y-11211784D02*
X13508158Y-11221308D01*
X13508158Y-11221308D02*
X13517682Y-11230831D01*
X13517682Y-11230831D02*
X13527205Y-11249879D01*
X13527205Y-11249879D02*
X13536729Y-11287974D01*
X13536729Y-11287974D02*
X13536729Y-11335593D01*
X13536729Y-11335593D02*
X13527205Y-11373688D01*
X13527205Y-11373688D02*
X13517682Y-11392736D01*
X13517682Y-11392736D02*
X13508158Y-11402260D01*
X13508158Y-11402260D02*
X13489110Y-11411784D01*
X13489110Y-11411784D02*
X13470062Y-11411784D01*
X13470062Y-11411784D02*
X13451015Y-11402260D01*
X13451015Y-11402260D02*
X13441491Y-11392736D01*
X13441491Y-11392736D02*
X13431967Y-11373688D01*
X13431967Y-11373688D02*
X13422443Y-11335593D01*
X13422443Y-11335593D02*
X13422443Y-11287974D01*
X13422443Y-11287974D02*
X13431967Y-11249879D01*
X13431967Y-11249879D02*
X13441491Y-11230831D01*
X13441491Y-11230831D02*
X13451015Y-11221308D01*
X13451015Y-11221308D02*
X13470062Y-11211784D01*
X13660539Y-11211784D02*
X13679586Y-11211784D01*
X13679586Y-11211784D02*
X13698634Y-11221308D01*
X13698634Y-11221308D02*
X13708158Y-11230831D01*
X13708158Y-11230831D02*
X13717682Y-11249879D01*
X13717682Y-11249879D02*
X13727205Y-11287974D01*
X13727205Y-11287974D02*
X13727205Y-11335593D01*
X13727205Y-11335593D02*
X13717682Y-11373688D01*
X13717682Y-11373688D02*
X13708158Y-11392736D01*
X13708158Y-11392736D02*
X13698634Y-11402260D01*
X13698634Y-11402260D02*
X13679586Y-11411784D01*
X13679586Y-11411784D02*
X13660539Y-11411784D01*
X13660539Y-11411784D02*
X13641491Y-11402260D01*
X13641491Y-11402260D02*
X13631967Y-11392736D01*
X13631967Y-11392736D02*
X13622443Y-11373688D01*
X13622443Y-11373688D02*
X13612920Y-11335593D01*
X13612920Y-11335593D02*
X13612920Y-11287974D01*
X13612920Y-11287974D02*
X13622443Y-11249879D01*
X13622443Y-11249879D02*
X13631967Y-11230831D01*
X13631967Y-11230831D02*
X13641491Y-11221308D01*
X13641491Y-11221308D02*
X13660539Y-11211784D01*
X13812920Y-11411784D02*
X13812920Y-11278450D01*
X13812920Y-11297498D02*
X13822443Y-11287974D01*
X13822443Y-11287974D02*
X13841491Y-11278450D01*
X13841491Y-11278450D02*
X13870063Y-11278450D01*
X13870063Y-11278450D02*
X13889110Y-11287974D01*
X13889110Y-11287974D02*
X13898634Y-11307022D01*
X13898634Y-11307022D02*
X13898634Y-11411784D01*
X13898634Y-11307022D02*
X13908158Y-11287974D01*
X13908158Y-11287974D02*
X13927205Y-11278450D01*
X13927205Y-11278450D02*
X13955777Y-11278450D01*
X13955777Y-11278450D02*
X13974824Y-11287974D01*
X13974824Y-11287974D02*
X13984348Y-11307022D01*
X13984348Y-11307022D02*
X13984348Y-11411784D01*
X14079586Y-11411784D02*
X14079586Y-11278450D01*
X14079586Y-11297498D02*
X14089110Y-11287974D01*
X14089110Y-11287974D02*
X14108158Y-11278450D01*
X14108158Y-11278450D02*
X14136729Y-11278450D01*
X14136729Y-11278450D02*
X14155777Y-11287974D01*
X14155777Y-11287974D02*
X14165301Y-11307022D01*
X14165301Y-11307022D02*
X14165301Y-11411784D01*
X14165301Y-11307022D02*
X14174824Y-11287974D01*
X14174824Y-11287974D02*
X14193872Y-11278450D01*
X14193872Y-11278450D02*
X14222443Y-11278450D01*
X14222443Y-11278450D02*
X14241491Y-11287974D01*
X14241491Y-11287974D02*
X14251015Y-11307022D01*
X14251015Y-11307022D02*
X14251015Y-11411784D01*
X14641491Y-11202260D02*
X14470063Y-11459403D01*
X14898634Y-11211784D02*
X14917682Y-11211784D01*
X14917682Y-11211784D02*
X14936729Y-11221308D01*
X14936729Y-11221308D02*
X14946253Y-11230831D01*
X14946253Y-11230831D02*
X14955777Y-11249879D01*
X14955777Y-11249879D02*
X14965301Y-11287974D01*
X14965301Y-11287974D02*
X14965301Y-11335593D01*
X14965301Y-11335593D02*
X14955777Y-11373688D01*
X14955777Y-11373688D02*
X14946253Y-11392736D01*
X14946253Y-11392736D02*
X14936729Y-11402260D01*
X14936729Y-11402260D02*
X14917682Y-11411784D01*
X14917682Y-11411784D02*
X14898634Y-11411784D01*
X14898634Y-11411784D02*
X14879586Y-11402260D01*
X14879586Y-11402260D02*
X14870063Y-11392736D01*
X14870063Y-11392736D02*
X14860539Y-11373688D01*
X14860539Y-11373688D02*
X14851015Y-11335593D01*
X14851015Y-11335593D02*
X14851015Y-11287974D01*
X14851015Y-11287974D02*
X14860539Y-11249879D01*
X14860539Y-11249879D02*
X14870063Y-11230831D01*
X14870063Y-11230831D02*
X14879586Y-11221308D01*
X14879586Y-11221308D02*
X14898634Y-11211784D01*
X15051015Y-11392736D02*
X15060539Y-11402260D01*
X15060539Y-11402260D02*
X15051015Y-11411784D01*
X15051015Y-11411784D02*
X15041491Y-11402260D01*
X15041491Y-11402260D02*
X15051015Y-11392736D01*
X15051015Y-11392736D02*
X15051015Y-11411784D01*
X15184348Y-11211784D02*
X15203396Y-11211784D01*
X15203396Y-11211784D02*
X15222444Y-11221308D01*
X15222444Y-11221308D02*
X15231967Y-11230831D01*
X15231967Y-11230831D02*
X15241491Y-11249879D01*
X15241491Y-11249879D02*
X15251015Y-11287974D01*
X15251015Y-11287974D02*
X15251015Y-11335593D01*
X15251015Y-11335593D02*
X15241491Y-11373688D01*
X15241491Y-11373688D02*
X15231967Y-11392736D01*
X15231967Y-11392736D02*
X15222444Y-11402260D01*
X15222444Y-11402260D02*
X15203396Y-11411784D01*
X15203396Y-11411784D02*
X15184348Y-11411784D01*
X15184348Y-11411784D02*
X15165301Y-11402260D01*
X15165301Y-11402260D02*
X15155777Y-11392736D01*
X15155777Y-11392736D02*
X15146253Y-11373688D01*
X15146253Y-11373688D02*
X15136729Y-11335593D01*
X15136729Y-11335593D02*
X15136729Y-11287974D01*
X15136729Y-11287974D02*
X15146253Y-11249879D01*
X15146253Y-11249879D02*
X15155777Y-11230831D01*
X15155777Y-11230831D02*
X15165301Y-11221308D01*
X15165301Y-11221308D02*
X15184348Y-11211784D01*
X15317682Y-11211784D02*
X15441491Y-11211784D01*
X15441491Y-11211784D02*
X15374825Y-11287974D01*
X15374825Y-11287974D02*
X15403396Y-11287974D01*
X15403396Y-11287974D02*
X15422444Y-11297498D01*
X15422444Y-11297498D02*
X15431967Y-11307022D01*
X15431967Y-11307022D02*
X15441491Y-11326069D01*
X15441491Y-11326069D02*
X15441491Y-11373688D01*
X15441491Y-11373688D02*
X15431967Y-11392736D01*
X15431967Y-11392736D02*
X15422444Y-11402260D01*
X15422444Y-11402260D02*
X15403396Y-11411784D01*
X15403396Y-11411784D02*
X15346253Y-11411784D01*
X15346253Y-11411784D02*
X15327206Y-11402260D01*
X15327206Y-11402260D02*
X15317682Y-11392736D01*
X15536729Y-11411784D02*
X15574825Y-11411784D01*
X15574825Y-11411784D02*
X15593872Y-11402260D01*
X15593872Y-11402260D02*
X15603396Y-11392736D01*
X15603396Y-11392736D02*
X15622444Y-11364165D01*
X15622444Y-11364165D02*
X15631967Y-11326069D01*
X15631967Y-11326069D02*
X15631967Y-11249879D01*
X15631967Y-11249879D02*
X15622444Y-11230831D01*
X15622444Y-11230831D02*
X15612920Y-11221308D01*
X15612920Y-11221308D02*
X15593872Y-11211784D01*
X15593872Y-11211784D02*
X15555777Y-11211784D01*
X15555777Y-11211784D02*
X15536729Y-11221308D01*
X15536729Y-11221308D02*
X15527206Y-11230831D01*
X15527206Y-11230831D02*
X15517682Y-11249879D01*
X15517682Y-11249879D02*
X15517682Y-11297498D01*
X15517682Y-11297498D02*
X15527206Y-11316546D01*
X15527206Y-11316546D02*
X15536729Y-11326069D01*
X15536729Y-11326069D02*
X15555777Y-11335593D01*
X15555777Y-11335593D02*
X15593872Y-11335593D01*
X15593872Y-11335593D02*
X15612920Y-11326069D01*
X15612920Y-11326069D02*
X15622444Y-11316546D01*
X15622444Y-11316546D02*
X15631967Y-11297498D01*
X15803396Y-11278450D02*
X15803396Y-11411784D01*
X15755777Y-11202260D02*
X15708158Y-11345117D01*
X15708158Y-11345117D02*
X15831967Y-11345117D01*
X15898634Y-11211784D02*
X15898634Y-11249879D01*
X15974825Y-11211784D02*
X15974825Y-11249879D01*
X16270063Y-11487974D02*
X16260539Y-11478450D01*
X16260539Y-11478450D02*
X16241491Y-11449879D01*
X16241491Y-11449879D02*
X16231968Y-11430831D01*
X16231968Y-11430831D02*
X16222444Y-11402260D01*
X16222444Y-11402260D02*
X16212920Y-11354641D01*
X16212920Y-11354641D02*
X16212920Y-11316546D01*
X16212920Y-11316546D02*
X16222444Y-11268927D01*
X16222444Y-11268927D02*
X16231968Y-11240355D01*
X16231968Y-11240355D02*
X16241491Y-11221308D01*
X16241491Y-11221308D02*
X16260539Y-11192736D01*
X16260539Y-11192736D02*
X16270063Y-11183212D01*
X16451015Y-11411784D02*
X16336729Y-11411784D01*
X16393872Y-11411784D02*
X16393872Y-11211784D01*
X16393872Y-11211784D02*
X16374825Y-11240355D01*
X16374825Y-11240355D02*
X16355777Y-11259403D01*
X16355777Y-11259403D02*
X16336729Y-11268927D01*
X16527206Y-11230831D02*
X16536729Y-11221308D01*
X16536729Y-11221308D02*
X16555777Y-11211784D01*
X16555777Y-11211784D02*
X16603396Y-11211784D01*
X16603396Y-11211784D02*
X16622444Y-11221308D01*
X16622444Y-11221308D02*
X16631968Y-11230831D01*
X16631968Y-11230831D02*
X16641491Y-11249879D01*
X16641491Y-11249879D02*
X16641491Y-11268927D01*
X16641491Y-11268927D02*
X16631968Y-11297498D01*
X16631968Y-11297498D02*
X16517682Y-11411784D01*
X16517682Y-11411784D02*
X16641491Y-11411784D01*
X16879587Y-11411784D02*
X16879587Y-11211784D01*
X16965301Y-11411784D02*
X16965301Y-11307022D01*
X16965301Y-11307022D02*
X16955777Y-11287974D01*
X16955777Y-11287974D02*
X16936730Y-11278450D01*
X16936730Y-11278450D02*
X16908158Y-11278450D01*
X16908158Y-11278450D02*
X16889111Y-11287974D01*
X16889111Y-11287974D02*
X16879587Y-11297498D01*
X17089111Y-11411784D02*
X17070063Y-11402260D01*
X17070063Y-11402260D02*
X17060539Y-11392736D01*
X17060539Y-11392736D02*
X17051015Y-11373688D01*
X17051015Y-11373688D02*
X17051015Y-11316546D01*
X17051015Y-11316546D02*
X17060539Y-11297498D01*
X17060539Y-11297498D02*
X17070063Y-11287974D01*
X17070063Y-11287974D02*
X17089111Y-11278450D01*
X17089111Y-11278450D02*
X17117682Y-11278450D01*
X17117682Y-11278450D02*
X17136730Y-11287974D01*
X17136730Y-11287974D02*
X17146253Y-11297498D01*
X17146253Y-11297498D02*
X17155777Y-11316546D01*
X17155777Y-11316546D02*
X17155777Y-11373688D01*
X17155777Y-11373688D02*
X17146253Y-11392736D01*
X17146253Y-11392736D02*
X17136730Y-11402260D01*
X17136730Y-11402260D02*
X17117682Y-11411784D01*
X17117682Y-11411784D02*
X17089111Y-11411784D01*
X17270063Y-11411784D02*
X17251015Y-11402260D01*
X17251015Y-11402260D02*
X17241492Y-11383212D01*
X17241492Y-11383212D02*
X17241492Y-11211784D01*
X17422444Y-11402260D02*
X17403396Y-11411784D01*
X17403396Y-11411784D02*
X17365301Y-11411784D01*
X17365301Y-11411784D02*
X17346253Y-11402260D01*
X17346253Y-11402260D02*
X17336730Y-11383212D01*
X17336730Y-11383212D02*
X17336730Y-11307022D01*
X17336730Y-11307022D02*
X17346253Y-11287974D01*
X17346253Y-11287974D02*
X17365301Y-11278450D01*
X17365301Y-11278450D02*
X17403396Y-11278450D01*
X17403396Y-11278450D02*
X17422444Y-11287974D01*
X17422444Y-11287974D02*
X17431968Y-11307022D01*
X17431968Y-11307022D02*
X17431968Y-11326069D01*
X17431968Y-11326069D02*
X17336730Y-11345117D01*
X17508158Y-11402260D02*
X17527206Y-11411784D01*
X17527206Y-11411784D02*
X17565301Y-11411784D01*
X17565301Y-11411784D02*
X17584349Y-11402260D01*
X17584349Y-11402260D02*
X17593873Y-11383212D01*
X17593873Y-11383212D02*
X17593873Y-11373688D01*
X17593873Y-11373688D02*
X17584349Y-11354641D01*
X17584349Y-11354641D02*
X17565301Y-11345117D01*
X17565301Y-11345117D02*
X17536730Y-11345117D01*
X17536730Y-11345117D02*
X17517682Y-11335593D01*
X17517682Y-11335593D02*
X17508158Y-11316546D01*
X17508158Y-11316546D02*
X17508158Y-11307022D01*
X17508158Y-11307022D02*
X17517682Y-11287974D01*
X17517682Y-11287974D02*
X17536730Y-11278450D01*
X17536730Y-11278450D02*
X17565301Y-11278450D01*
X17565301Y-11278450D02*
X17584349Y-11287974D01*
X17660539Y-11487974D02*
X17670063Y-11478450D01*
X17670063Y-11478450D02*
X17689111Y-11449879D01*
X17689111Y-11449879D02*
X17698634Y-11430831D01*
X17698634Y-11430831D02*
X17708158Y-11402260D01*
X17708158Y-11402260D02*
X17717682Y-11354641D01*
X17717682Y-11354641D02*
X17717682Y-11316546D01*
X17717682Y-11316546D02*
X17708158Y-11268927D01*
X17708158Y-11268927D02*
X17698634Y-11240355D01*
X17698634Y-11240355D02*
X17689111Y-11221308D01*
X17689111Y-11221308D02*
X17670063Y-11192736D01*
X17670063Y-11192736D02*
X17660539Y-11183212D01*
X12665711Y-11655011D02*
X12665711Y-11513589D01*
X12524289Y-11513589D01*
X12524289Y-11655011D01*
X12665711Y-11655011D01*
X12936729Y-11475784D02*
X13060539Y-11475784D01*
X13060539Y-11475784D02*
X12993872Y-11551974D01*
X12993872Y-11551974D02*
X13022443Y-11551974D01*
X13022443Y-11551974D02*
X13041491Y-11561498D01*
X13041491Y-11561498D02*
X13051015Y-11571022D01*
X13051015Y-11571022D02*
X13060539Y-11590069D01*
X13060539Y-11590069D02*
X13060539Y-11637688D01*
X13060539Y-11637688D02*
X13051015Y-11656736D01*
X13051015Y-11656736D02*
X13041491Y-11666260D01*
X13041491Y-11666260D02*
X13022443Y-11675784D01*
X13022443Y-11675784D02*
X12965301Y-11675784D01*
X12965301Y-11675784D02*
X12946253Y-11666260D01*
X12946253Y-11666260D02*
X12936729Y-11656736D01*
X13146253Y-11656736D02*
X13155777Y-11666260D01*
X13155777Y-11666260D02*
X13146253Y-11675784D01*
X13146253Y-11675784D02*
X13136729Y-11666260D01*
X13136729Y-11666260D02*
X13146253Y-11656736D01*
X13146253Y-11656736D02*
X13146253Y-11675784D01*
X13231967Y-11494831D02*
X13241491Y-11485308D01*
X13241491Y-11485308D02*
X13260539Y-11475784D01*
X13260539Y-11475784D02*
X13308158Y-11475784D01*
X13308158Y-11475784D02*
X13327205Y-11485308D01*
X13327205Y-11485308D02*
X13336729Y-11494831D01*
X13336729Y-11494831D02*
X13346253Y-11513879D01*
X13346253Y-11513879D02*
X13346253Y-11532927D01*
X13346253Y-11532927D02*
X13336729Y-11561498D01*
X13336729Y-11561498D02*
X13222443Y-11675784D01*
X13222443Y-11675784D02*
X13346253Y-11675784D01*
X13470062Y-11475784D02*
X13489110Y-11475784D01*
X13489110Y-11475784D02*
X13508158Y-11485308D01*
X13508158Y-11485308D02*
X13517682Y-11494831D01*
X13517682Y-11494831D02*
X13527205Y-11513879D01*
X13527205Y-11513879D02*
X13536729Y-11551974D01*
X13536729Y-11551974D02*
X13536729Y-11599593D01*
X13536729Y-11599593D02*
X13527205Y-11637688D01*
X13527205Y-11637688D02*
X13517682Y-11656736D01*
X13517682Y-11656736D02*
X13508158Y-11666260D01*
X13508158Y-11666260D02*
X13489110Y-11675784D01*
X13489110Y-11675784D02*
X13470062Y-11675784D01*
X13470062Y-11675784D02*
X13451015Y-11666260D01*
X13451015Y-11666260D02*
X13441491Y-11656736D01*
X13441491Y-11656736D02*
X13431967Y-11637688D01*
X13431967Y-11637688D02*
X13422443Y-11599593D01*
X13422443Y-11599593D02*
X13422443Y-11551974D01*
X13422443Y-11551974D02*
X13431967Y-11513879D01*
X13431967Y-11513879D02*
X13441491Y-11494831D01*
X13441491Y-11494831D02*
X13451015Y-11485308D01*
X13451015Y-11485308D02*
X13470062Y-11475784D01*
X13660539Y-11475784D02*
X13679586Y-11475784D01*
X13679586Y-11475784D02*
X13698634Y-11485308D01*
X13698634Y-11485308D02*
X13708158Y-11494831D01*
X13708158Y-11494831D02*
X13717682Y-11513879D01*
X13717682Y-11513879D02*
X13727205Y-11551974D01*
X13727205Y-11551974D02*
X13727205Y-11599593D01*
X13727205Y-11599593D02*
X13717682Y-11637688D01*
X13717682Y-11637688D02*
X13708158Y-11656736D01*
X13708158Y-11656736D02*
X13698634Y-11666260D01*
X13698634Y-11666260D02*
X13679586Y-11675784D01*
X13679586Y-11675784D02*
X13660539Y-11675784D01*
X13660539Y-11675784D02*
X13641491Y-11666260D01*
X13641491Y-11666260D02*
X13631967Y-11656736D01*
X13631967Y-11656736D02*
X13622443Y-11637688D01*
X13622443Y-11637688D02*
X13612920Y-11599593D01*
X13612920Y-11599593D02*
X13612920Y-11551974D01*
X13612920Y-11551974D02*
X13622443Y-11513879D01*
X13622443Y-11513879D02*
X13631967Y-11494831D01*
X13631967Y-11494831D02*
X13641491Y-11485308D01*
X13641491Y-11485308D02*
X13660539Y-11475784D01*
X13812920Y-11675784D02*
X13812920Y-11542450D01*
X13812920Y-11561498D02*
X13822443Y-11551974D01*
X13822443Y-11551974D02*
X13841491Y-11542450D01*
X13841491Y-11542450D02*
X13870063Y-11542450D01*
X13870063Y-11542450D02*
X13889110Y-11551974D01*
X13889110Y-11551974D02*
X13898634Y-11571022D01*
X13898634Y-11571022D02*
X13898634Y-11675784D01*
X13898634Y-11571022D02*
X13908158Y-11551974D01*
X13908158Y-11551974D02*
X13927205Y-11542450D01*
X13927205Y-11542450D02*
X13955777Y-11542450D01*
X13955777Y-11542450D02*
X13974824Y-11551974D01*
X13974824Y-11551974D02*
X13984348Y-11571022D01*
X13984348Y-11571022D02*
X13984348Y-11675784D01*
X14079586Y-11675784D02*
X14079586Y-11542450D01*
X14079586Y-11561498D02*
X14089110Y-11551974D01*
X14089110Y-11551974D02*
X14108158Y-11542450D01*
X14108158Y-11542450D02*
X14136729Y-11542450D01*
X14136729Y-11542450D02*
X14155777Y-11551974D01*
X14155777Y-11551974D02*
X14165301Y-11571022D01*
X14165301Y-11571022D02*
X14165301Y-11675784D01*
X14165301Y-11571022D02*
X14174824Y-11551974D01*
X14174824Y-11551974D02*
X14193872Y-11542450D01*
X14193872Y-11542450D02*
X14222443Y-11542450D01*
X14222443Y-11542450D02*
X14241491Y-11551974D01*
X14241491Y-11551974D02*
X14251015Y-11571022D01*
X14251015Y-11571022D02*
X14251015Y-11675784D01*
X14641491Y-11466260D02*
X14470063Y-11723403D01*
X14898634Y-11475784D02*
X14917682Y-11475784D01*
X14917682Y-11475784D02*
X14936729Y-11485308D01*
X14936729Y-11485308D02*
X14946253Y-11494831D01*
X14946253Y-11494831D02*
X14955777Y-11513879D01*
X14955777Y-11513879D02*
X14965301Y-11551974D01*
X14965301Y-11551974D02*
X14965301Y-11599593D01*
X14965301Y-11599593D02*
X14955777Y-11637688D01*
X14955777Y-11637688D02*
X14946253Y-11656736D01*
X14946253Y-11656736D02*
X14936729Y-11666260D01*
X14936729Y-11666260D02*
X14917682Y-11675784D01*
X14917682Y-11675784D02*
X14898634Y-11675784D01*
X14898634Y-11675784D02*
X14879586Y-11666260D01*
X14879586Y-11666260D02*
X14870063Y-11656736D01*
X14870063Y-11656736D02*
X14860539Y-11637688D01*
X14860539Y-11637688D02*
X14851015Y-11599593D01*
X14851015Y-11599593D02*
X14851015Y-11551974D01*
X14851015Y-11551974D02*
X14860539Y-11513879D01*
X14860539Y-11513879D02*
X14870063Y-11494831D01*
X14870063Y-11494831D02*
X14879586Y-11485308D01*
X14879586Y-11485308D02*
X14898634Y-11475784D01*
X15051015Y-11656736D02*
X15060539Y-11666260D01*
X15060539Y-11666260D02*
X15051015Y-11675784D01*
X15051015Y-11675784D02*
X15041491Y-11666260D01*
X15041491Y-11666260D02*
X15051015Y-11656736D01*
X15051015Y-11656736D02*
X15051015Y-11675784D01*
X15251015Y-11675784D02*
X15136729Y-11675784D01*
X15193872Y-11675784D02*
X15193872Y-11475784D01*
X15193872Y-11475784D02*
X15174825Y-11504355D01*
X15174825Y-11504355D02*
X15155777Y-11523403D01*
X15155777Y-11523403D02*
X15136729Y-11532927D01*
X15327206Y-11494831D02*
X15336729Y-11485308D01*
X15336729Y-11485308D02*
X15355777Y-11475784D01*
X15355777Y-11475784D02*
X15403396Y-11475784D01*
X15403396Y-11475784D02*
X15422444Y-11485308D01*
X15422444Y-11485308D02*
X15431967Y-11494831D01*
X15431967Y-11494831D02*
X15441491Y-11513879D01*
X15441491Y-11513879D02*
X15441491Y-11532927D01*
X15441491Y-11532927D02*
X15431967Y-11561498D01*
X15431967Y-11561498D02*
X15317682Y-11675784D01*
X15317682Y-11675784D02*
X15441491Y-11675784D01*
X15612920Y-11475784D02*
X15574825Y-11475784D01*
X15574825Y-11475784D02*
X15555777Y-11485308D01*
X15555777Y-11485308D02*
X15546253Y-11494831D01*
X15546253Y-11494831D02*
X15527206Y-11523403D01*
X15527206Y-11523403D02*
X15517682Y-11561498D01*
X15517682Y-11561498D02*
X15517682Y-11637688D01*
X15517682Y-11637688D02*
X15527206Y-11656736D01*
X15527206Y-11656736D02*
X15536729Y-11666260D01*
X15536729Y-11666260D02*
X15555777Y-11675784D01*
X15555777Y-11675784D02*
X15593872Y-11675784D01*
X15593872Y-11675784D02*
X15612920Y-11666260D01*
X15612920Y-11666260D02*
X15622444Y-11656736D01*
X15622444Y-11656736D02*
X15631967Y-11637688D01*
X15631967Y-11637688D02*
X15631967Y-11590069D01*
X15631967Y-11590069D02*
X15622444Y-11571022D01*
X15622444Y-11571022D02*
X15612920Y-11561498D01*
X15612920Y-11561498D02*
X15593872Y-11551974D01*
X15593872Y-11551974D02*
X15555777Y-11551974D01*
X15555777Y-11551974D02*
X15536729Y-11561498D01*
X15536729Y-11561498D02*
X15527206Y-11571022D01*
X15527206Y-11571022D02*
X15517682Y-11590069D01*
X15755777Y-11475784D02*
X15774825Y-11475784D01*
X15774825Y-11475784D02*
X15793872Y-11485308D01*
X15793872Y-11485308D02*
X15803396Y-11494831D01*
X15803396Y-11494831D02*
X15812920Y-11513879D01*
X15812920Y-11513879D02*
X15822444Y-11551974D01*
X15822444Y-11551974D02*
X15822444Y-11599593D01*
X15822444Y-11599593D02*
X15812920Y-11637688D01*
X15812920Y-11637688D02*
X15803396Y-11656736D01*
X15803396Y-11656736D02*
X15793872Y-11666260D01*
X15793872Y-11666260D02*
X15774825Y-11675784D01*
X15774825Y-11675784D02*
X15755777Y-11675784D01*
X15755777Y-11675784D02*
X15736729Y-11666260D01*
X15736729Y-11666260D02*
X15727206Y-11656736D01*
X15727206Y-11656736D02*
X15717682Y-11637688D01*
X15717682Y-11637688D02*
X15708158Y-11599593D01*
X15708158Y-11599593D02*
X15708158Y-11551974D01*
X15708158Y-11551974D02*
X15717682Y-11513879D01*
X15717682Y-11513879D02*
X15727206Y-11494831D01*
X15727206Y-11494831D02*
X15736729Y-11485308D01*
X15736729Y-11485308D02*
X15755777Y-11475784D01*
X15898634Y-11475784D02*
X15898634Y-11513879D01*
X15974825Y-11475784D02*
X15974825Y-11513879D01*
X16270063Y-11751974D02*
X16260539Y-11742450D01*
X16260539Y-11742450D02*
X16241491Y-11713879D01*
X16241491Y-11713879D02*
X16231968Y-11694831D01*
X16231968Y-11694831D02*
X16222444Y-11666260D01*
X16222444Y-11666260D02*
X16212920Y-11618641D01*
X16212920Y-11618641D02*
X16212920Y-11580546D01*
X16212920Y-11580546D02*
X16222444Y-11532927D01*
X16222444Y-11532927D02*
X16231968Y-11504355D01*
X16231968Y-11504355D02*
X16241491Y-11485308D01*
X16241491Y-11485308D02*
X16260539Y-11456736D01*
X16260539Y-11456736D02*
X16270063Y-11447212D01*
X16327206Y-11475784D02*
X16451015Y-11475784D01*
X16451015Y-11475784D02*
X16384348Y-11551974D01*
X16384348Y-11551974D02*
X16412920Y-11551974D01*
X16412920Y-11551974D02*
X16431968Y-11561498D01*
X16431968Y-11561498D02*
X16441491Y-11571022D01*
X16441491Y-11571022D02*
X16451015Y-11590069D01*
X16451015Y-11590069D02*
X16451015Y-11637688D01*
X16451015Y-11637688D02*
X16441491Y-11656736D01*
X16441491Y-11656736D02*
X16431968Y-11666260D01*
X16431968Y-11666260D02*
X16412920Y-11675784D01*
X16412920Y-11675784D02*
X16355777Y-11675784D01*
X16355777Y-11675784D02*
X16336729Y-11666260D01*
X16336729Y-11666260D02*
X16327206Y-11656736D01*
X16689110Y-11675784D02*
X16689110Y-11475784D01*
X16774825Y-11675784D02*
X16774825Y-11571022D01*
X16774825Y-11571022D02*
X16765301Y-11551974D01*
X16765301Y-11551974D02*
X16746253Y-11542450D01*
X16746253Y-11542450D02*
X16717682Y-11542450D01*
X16717682Y-11542450D02*
X16698634Y-11551974D01*
X16698634Y-11551974D02*
X16689110Y-11561498D01*
X16898634Y-11675784D02*
X16879587Y-11666260D01*
X16879587Y-11666260D02*
X16870063Y-11656736D01*
X16870063Y-11656736D02*
X16860539Y-11637688D01*
X16860539Y-11637688D02*
X16860539Y-11580546D01*
X16860539Y-11580546D02*
X16870063Y-11561498D01*
X16870063Y-11561498D02*
X16879587Y-11551974D01*
X16879587Y-11551974D02*
X16898634Y-11542450D01*
X16898634Y-11542450D02*
X16927206Y-11542450D01*
X16927206Y-11542450D02*
X16946253Y-11551974D01*
X16946253Y-11551974D02*
X16955777Y-11561498D01*
X16955777Y-11561498D02*
X16965301Y-11580546D01*
X16965301Y-11580546D02*
X16965301Y-11637688D01*
X16965301Y-11637688D02*
X16955777Y-11656736D01*
X16955777Y-11656736D02*
X16946253Y-11666260D01*
X16946253Y-11666260D02*
X16927206Y-11675784D01*
X16927206Y-11675784D02*
X16898634Y-11675784D01*
X17079587Y-11675784D02*
X17060539Y-11666260D01*
X17060539Y-11666260D02*
X17051015Y-11647212D01*
X17051015Y-11647212D02*
X17051015Y-11475784D01*
X17231968Y-11666260D02*
X17212920Y-11675784D01*
X17212920Y-11675784D02*
X17174825Y-11675784D01*
X17174825Y-11675784D02*
X17155777Y-11666260D01*
X17155777Y-11666260D02*
X17146253Y-11647212D01*
X17146253Y-11647212D02*
X17146253Y-11571022D01*
X17146253Y-11571022D02*
X17155777Y-11551974D01*
X17155777Y-11551974D02*
X17174825Y-11542450D01*
X17174825Y-11542450D02*
X17212920Y-11542450D01*
X17212920Y-11542450D02*
X17231968Y-11551974D01*
X17231968Y-11551974D02*
X17241492Y-11571022D01*
X17241492Y-11571022D02*
X17241492Y-11590069D01*
X17241492Y-11590069D02*
X17146253Y-11609117D01*
X17317682Y-11666260D02*
X17336730Y-11675784D01*
X17336730Y-11675784D02*
X17374825Y-11675784D01*
X17374825Y-11675784D02*
X17393873Y-11666260D01*
X17393873Y-11666260D02*
X17403396Y-11647212D01*
X17403396Y-11647212D02*
X17403396Y-11637688D01*
X17403396Y-11637688D02*
X17393873Y-11618641D01*
X17393873Y-11618641D02*
X17374825Y-11609117D01*
X17374825Y-11609117D02*
X17346253Y-11609117D01*
X17346253Y-11609117D02*
X17327206Y-11599593D01*
X17327206Y-11599593D02*
X17317682Y-11580546D01*
X17317682Y-11580546D02*
X17317682Y-11571022D01*
X17317682Y-11571022D02*
X17327206Y-11551974D01*
X17327206Y-11551974D02*
X17346253Y-11542450D01*
X17346253Y-11542450D02*
X17374825Y-11542450D01*
X17374825Y-11542450D02*
X17393873Y-11551974D01*
X17470063Y-11751974D02*
X17479587Y-11742450D01*
X17479587Y-11742450D02*
X17498634Y-11713879D01*
X17498634Y-11713879D02*
X17508158Y-11694831D01*
X17508158Y-11694831D02*
X17517682Y-11666260D01*
X17517682Y-11666260D02*
X17527206Y-11618641D01*
X17527206Y-11618641D02*
X17527206Y-11580546D01*
X17527206Y-11580546D02*
X17517682Y-11532927D01*
X17517682Y-11532927D02*
X17508158Y-11504355D01*
X17508158Y-11504355D02*
X17498634Y-11485308D01*
X17498634Y-11485308D02*
X17479587Y-11456736D01*
X17479587Y-11456736D02*
X17470063Y-11447212D01*
M02*
