%TF.GenerationSoftware,KiCad,Pcbnew,7.0.7*%
%TF.CreationDate,2024-03-21T17:46:43+00:00*%
%TF.ProjectId,BT401_Digimodes,42543430-315f-4446-9967-696d6f646573,rev?*%
%TF.SameCoordinates,Original*%
%TF.FileFunction,Soldermask,Top*%
%TF.FilePolarity,Negative*%
%FSLAX46Y46*%
G04 Gerber Fmt 4.6, Leading zero omitted, Abs format (unit mm)*
G04 Created by KiCad (PCBNEW 7.0.7) date 2024-03-21 17:46:43*
%MOMM*%
%LPD*%
G01*
G04 APERTURE LIST*
G04 Aperture macros list*
%AMRoundRect*
0 Rectangle with rounded corners*
0 $1 Rounding radius*
0 $2 $3 $4 $5 $6 $7 $8 $9 X,Y pos of 4 corners*
0 Add a 4 corners polygon primitive as box body*
4,1,4,$2,$3,$4,$5,$6,$7,$8,$9,$2,$3,0*
0 Add four circle primitives for the rounded corners*
1,1,$1+$1,$2,$3*
1,1,$1+$1,$4,$5*
1,1,$1+$1,$6,$7*
1,1,$1+$1,$8,$9*
0 Add four rect primitives between the rounded corners*
20,1,$1+$1,$2,$3,$4,$5,0*
20,1,$1+$1,$4,$5,$6,$7,0*
20,1,$1+$1,$6,$7,$8,$9,0*
20,1,$1+$1,$8,$9,$2,$3,0*%
G04 Aperture macros list end*
%ADD10C,5.500000*%
%ADD11RoundRect,0.250000X0.250000X0.475000X-0.250000X0.475000X-0.250000X-0.475000X0.250000X-0.475000X0*%
%ADD12R,1.600000X1.600000*%
%ADD13C,1.600000*%
%ADD14R,1.700000X1.700000*%
%ADD15O,1.700000X1.700000*%
%ADD16RoundRect,0.250000X0.475000X-0.250000X0.475000X0.250000X-0.475000X0.250000X-0.475000X-0.250000X0*%
%ADD17C,1.440000*%
%ADD18R,1.500000X2.000000*%
%ADD19R,3.800000X2.000000*%
%ADD20O,1.600000X1.600000*%
%ADD21R,3.000000X0.800000*%
G04 APERTURE END LIST*
D10*
%TO.C,*%
X130657600Y-97840800D03*
%TD*%
D11*
%TO.C,C2*%
X143952000Y-82042000D03*
X142052000Y-82042000D03*
%TD*%
D12*
%TO.C,C5*%
X144272000Y-63231000D03*
D13*
X144272000Y-60731000D03*
%TD*%
D10*
%TO.C,REF\u002A\u002A*%
X167386000Y-97917000D03*
%TD*%
D14*
%TO.C,J1*%
X136271000Y-98044000D03*
D15*
X138811000Y-98044000D03*
X141351000Y-98044000D03*
X143891000Y-98044000D03*
X146431000Y-98044000D03*
X148971000Y-98044000D03*
%TD*%
D11*
%TO.C,C3*%
X144018000Y-84455000D03*
X142118000Y-84455000D03*
%TD*%
D16*
%TO.C,C1*%
X131064000Y-80833000D03*
X131064000Y-78933000D03*
%TD*%
D17*
%TO.C,RV1*%
X139065000Y-75057000D03*
X136525000Y-75057000D03*
X133985000Y-75057000D03*
%TD*%
D18*
%TO.C,U1*%
X150481000Y-60935000D03*
X152781000Y-60935000D03*
D19*
X152781000Y-54635000D03*
D18*
X155081000Y-60935000D03*
%TD*%
D14*
%TO.C,J2*%
X161544000Y-54737000D03*
D15*
X164084000Y-54737000D03*
%TD*%
D17*
%TO.C,RV2*%
X136525000Y-82042000D03*
X136525000Y-84582000D03*
X136525000Y-87122000D03*
%TD*%
D13*
%TO.C,L1*%
X156591000Y-94107000D03*
D20*
X156591000Y-91567000D03*
%TD*%
D12*
%TO.C,C4*%
X159933000Y-60985000D03*
D13*
X162433000Y-60985000D03*
%TD*%
%TO.C,L2*%
X162052000Y-94107000D03*
D20*
X162052000Y-91567000D03*
%TD*%
D21*
%TO.C,BT1*%
X151892000Y-72898000D03*
X151892000Y-74168000D03*
X151892000Y-75438000D03*
X151892000Y-76708000D03*
X151892000Y-77978000D03*
X151892000Y-79248000D03*
X151892000Y-80518000D03*
X151892000Y-81788000D03*
X151892000Y-83058000D03*
X151892000Y-84328000D03*
X151892000Y-85598000D03*
X151892000Y-86868000D03*
X151892000Y-88138000D03*
X167392000Y-88138000D03*
X167392000Y-86868000D03*
X167392000Y-85598000D03*
X167392000Y-84328000D03*
X167392000Y-83058000D03*
X167392000Y-81788000D03*
X167392000Y-80518000D03*
X167392000Y-79248000D03*
X167392000Y-77978000D03*
X167392000Y-76708000D03*
X167392000Y-75438000D03*
X167392000Y-74168000D03*
X167392000Y-72898000D03*
X167386000Y-71574000D03*
X167386000Y-67056000D03*
D13*
X156210000Y-88138000D03*
X158750000Y-88138000D03*
X161290000Y-88138000D03*
X163830000Y-88138000D03*
%TD*%
D10*
%TO.C,REF\u002A\u002A*%
X130683000Y-55626000D03*
%TD*%
M02*
