%TF.GenerationSoftware,KiCad,Pcbnew,7.0.7*%
%TF.CreationDate,2024-03-21T17:46:43+00:00*%
%TF.ProjectId,BT401_Digimodes,42543430-315f-4446-9967-696d6f646573,rev?*%
%TF.SameCoordinates,Original*%
%TF.FileFunction,Legend,Top*%
%TF.FilePolarity,Positive*%
%FSLAX46Y46*%
G04 Gerber Fmt 4.6, Leading zero omitted, Abs format (unit mm)*
G04 Created by KiCad (PCBNEW 7.0.7) date 2024-03-21 17:46:43*
%MOMM*%
%LPD*%
G01*
G04 APERTURE LIST*
%ADD10C,0.200000*%
%ADD11C,0.150000*%
%ADD12C,0.120000*%
G04 APERTURE END LIST*
D10*
X132374047Y-64392504D02*
X132850237Y-64392504D01*
X132278809Y-64678219D02*
X132612142Y-63678219D01*
X132612142Y-63678219D02*
X132945475Y-64678219D01*
X133421666Y-64678219D02*
X133326428Y-64630600D01*
X133326428Y-64630600D02*
X133278809Y-64535361D01*
X133278809Y-64535361D02*
X133278809Y-63678219D01*
X134231190Y-64630600D02*
X134135952Y-64678219D01*
X134135952Y-64678219D02*
X133945476Y-64678219D01*
X133945476Y-64678219D02*
X133850238Y-64630600D01*
X133850238Y-64630600D02*
X133802619Y-64582980D01*
X133802619Y-64582980D02*
X133755000Y-64487742D01*
X133755000Y-64487742D02*
X133755000Y-64202028D01*
X133755000Y-64202028D02*
X133802619Y-64106790D01*
X133802619Y-64106790D02*
X133850238Y-64059171D01*
X133850238Y-64059171D02*
X133945476Y-64011552D01*
X133945476Y-64011552D02*
X134135952Y-64011552D01*
X134135952Y-64011552D02*
X134231190Y-64059171D01*
X135088333Y-64678219D02*
X135088333Y-64154409D01*
X135088333Y-64154409D02*
X135040714Y-64059171D01*
X135040714Y-64059171D02*
X134945476Y-64011552D01*
X134945476Y-64011552D02*
X134755000Y-64011552D01*
X134755000Y-64011552D02*
X134659762Y-64059171D01*
X135088333Y-64630600D02*
X134993095Y-64678219D01*
X134993095Y-64678219D02*
X134755000Y-64678219D01*
X134755000Y-64678219D02*
X134659762Y-64630600D01*
X134659762Y-64630600D02*
X134612143Y-64535361D01*
X134612143Y-64535361D02*
X134612143Y-64440123D01*
X134612143Y-64440123D02*
X134659762Y-64344885D01*
X134659762Y-64344885D02*
X134755000Y-64297266D01*
X134755000Y-64297266D02*
X134993095Y-64297266D01*
X134993095Y-64297266D02*
X135088333Y-64249647D01*
X135564524Y-64678219D02*
X135564524Y-64011552D01*
X135564524Y-63678219D02*
X135516905Y-63725838D01*
X135516905Y-63725838D02*
X135564524Y-63773457D01*
X135564524Y-63773457D02*
X135612143Y-63725838D01*
X135612143Y-63725838D02*
X135564524Y-63678219D01*
X135564524Y-63678219D02*
X135564524Y-63773457D01*
X136469285Y-64678219D02*
X136469285Y-63678219D01*
X136469285Y-64630600D02*
X136374047Y-64678219D01*
X136374047Y-64678219D02*
X136183571Y-64678219D01*
X136183571Y-64678219D02*
X136088333Y-64630600D01*
X136088333Y-64630600D02*
X136040714Y-64582980D01*
X136040714Y-64582980D02*
X135993095Y-64487742D01*
X135993095Y-64487742D02*
X135993095Y-64202028D01*
X135993095Y-64202028D02*
X136040714Y-64106790D01*
X136040714Y-64106790D02*
X136088333Y-64059171D01*
X136088333Y-64059171D02*
X136183571Y-64011552D01*
X136183571Y-64011552D02*
X136374047Y-64011552D01*
X136374047Y-64011552D02*
X136469285Y-64059171D01*
X137326428Y-64630600D02*
X137231190Y-64678219D01*
X137231190Y-64678219D02*
X137040714Y-64678219D01*
X137040714Y-64678219D02*
X136945476Y-64630600D01*
X136945476Y-64630600D02*
X136897857Y-64535361D01*
X136897857Y-64535361D02*
X136897857Y-64154409D01*
X136897857Y-64154409D02*
X136945476Y-64059171D01*
X136945476Y-64059171D02*
X137040714Y-64011552D01*
X137040714Y-64011552D02*
X137231190Y-64011552D01*
X137231190Y-64011552D02*
X137326428Y-64059171D01*
X137326428Y-64059171D02*
X137374047Y-64154409D01*
X137374047Y-64154409D02*
X137374047Y-64249647D01*
X137374047Y-64249647D02*
X136897857Y-64344885D01*
X132207381Y-65288219D02*
X132302619Y-65288219D01*
X132302619Y-65288219D02*
X132397857Y-65335838D01*
X132397857Y-65335838D02*
X132445476Y-65383457D01*
X132445476Y-65383457D02*
X132493095Y-65478695D01*
X132493095Y-65478695D02*
X132540714Y-65669171D01*
X132540714Y-65669171D02*
X132540714Y-65907266D01*
X132540714Y-65907266D02*
X132493095Y-66097742D01*
X132493095Y-66097742D02*
X132445476Y-66192980D01*
X132445476Y-66192980D02*
X132397857Y-66240600D01*
X132397857Y-66240600D02*
X132302619Y-66288219D01*
X132302619Y-66288219D02*
X132207381Y-66288219D01*
X132207381Y-66288219D02*
X132112143Y-66240600D01*
X132112143Y-66240600D02*
X132064524Y-66192980D01*
X132064524Y-66192980D02*
X132016905Y-66097742D01*
X132016905Y-66097742D02*
X131969286Y-65907266D01*
X131969286Y-65907266D02*
X131969286Y-65669171D01*
X131969286Y-65669171D02*
X132016905Y-65478695D01*
X132016905Y-65478695D02*
X132064524Y-65383457D01*
X132064524Y-65383457D02*
X132112143Y-65335838D01*
X132112143Y-65335838D02*
X132207381Y-65288219D01*
X132874048Y-65288219D02*
X133493095Y-65288219D01*
X133493095Y-65288219D02*
X133159762Y-65669171D01*
X133159762Y-65669171D02*
X133302619Y-65669171D01*
X133302619Y-65669171D02*
X133397857Y-65716790D01*
X133397857Y-65716790D02*
X133445476Y-65764409D01*
X133445476Y-65764409D02*
X133493095Y-65859647D01*
X133493095Y-65859647D02*
X133493095Y-66097742D01*
X133493095Y-66097742D02*
X133445476Y-66192980D01*
X133445476Y-66192980D02*
X133397857Y-66240600D01*
X133397857Y-66240600D02*
X133302619Y-66288219D01*
X133302619Y-66288219D02*
X133016905Y-66288219D01*
X133016905Y-66288219D02*
X132921667Y-66240600D01*
X132921667Y-66240600D02*
X132874048Y-66192980D01*
X133921667Y-65907266D02*
X134683572Y-65907266D01*
X135112143Y-65383457D02*
X135159762Y-65335838D01*
X135159762Y-65335838D02*
X135255000Y-65288219D01*
X135255000Y-65288219D02*
X135493095Y-65288219D01*
X135493095Y-65288219D02*
X135588333Y-65335838D01*
X135588333Y-65335838D02*
X135635952Y-65383457D01*
X135635952Y-65383457D02*
X135683571Y-65478695D01*
X135683571Y-65478695D02*
X135683571Y-65573933D01*
X135683571Y-65573933D02*
X135635952Y-65716790D01*
X135635952Y-65716790D02*
X135064524Y-66288219D01*
X135064524Y-66288219D02*
X135683571Y-66288219D01*
X136302619Y-65288219D02*
X136397857Y-65288219D01*
X136397857Y-65288219D02*
X136493095Y-65335838D01*
X136493095Y-65335838D02*
X136540714Y-65383457D01*
X136540714Y-65383457D02*
X136588333Y-65478695D01*
X136588333Y-65478695D02*
X136635952Y-65669171D01*
X136635952Y-65669171D02*
X136635952Y-65907266D01*
X136635952Y-65907266D02*
X136588333Y-66097742D01*
X136588333Y-66097742D02*
X136540714Y-66192980D01*
X136540714Y-66192980D02*
X136493095Y-66240600D01*
X136493095Y-66240600D02*
X136397857Y-66288219D01*
X136397857Y-66288219D02*
X136302619Y-66288219D01*
X136302619Y-66288219D02*
X136207381Y-66240600D01*
X136207381Y-66240600D02*
X136159762Y-66192980D01*
X136159762Y-66192980D02*
X136112143Y-66097742D01*
X136112143Y-66097742D02*
X136064524Y-65907266D01*
X136064524Y-65907266D02*
X136064524Y-65669171D01*
X136064524Y-65669171D02*
X136112143Y-65478695D01*
X136112143Y-65478695D02*
X136159762Y-65383457D01*
X136159762Y-65383457D02*
X136207381Y-65335838D01*
X136207381Y-65335838D02*
X136302619Y-65288219D01*
X137016905Y-65383457D02*
X137064524Y-65335838D01*
X137064524Y-65335838D02*
X137159762Y-65288219D01*
X137159762Y-65288219D02*
X137397857Y-65288219D01*
X137397857Y-65288219D02*
X137493095Y-65335838D01*
X137493095Y-65335838D02*
X137540714Y-65383457D01*
X137540714Y-65383457D02*
X137588333Y-65478695D01*
X137588333Y-65478695D02*
X137588333Y-65573933D01*
X137588333Y-65573933D02*
X137540714Y-65716790D01*
X137540714Y-65716790D02*
X136969286Y-66288219D01*
X136969286Y-66288219D02*
X137588333Y-66288219D01*
X138445476Y-65621552D02*
X138445476Y-66288219D01*
X138207381Y-65240600D02*
X137969286Y-65954885D01*
X137969286Y-65954885D02*
X138588333Y-65954885D01*
D11*
X145608922Y-91661819D02*
X146180350Y-91661819D01*
X145894636Y-92661819D02*
X145894636Y-91661819D01*
X147085112Y-92661819D02*
X146751779Y-92185628D01*
X146513684Y-92661819D02*
X146513684Y-91661819D01*
X146513684Y-91661819D02*
X146894636Y-91661819D01*
X146894636Y-91661819D02*
X146989874Y-91709438D01*
X146989874Y-91709438D02*
X147037493Y-91757057D01*
X147037493Y-91757057D02*
X147085112Y-91852295D01*
X147085112Y-91852295D02*
X147085112Y-91995152D01*
X147085112Y-91995152D02*
X147037493Y-92090390D01*
X147037493Y-92090390D02*
X146989874Y-92138009D01*
X146989874Y-92138009D02*
X146894636Y-92185628D01*
X146894636Y-92185628D02*
X146513684Y-92185628D01*
X147418446Y-91661819D02*
X148085112Y-92661819D01*
X148085112Y-91661819D02*
X147418446Y-92661819D01*
X146323207Y-94176580D02*
X146275588Y-94224200D01*
X146275588Y-94224200D02*
X146132731Y-94271819D01*
X146132731Y-94271819D02*
X146037493Y-94271819D01*
X146037493Y-94271819D02*
X145894636Y-94224200D01*
X145894636Y-94224200D02*
X145799398Y-94128961D01*
X145799398Y-94128961D02*
X145751779Y-94033723D01*
X145751779Y-94033723D02*
X145704160Y-93843247D01*
X145704160Y-93843247D02*
X145704160Y-93700390D01*
X145704160Y-93700390D02*
X145751779Y-93509914D01*
X145751779Y-93509914D02*
X145799398Y-93414676D01*
X145799398Y-93414676D02*
X145894636Y-93319438D01*
X145894636Y-93319438D02*
X146037493Y-93271819D01*
X146037493Y-93271819D02*
X146132731Y-93271819D01*
X146132731Y-93271819D02*
X146275588Y-93319438D01*
X146275588Y-93319438D02*
X146323207Y-93367057D01*
X147180350Y-94271819D02*
X147180350Y-93748009D01*
X147180350Y-93748009D02*
X147132731Y-93652771D01*
X147132731Y-93652771D02*
X147037493Y-93605152D01*
X147037493Y-93605152D02*
X146847017Y-93605152D01*
X146847017Y-93605152D02*
X146751779Y-93652771D01*
X147180350Y-94224200D02*
X147085112Y-94271819D01*
X147085112Y-94271819D02*
X146847017Y-94271819D01*
X146847017Y-94271819D02*
X146751779Y-94224200D01*
X146751779Y-94224200D02*
X146704160Y-94128961D01*
X146704160Y-94128961D02*
X146704160Y-94033723D01*
X146704160Y-94033723D02*
X146751779Y-93938485D01*
X146751779Y-93938485D02*
X146847017Y-93890866D01*
X146847017Y-93890866D02*
X147085112Y-93890866D01*
X147085112Y-93890866D02*
X147180350Y-93843247D01*
X147513684Y-93605152D02*
X147894636Y-93605152D01*
X147656541Y-93271819D02*
X147656541Y-94128961D01*
X147656541Y-94128961D02*
X147704160Y-94224200D01*
X147704160Y-94224200D02*
X147799398Y-94271819D01*
X147799398Y-94271819D02*
X147894636Y-94271819D01*
X146323207Y-95881819D02*
X145989874Y-95405628D01*
X145751779Y-95881819D02*
X145751779Y-94881819D01*
X145751779Y-94881819D02*
X146132731Y-94881819D01*
X146132731Y-94881819D02*
X146227969Y-94929438D01*
X146227969Y-94929438D02*
X146275588Y-94977057D01*
X146275588Y-94977057D02*
X146323207Y-95072295D01*
X146323207Y-95072295D02*
X146323207Y-95215152D01*
X146323207Y-95215152D02*
X146275588Y-95310390D01*
X146275588Y-95310390D02*
X146227969Y-95358009D01*
X146227969Y-95358009D02*
X146132731Y-95405628D01*
X146132731Y-95405628D02*
X145751779Y-95405628D01*
X146656541Y-94881819D02*
X147323207Y-95881819D01*
X147323207Y-94881819D02*
X146656541Y-95881819D01*
D10*
X135049237Y-54930980D02*
X135001618Y-54978600D01*
X135001618Y-54978600D02*
X134858761Y-55026219D01*
X134858761Y-55026219D02*
X134763523Y-55026219D01*
X134763523Y-55026219D02*
X134620666Y-54978600D01*
X134620666Y-54978600D02*
X134525428Y-54883361D01*
X134525428Y-54883361D02*
X134477809Y-54788123D01*
X134477809Y-54788123D02*
X134430190Y-54597647D01*
X134430190Y-54597647D02*
X134430190Y-54454790D01*
X134430190Y-54454790D02*
X134477809Y-54264314D01*
X134477809Y-54264314D02*
X134525428Y-54169076D01*
X134525428Y-54169076D02*
X134620666Y-54073838D01*
X134620666Y-54073838D02*
X134763523Y-54026219D01*
X134763523Y-54026219D02*
X134858761Y-54026219D01*
X134858761Y-54026219D02*
X135001618Y-54073838D01*
X135001618Y-54073838D02*
X135049237Y-54121457D01*
X135334952Y-54026219D02*
X135906380Y-54026219D01*
X135620666Y-55026219D02*
X135620666Y-54026219D01*
X136144476Y-54026219D02*
X136811142Y-54026219D01*
X136811142Y-54026219D02*
X136382571Y-55026219D01*
X137144476Y-54740504D02*
X137620666Y-54740504D01*
X137049238Y-55026219D02*
X137382571Y-54026219D01*
X137382571Y-54026219D02*
X137715904Y-55026219D01*
X138382571Y-54502409D02*
X138525428Y-54550028D01*
X138525428Y-54550028D02*
X138573047Y-54597647D01*
X138573047Y-54597647D02*
X138620666Y-54692885D01*
X138620666Y-54692885D02*
X138620666Y-54835742D01*
X138620666Y-54835742D02*
X138573047Y-54930980D01*
X138573047Y-54930980D02*
X138525428Y-54978600D01*
X138525428Y-54978600D02*
X138430190Y-55026219D01*
X138430190Y-55026219D02*
X138049238Y-55026219D01*
X138049238Y-55026219D02*
X138049238Y-54026219D01*
X138049238Y-54026219D02*
X138382571Y-54026219D01*
X138382571Y-54026219D02*
X138477809Y-54073838D01*
X138477809Y-54073838D02*
X138525428Y-54121457D01*
X138525428Y-54121457D02*
X138573047Y-54216695D01*
X138573047Y-54216695D02*
X138573047Y-54311933D01*
X138573047Y-54311933D02*
X138525428Y-54407171D01*
X138525428Y-54407171D02*
X138477809Y-54454790D01*
X138477809Y-54454790D02*
X138382571Y-54502409D01*
X138382571Y-54502409D02*
X138049238Y-54502409D01*
X139001619Y-54740504D02*
X139477809Y-54740504D01*
X138906381Y-55026219D02*
X139239714Y-54026219D01*
X139239714Y-54026219D02*
X139573047Y-55026219D01*
X140620666Y-53978600D02*
X139763524Y-55264314D01*
X140954000Y-55026219D02*
X140954000Y-54026219D01*
X140954000Y-54026219D02*
X141192095Y-54026219D01*
X141192095Y-54026219D02*
X141334952Y-54073838D01*
X141334952Y-54073838D02*
X141430190Y-54169076D01*
X141430190Y-54169076D02*
X141477809Y-54264314D01*
X141477809Y-54264314D02*
X141525428Y-54454790D01*
X141525428Y-54454790D02*
X141525428Y-54597647D01*
X141525428Y-54597647D02*
X141477809Y-54788123D01*
X141477809Y-54788123D02*
X141430190Y-54883361D01*
X141430190Y-54883361D02*
X141334952Y-54978600D01*
X141334952Y-54978600D02*
X141192095Y-55026219D01*
X141192095Y-55026219D02*
X140954000Y-55026219D01*
X141954000Y-55026219D02*
X141954000Y-54026219D01*
X141954000Y-54026219D02*
X142287333Y-54740504D01*
X142287333Y-54740504D02*
X142620666Y-54026219D01*
X142620666Y-54026219D02*
X142620666Y-55026219D01*
X143001619Y-54026219D02*
X143620666Y-54026219D01*
X143620666Y-54026219D02*
X143287333Y-54407171D01*
X143287333Y-54407171D02*
X143430190Y-54407171D01*
X143430190Y-54407171D02*
X143525428Y-54454790D01*
X143525428Y-54454790D02*
X143573047Y-54502409D01*
X143573047Y-54502409D02*
X143620666Y-54597647D01*
X143620666Y-54597647D02*
X143620666Y-54835742D01*
X143620666Y-54835742D02*
X143573047Y-54930980D01*
X143573047Y-54930980D02*
X143525428Y-54978600D01*
X143525428Y-54978600D02*
X143430190Y-55026219D01*
X143430190Y-55026219D02*
X143144476Y-55026219D01*
X143144476Y-55026219D02*
X143049238Y-54978600D01*
X143049238Y-54978600D02*
X143001619Y-54930980D01*
X144382571Y-54502409D02*
X144049238Y-54502409D01*
X144049238Y-55026219D02*
X144049238Y-54026219D01*
X144049238Y-54026219D02*
X144525428Y-54026219D01*
X145430190Y-54073838D02*
X145334952Y-54026219D01*
X145334952Y-54026219D02*
X145192095Y-54026219D01*
X145192095Y-54026219D02*
X145049238Y-54073838D01*
X145049238Y-54073838D02*
X144954000Y-54169076D01*
X144954000Y-54169076D02*
X144906381Y-54264314D01*
X144906381Y-54264314D02*
X144858762Y-54454790D01*
X144858762Y-54454790D02*
X144858762Y-54597647D01*
X144858762Y-54597647D02*
X144906381Y-54788123D01*
X144906381Y-54788123D02*
X144954000Y-54883361D01*
X144954000Y-54883361D02*
X145049238Y-54978600D01*
X145049238Y-54978600D02*
X145192095Y-55026219D01*
X145192095Y-55026219D02*
X145287333Y-55026219D01*
X145287333Y-55026219D02*
X145430190Y-54978600D01*
X145430190Y-54978600D02*
X145477809Y-54930980D01*
X145477809Y-54930980D02*
X145477809Y-54597647D01*
X145477809Y-54597647D02*
X145287333Y-54597647D01*
X138215904Y-56112409D02*
X138358761Y-56160028D01*
X138358761Y-56160028D02*
X138406380Y-56207647D01*
X138406380Y-56207647D02*
X138453999Y-56302885D01*
X138453999Y-56302885D02*
X138453999Y-56445742D01*
X138453999Y-56445742D02*
X138406380Y-56540980D01*
X138406380Y-56540980D02*
X138358761Y-56588600D01*
X138358761Y-56588600D02*
X138263523Y-56636219D01*
X138263523Y-56636219D02*
X137882571Y-56636219D01*
X137882571Y-56636219D02*
X137882571Y-55636219D01*
X137882571Y-55636219D02*
X138215904Y-55636219D01*
X138215904Y-55636219D02*
X138311142Y-55683838D01*
X138311142Y-55683838D02*
X138358761Y-55731457D01*
X138358761Y-55731457D02*
X138406380Y-55826695D01*
X138406380Y-55826695D02*
X138406380Y-55921933D01*
X138406380Y-55921933D02*
X138358761Y-56017171D01*
X138358761Y-56017171D02*
X138311142Y-56064790D01*
X138311142Y-56064790D02*
X138215904Y-56112409D01*
X138215904Y-56112409D02*
X137882571Y-56112409D01*
X138739714Y-55636219D02*
X139311142Y-55636219D01*
X139025428Y-56636219D02*
X139025428Y-55636219D01*
X140073047Y-55969552D02*
X140073047Y-56636219D01*
X139834952Y-55588600D02*
X139596857Y-56302885D01*
X139596857Y-56302885D02*
X140215904Y-56302885D01*
X140787333Y-55636219D02*
X140882571Y-55636219D01*
X140882571Y-55636219D02*
X140977809Y-55683838D01*
X140977809Y-55683838D02*
X141025428Y-55731457D01*
X141025428Y-55731457D02*
X141073047Y-55826695D01*
X141073047Y-55826695D02*
X141120666Y-56017171D01*
X141120666Y-56017171D02*
X141120666Y-56255266D01*
X141120666Y-56255266D02*
X141073047Y-56445742D01*
X141073047Y-56445742D02*
X141025428Y-56540980D01*
X141025428Y-56540980D02*
X140977809Y-56588600D01*
X140977809Y-56588600D02*
X140882571Y-56636219D01*
X140882571Y-56636219D02*
X140787333Y-56636219D01*
X140787333Y-56636219D02*
X140692095Y-56588600D01*
X140692095Y-56588600D02*
X140644476Y-56540980D01*
X140644476Y-56540980D02*
X140596857Y-56445742D01*
X140596857Y-56445742D02*
X140549238Y-56255266D01*
X140549238Y-56255266D02*
X140549238Y-56017171D01*
X140549238Y-56017171D02*
X140596857Y-55826695D01*
X140596857Y-55826695D02*
X140644476Y-55731457D01*
X140644476Y-55731457D02*
X140692095Y-55683838D01*
X140692095Y-55683838D02*
X140787333Y-55636219D01*
X142073047Y-56636219D02*
X141501619Y-56636219D01*
X141787333Y-56636219D02*
X141787333Y-55636219D01*
X141787333Y-55636219D02*
X141692095Y-55779076D01*
X141692095Y-55779076D02*
X141596857Y-55874314D01*
X141596857Y-55874314D02*
X141501619Y-55921933D01*
D11*
X133391522Y-91509419D02*
X133962950Y-91509419D01*
X133677236Y-92509419D02*
X133677236Y-91509419D01*
X134867712Y-92509419D02*
X134534379Y-92033228D01*
X134296284Y-92509419D02*
X134296284Y-91509419D01*
X134296284Y-91509419D02*
X134677236Y-91509419D01*
X134677236Y-91509419D02*
X134772474Y-91557038D01*
X134772474Y-91557038D02*
X134820093Y-91604657D01*
X134820093Y-91604657D02*
X134867712Y-91699895D01*
X134867712Y-91699895D02*
X134867712Y-91842752D01*
X134867712Y-91842752D02*
X134820093Y-91937990D01*
X134820093Y-91937990D02*
X134772474Y-91985609D01*
X134772474Y-91985609D02*
X134677236Y-92033228D01*
X134677236Y-92033228D02*
X134296284Y-92033228D01*
X135201046Y-91509419D02*
X135867712Y-92509419D01*
X135867712Y-91509419D02*
X135201046Y-92509419D01*
X133534379Y-94119419D02*
X133534379Y-93119419D01*
X133534379Y-93119419D02*
X133772474Y-93119419D01*
X133772474Y-93119419D02*
X133915331Y-93167038D01*
X133915331Y-93167038D02*
X134010569Y-93262276D01*
X134010569Y-93262276D02*
X134058188Y-93357514D01*
X134058188Y-93357514D02*
X134105807Y-93547990D01*
X134105807Y-93547990D02*
X134105807Y-93690847D01*
X134105807Y-93690847D02*
X134058188Y-93881323D01*
X134058188Y-93881323D02*
X134010569Y-93976561D01*
X134010569Y-93976561D02*
X133915331Y-94071800D01*
X133915331Y-94071800D02*
X133772474Y-94119419D01*
X133772474Y-94119419D02*
X133534379Y-94119419D01*
X134962950Y-94119419D02*
X134962950Y-93595609D01*
X134962950Y-93595609D02*
X134915331Y-93500371D01*
X134915331Y-93500371D02*
X134820093Y-93452752D01*
X134820093Y-93452752D02*
X134629617Y-93452752D01*
X134629617Y-93452752D02*
X134534379Y-93500371D01*
X134962950Y-94071800D02*
X134867712Y-94119419D01*
X134867712Y-94119419D02*
X134629617Y-94119419D01*
X134629617Y-94119419D02*
X134534379Y-94071800D01*
X134534379Y-94071800D02*
X134486760Y-93976561D01*
X134486760Y-93976561D02*
X134486760Y-93881323D01*
X134486760Y-93881323D02*
X134534379Y-93786085D01*
X134534379Y-93786085D02*
X134629617Y-93738466D01*
X134629617Y-93738466D02*
X134867712Y-93738466D01*
X134867712Y-93738466D02*
X134962950Y-93690847D01*
X135296284Y-93452752D02*
X135677236Y-93452752D01*
X135439141Y-93119419D02*
X135439141Y-93976561D01*
X135439141Y-93976561D02*
X135486760Y-94071800D01*
X135486760Y-94071800D02*
X135581998Y-94119419D01*
X135581998Y-94119419D02*
X135677236Y-94119419D01*
X136439141Y-94119419D02*
X136439141Y-93595609D01*
X136439141Y-93595609D02*
X136391522Y-93500371D01*
X136391522Y-93500371D02*
X136296284Y-93452752D01*
X136296284Y-93452752D02*
X136105808Y-93452752D01*
X136105808Y-93452752D02*
X136010570Y-93500371D01*
X136439141Y-94071800D02*
X136343903Y-94119419D01*
X136343903Y-94119419D02*
X136105808Y-94119419D01*
X136105808Y-94119419D02*
X136010570Y-94071800D01*
X136010570Y-94071800D02*
X135962951Y-93976561D01*
X135962951Y-93976561D02*
X135962951Y-93881323D01*
X135962951Y-93881323D02*
X136010570Y-93786085D01*
X136010570Y-93786085D02*
X136105808Y-93738466D01*
X136105808Y-93738466D02*
X136343903Y-93738466D01*
X136343903Y-93738466D02*
X136439141Y-93690847D01*
X133724855Y-94729419D02*
X133915331Y-94729419D01*
X133915331Y-94729419D02*
X134010569Y-94777038D01*
X134010569Y-94777038D02*
X134105807Y-94872276D01*
X134105807Y-94872276D02*
X134153426Y-95062752D01*
X134153426Y-95062752D02*
X134153426Y-95396085D01*
X134153426Y-95396085D02*
X134105807Y-95586561D01*
X134105807Y-95586561D02*
X134010569Y-95681800D01*
X134010569Y-95681800D02*
X133915331Y-95729419D01*
X133915331Y-95729419D02*
X133724855Y-95729419D01*
X133724855Y-95729419D02*
X133629617Y-95681800D01*
X133629617Y-95681800D02*
X133534379Y-95586561D01*
X133534379Y-95586561D02*
X133486760Y-95396085D01*
X133486760Y-95396085D02*
X133486760Y-95062752D01*
X133486760Y-95062752D02*
X133534379Y-94872276D01*
X133534379Y-94872276D02*
X133629617Y-94777038D01*
X133629617Y-94777038D02*
X133724855Y-94729419D01*
X135010569Y-95062752D02*
X135010569Y-95729419D01*
X134581998Y-95062752D02*
X134581998Y-95586561D01*
X134581998Y-95586561D02*
X134629617Y-95681800D01*
X134629617Y-95681800D02*
X134724855Y-95729419D01*
X134724855Y-95729419D02*
X134867712Y-95729419D01*
X134867712Y-95729419D02*
X134962950Y-95681800D01*
X134962950Y-95681800D02*
X135010569Y-95634180D01*
X135343903Y-95062752D02*
X135724855Y-95062752D01*
X135486760Y-94729419D02*
X135486760Y-95586561D01*
X135486760Y-95586561D02*
X135534379Y-95681800D01*
X135534379Y-95681800D02*
X135629617Y-95729419D01*
X135629617Y-95729419D02*
X135724855Y-95729419D01*
X136787143Y-91534819D02*
X137358571Y-91534819D01*
X137072857Y-92534819D02*
X137072857Y-91534819D01*
X138263333Y-92534819D02*
X137930000Y-92058628D01*
X137691905Y-92534819D02*
X137691905Y-91534819D01*
X137691905Y-91534819D02*
X138072857Y-91534819D01*
X138072857Y-91534819D02*
X138168095Y-91582438D01*
X138168095Y-91582438D02*
X138215714Y-91630057D01*
X138215714Y-91630057D02*
X138263333Y-91725295D01*
X138263333Y-91725295D02*
X138263333Y-91868152D01*
X138263333Y-91868152D02*
X138215714Y-91963390D01*
X138215714Y-91963390D02*
X138168095Y-92011009D01*
X138168095Y-92011009D02*
X138072857Y-92058628D01*
X138072857Y-92058628D02*
X137691905Y-92058628D01*
X138596667Y-91534819D02*
X139263333Y-92534819D01*
X139263333Y-91534819D02*
X138596667Y-92534819D01*
X136977619Y-94144819D02*
X136977619Y-93144819D01*
X136977619Y-93144819D02*
X137215714Y-93144819D01*
X137215714Y-93144819D02*
X137358571Y-93192438D01*
X137358571Y-93192438D02*
X137453809Y-93287676D01*
X137453809Y-93287676D02*
X137501428Y-93382914D01*
X137501428Y-93382914D02*
X137549047Y-93573390D01*
X137549047Y-93573390D02*
X137549047Y-93716247D01*
X137549047Y-93716247D02*
X137501428Y-93906723D01*
X137501428Y-93906723D02*
X137453809Y-94001961D01*
X137453809Y-94001961D02*
X137358571Y-94097200D01*
X137358571Y-94097200D02*
X137215714Y-94144819D01*
X137215714Y-94144819D02*
X136977619Y-94144819D01*
X138406190Y-94144819D02*
X138406190Y-93621009D01*
X138406190Y-93621009D02*
X138358571Y-93525771D01*
X138358571Y-93525771D02*
X138263333Y-93478152D01*
X138263333Y-93478152D02*
X138072857Y-93478152D01*
X138072857Y-93478152D02*
X137977619Y-93525771D01*
X138406190Y-94097200D02*
X138310952Y-94144819D01*
X138310952Y-94144819D02*
X138072857Y-94144819D01*
X138072857Y-94144819D02*
X137977619Y-94097200D01*
X137977619Y-94097200D02*
X137930000Y-94001961D01*
X137930000Y-94001961D02*
X137930000Y-93906723D01*
X137930000Y-93906723D02*
X137977619Y-93811485D01*
X137977619Y-93811485D02*
X138072857Y-93763866D01*
X138072857Y-93763866D02*
X138310952Y-93763866D01*
X138310952Y-93763866D02*
X138406190Y-93716247D01*
X138739524Y-93478152D02*
X139120476Y-93478152D01*
X138882381Y-93144819D02*
X138882381Y-94001961D01*
X138882381Y-94001961D02*
X138930000Y-94097200D01*
X138930000Y-94097200D02*
X139025238Y-94144819D01*
X139025238Y-94144819D02*
X139120476Y-94144819D01*
X139882381Y-94144819D02*
X139882381Y-93621009D01*
X139882381Y-93621009D02*
X139834762Y-93525771D01*
X139834762Y-93525771D02*
X139739524Y-93478152D01*
X139739524Y-93478152D02*
X139549048Y-93478152D01*
X139549048Y-93478152D02*
X139453810Y-93525771D01*
X139882381Y-94097200D02*
X139787143Y-94144819D01*
X139787143Y-94144819D02*
X139549048Y-94144819D01*
X139549048Y-94144819D02*
X139453810Y-94097200D01*
X139453810Y-94097200D02*
X139406191Y-94001961D01*
X139406191Y-94001961D02*
X139406191Y-93906723D01*
X139406191Y-93906723D02*
X139453810Y-93811485D01*
X139453810Y-93811485D02*
X139549048Y-93763866D01*
X139549048Y-93763866D02*
X139787143Y-93763866D01*
X139787143Y-93763866D02*
X139882381Y-93716247D01*
X137977619Y-95754819D02*
X137977619Y-94754819D01*
X138453809Y-95088152D02*
X138453809Y-95754819D01*
X138453809Y-95183390D02*
X138501428Y-95135771D01*
X138501428Y-95135771D02*
X138596666Y-95088152D01*
X138596666Y-95088152D02*
X138739523Y-95088152D01*
X138739523Y-95088152D02*
X138834761Y-95135771D01*
X138834761Y-95135771D02*
X138882380Y-95231009D01*
X138882380Y-95231009D02*
X138882380Y-95754819D01*
X151450922Y-95852819D02*
X152022350Y-95852819D01*
X151736636Y-96852819D02*
X151736636Y-95852819D01*
X152927112Y-96852819D02*
X152593779Y-96376628D01*
X152355684Y-96852819D02*
X152355684Y-95852819D01*
X152355684Y-95852819D02*
X152736636Y-95852819D01*
X152736636Y-95852819D02*
X152831874Y-95900438D01*
X152831874Y-95900438D02*
X152879493Y-95948057D01*
X152879493Y-95948057D02*
X152927112Y-96043295D01*
X152927112Y-96043295D02*
X152927112Y-96186152D01*
X152927112Y-96186152D02*
X152879493Y-96281390D01*
X152879493Y-96281390D02*
X152831874Y-96329009D01*
X152831874Y-96329009D02*
X152736636Y-96376628D01*
X152736636Y-96376628D02*
X152355684Y-96376628D01*
X153260446Y-95852819D02*
X153927112Y-96852819D01*
X153927112Y-95852819D02*
X153260446Y-96852819D01*
X152165207Y-98367580D02*
X152117588Y-98415200D01*
X152117588Y-98415200D02*
X151974731Y-98462819D01*
X151974731Y-98462819D02*
X151879493Y-98462819D01*
X151879493Y-98462819D02*
X151736636Y-98415200D01*
X151736636Y-98415200D02*
X151641398Y-98319961D01*
X151641398Y-98319961D02*
X151593779Y-98224723D01*
X151593779Y-98224723D02*
X151546160Y-98034247D01*
X151546160Y-98034247D02*
X151546160Y-97891390D01*
X151546160Y-97891390D02*
X151593779Y-97700914D01*
X151593779Y-97700914D02*
X151641398Y-97605676D01*
X151641398Y-97605676D02*
X151736636Y-97510438D01*
X151736636Y-97510438D02*
X151879493Y-97462819D01*
X151879493Y-97462819D02*
X151974731Y-97462819D01*
X151974731Y-97462819D02*
X152117588Y-97510438D01*
X152117588Y-97510438D02*
X152165207Y-97558057D01*
X152546160Y-98177104D02*
X153022350Y-98177104D01*
X152450922Y-98462819D02*
X152784255Y-97462819D01*
X152784255Y-97462819D02*
X153117588Y-98462819D01*
X153308065Y-97462819D02*
X153879493Y-97462819D01*
X153593779Y-98462819D02*
X153593779Y-97462819D01*
X151450922Y-99072819D02*
X152022350Y-99072819D01*
X151736636Y-100072819D02*
X151736636Y-99072819D01*
X152260446Y-99072819D02*
X152927112Y-100072819D01*
X152927112Y-99072819D02*
X152260446Y-100072819D01*
X143354588Y-99755438D02*
X143259350Y-99707819D01*
X143259350Y-99707819D02*
X143116493Y-99707819D01*
X143116493Y-99707819D02*
X142973636Y-99755438D01*
X142973636Y-99755438D02*
X142878398Y-99850676D01*
X142878398Y-99850676D02*
X142830779Y-99945914D01*
X142830779Y-99945914D02*
X142783160Y-100136390D01*
X142783160Y-100136390D02*
X142783160Y-100279247D01*
X142783160Y-100279247D02*
X142830779Y-100469723D01*
X142830779Y-100469723D02*
X142878398Y-100564961D01*
X142878398Y-100564961D02*
X142973636Y-100660200D01*
X142973636Y-100660200D02*
X143116493Y-100707819D01*
X143116493Y-100707819D02*
X143211731Y-100707819D01*
X143211731Y-100707819D02*
X143354588Y-100660200D01*
X143354588Y-100660200D02*
X143402207Y-100612580D01*
X143402207Y-100612580D02*
X143402207Y-100279247D01*
X143402207Y-100279247D02*
X143211731Y-100279247D01*
X143830779Y-100707819D02*
X143830779Y-99707819D01*
X143830779Y-99707819D02*
X144402207Y-100707819D01*
X144402207Y-100707819D02*
X144402207Y-99707819D01*
X144878398Y-100707819D02*
X144878398Y-99707819D01*
X144878398Y-99707819D02*
X145116493Y-99707819D01*
X145116493Y-99707819D02*
X145259350Y-99755438D01*
X145259350Y-99755438D02*
X145354588Y-99850676D01*
X145354588Y-99850676D02*
X145402207Y-99945914D01*
X145402207Y-99945914D02*
X145449826Y-100136390D01*
X145449826Y-100136390D02*
X145449826Y-100279247D01*
X145449826Y-100279247D02*
X145402207Y-100469723D01*
X145402207Y-100469723D02*
X145354588Y-100564961D01*
X145354588Y-100564961D02*
X145259350Y-100660200D01*
X145259350Y-100660200D02*
X145116493Y-100707819D01*
X145116493Y-100707819D02*
X144878398Y-100707819D01*
X140655922Y-91661819D02*
X141227350Y-91661819D01*
X140941636Y-92661819D02*
X140941636Y-91661819D01*
X142132112Y-92661819D02*
X141798779Y-92185628D01*
X141560684Y-92661819D02*
X141560684Y-91661819D01*
X141560684Y-91661819D02*
X141941636Y-91661819D01*
X141941636Y-91661819D02*
X142036874Y-91709438D01*
X142036874Y-91709438D02*
X142084493Y-91757057D01*
X142084493Y-91757057D02*
X142132112Y-91852295D01*
X142132112Y-91852295D02*
X142132112Y-91995152D01*
X142132112Y-91995152D02*
X142084493Y-92090390D01*
X142084493Y-92090390D02*
X142036874Y-92138009D01*
X142036874Y-92138009D02*
X141941636Y-92185628D01*
X141941636Y-92185628D02*
X141560684Y-92185628D01*
X142465446Y-91661819D02*
X143132112Y-92661819D01*
X143132112Y-91661819D02*
X142465446Y-92661819D01*
X140798779Y-94271819D02*
X140798779Y-93271819D01*
X140798779Y-93271819D02*
X141036874Y-93271819D01*
X141036874Y-93271819D02*
X141179731Y-93319438D01*
X141179731Y-93319438D02*
X141274969Y-93414676D01*
X141274969Y-93414676D02*
X141322588Y-93509914D01*
X141322588Y-93509914D02*
X141370207Y-93700390D01*
X141370207Y-93700390D02*
X141370207Y-93843247D01*
X141370207Y-93843247D02*
X141322588Y-94033723D01*
X141322588Y-94033723D02*
X141274969Y-94128961D01*
X141274969Y-94128961D02*
X141179731Y-94224200D01*
X141179731Y-94224200D02*
X141036874Y-94271819D01*
X141036874Y-94271819D02*
X140798779Y-94271819D01*
X142227350Y-94271819D02*
X142227350Y-93748009D01*
X142227350Y-93748009D02*
X142179731Y-93652771D01*
X142179731Y-93652771D02*
X142084493Y-93605152D01*
X142084493Y-93605152D02*
X141894017Y-93605152D01*
X141894017Y-93605152D02*
X141798779Y-93652771D01*
X142227350Y-94224200D02*
X142132112Y-94271819D01*
X142132112Y-94271819D02*
X141894017Y-94271819D01*
X141894017Y-94271819D02*
X141798779Y-94224200D01*
X141798779Y-94224200D02*
X141751160Y-94128961D01*
X141751160Y-94128961D02*
X141751160Y-94033723D01*
X141751160Y-94033723D02*
X141798779Y-93938485D01*
X141798779Y-93938485D02*
X141894017Y-93890866D01*
X141894017Y-93890866D02*
X142132112Y-93890866D01*
X142132112Y-93890866D02*
X142227350Y-93843247D01*
X142560684Y-93605152D02*
X142941636Y-93605152D01*
X142703541Y-93271819D02*
X142703541Y-94128961D01*
X142703541Y-94128961D02*
X142751160Y-94224200D01*
X142751160Y-94224200D02*
X142846398Y-94271819D01*
X142846398Y-94271819D02*
X142941636Y-94271819D01*
X143703541Y-94271819D02*
X143703541Y-93748009D01*
X143703541Y-93748009D02*
X143655922Y-93652771D01*
X143655922Y-93652771D02*
X143560684Y-93605152D01*
X143560684Y-93605152D02*
X143370208Y-93605152D01*
X143370208Y-93605152D02*
X143274970Y-93652771D01*
X143703541Y-94224200D02*
X143608303Y-94271819D01*
X143608303Y-94271819D02*
X143370208Y-94271819D01*
X143370208Y-94271819D02*
X143274970Y-94224200D01*
X143274970Y-94224200D02*
X143227351Y-94128961D01*
X143227351Y-94128961D02*
X143227351Y-94033723D01*
X143227351Y-94033723D02*
X143274970Y-93938485D01*
X143274970Y-93938485D02*
X143370208Y-93890866D01*
X143370208Y-93890866D02*
X143608303Y-93890866D01*
X143608303Y-93890866D02*
X143703541Y-93843247D01*
X141322588Y-94929438D02*
X141227350Y-94881819D01*
X141227350Y-94881819D02*
X141084493Y-94881819D01*
X141084493Y-94881819D02*
X140941636Y-94929438D01*
X140941636Y-94929438D02*
X140846398Y-95024676D01*
X140846398Y-95024676D02*
X140798779Y-95119914D01*
X140798779Y-95119914D02*
X140751160Y-95310390D01*
X140751160Y-95310390D02*
X140751160Y-95453247D01*
X140751160Y-95453247D02*
X140798779Y-95643723D01*
X140798779Y-95643723D02*
X140846398Y-95738961D01*
X140846398Y-95738961D02*
X140941636Y-95834200D01*
X140941636Y-95834200D02*
X141084493Y-95881819D01*
X141084493Y-95881819D02*
X141179731Y-95881819D01*
X141179731Y-95881819D02*
X141322588Y-95834200D01*
X141322588Y-95834200D02*
X141370207Y-95786580D01*
X141370207Y-95786580D02*
X141370207Y-95453247D01*
X141370207Y-95453247D02*
X141179731Y-95453247D01*
X141798779Y-95881819D02*
X141798779Y-94881819D01*
X141798779Y-94881819D02*
X142370207Y-95881819D01*
X142370207Y-95881819D02*
X142370207Y-94881819D01*
X142846398Y-95881819D02*
X142846398Y-94881819D01*
X142846398Y-94881819D02*
X143084493Y-94881819D01*
X143084493Y-94881819D02*
X143227350Y-94929438D01*
X143227350Y-94929438D02*
X143322588Y-95024676D01*
X143322588Y-95024676D02*
X143370207Y-95119914D01*
X143370207Y-95119914D02*
X143417826Y-95310390D01*
X143417826Y-95310390D02*
X143417826Y-95453247D01*
X143417826Y-95453247D02*
X143370207Y-95643723D01*
X143370207Y-95643723D02*
X143322588Y-95738961D01*
X143322588Y-95738961D02*
X143227350Y-95834200D01*
X143227350Y-95834200D02*
X143084493Y-95881819D01*
X143084493Y-95881819D02*
X142846398Y-95881819D01*
X166874819Y-55273411D02*
X166874819Y-55844839D01*
X166874819Y-55559125D02*
X165874819Y-55559125D01*
X165874819Y-55559125D02*
X166017676Y-55654363D01*
X166017676Y-55654363D02*
X166112914Y-55749601D01*
X166112914Y-55749601D02*
X166160533Y-55844839D01*
X165970057Y-54892458D02*
X165922438Y-54844839D01*
X165922438Y-54844839D02*
X165874819Y-54749601D01*
X165874819Y-54749601D02*
X165874819Y-54511506D01*
X165874819Y-54511506D02*
X165922438Y-54416268D01*
X165922438Y-54416268D02*
X165970057Y-54368649D01*
X165970057Y-54368649D02*
X166065295Y-54321030D01*
X166065295Y-54321030D02*
X166160533Y-54321030D01*
X166160533Y-54321030D02*
X166303390Y-54368649D01*
X166303390Y-54368649D02*
X166874819Y-54940077D01*
X166874819Y-54940077D02*
X166874819Y-54321030D01*
X165874819Y-54035315D02*
X166874819Y-53701982D01*
X166874819Y-53701982D02*
X165874819Y-53368649D01*
X142835333Y-84081580D02*
X142787714Y-84129200D01*
X142787714Y-84129200D02*
X142644857Y-84176819D01*
X142644857Y-84176819D02*
X142549619Y-84176819D01*
X142549619Y-84176819D02*
X142406762Y-84129200D01*
X142406762Y-84129200D02*
X142311524Y-84033961D01*
X142311524Y-84033961D02*
X142263905Y-83938723D01*
X142263905Y-83938723D02*
X142216286Y-83748247D01*
X142216286Y-83748247D02*
X142216286Y-83605390D01*
X142216286Y-83605390D02*
X142263905Y-83414914D01*
X142263905Y-83414914D02*
X142311524Y-83319676D01*
X142311524Y-83319676D02*
X142406762Y-83224438D01*
X142406762Y-83224438D02*
X142549619Y-83176819D01*
X142549619Y-83176819D02*
X142644857Y-83176819D01*
X142644857Y-83176819D02*
X142787714Y-83224438D01*
X142787714Y-83224438D02*
X142835333Y-83272057D01*
X143216286Y-83272057D02*
X143263905Y-83224438D01*
X143263905Y-83224438D02*
X143359143Y-83176819D01*
X143359143Y-83176819D02*
X143597238Y-83176819D01*
X143597238Y-83176819D02*
X143692476Y-83224438D01*
X143692476Y-83224438D02*
X143740095Y-83272057D01*
X143740095Y-83272057D02*
X143787714Y-83367295D01*
X143787714Y-83367295D02*
X143787714Y-83462533D01*
X143787714Y-83462533D02*
X143740095Y-83605390D01*
X143740095Y-83605390D02*
X143168667Y-84176819D01*
X143168667Y-84176819D02*
X143787714Y-84176819D01*
X140881580Y-62147666D02*
X140929200Y-62195285D01*
X140929200Y-62195285D02*
X140976819Y-62338142D01*
X140976819Y-62338142D02*
X140976819Y-62433380D01*
X140976819Y-62433380D02*
X140929200Y-62576237D01*
X140929200Y-62576237D02*
X140833961Y-62671475D01*
X140833961Y-62671475D02*
X140738723Y-62719094D01*
X140738723Y-62719094D02*
X140548247Y-62766713D01*
X140548247Y-62766713D02*
X140405390Y-62766713D01*
X140405390Y-62766713D02*
X140214914Y-62719094D01*
X140214914Y-62719094D02*
X140119676Y-62671475D01*
X140119676Y-62671475D02*
X140024438Y-62576237D01*
X140024438Y-62576237D02*
X139976819Y-62433380D01*
X139976819Y-62433380D02*
X139976819Y-62338142D01*
X139976819Y-62338142D02*
X140024438Y-62195285D01*
X140024438Y-62195285D02*
X140072057Y-62147666D01*
X139976819Y-61242904D02*
X139976819Y-61719094D01*
X139976819Y-61719094D02*
X140453009Y-61766713D01*
X140453009Y-61766713D02*
X140405390Y-61719094D01*
X140405390Y-61719094D02*
X140357771Y-61623856D01*
X140357771Y-61623856D02*
X140357771Y-61385761D01*
X140357771Y-61385761D02*
X140405390Y-61290523D01*
X140405390Y-61290523D02*
X140453009Y-61242904D01*
X140453009Y-61242904D02*
X140548247Y-61195285D01*
X140548247Y-61195285D02*
X140786342Y-61195285D01*
X140786342Y-61195285D02*
X140881580Y-61242904D01*
X140881580Y-61242904D02*
X140929200Y-61290523D01*
X140929200Y-61290523D02*
X140976819Y-61385761D01*
X140976819Y-61385761D02*
X140976819Y-61623856D01*
X140976819Y-61623856D02*
X140929200Y-61719094D01*
X140929200Y-61719094D02*
X140881580Y-61766713D01*
X139747666Y-99657819D02*
X139747666Y-100372104D01*
X139747666Y-100372104D02*
X139700047Y-100514961D01*
X139700047Y-100514961D02*
X139604809Y-100610200D01*
X139604809Y-100610200D02*
X139461952Y-100657819D01*
X139461952Y-100657819D02*
X139366714Y-100657819D01*
X140747666Y-100657819D02*
X140176238Y-100657819D01*
X140461952Y-100657819D02*
X140461952Y-99657819D01*
X140461952Y-99657819D02*
X140366714Y-99800676D01*
X140366714Y-99800676D02*
X140271476Y-99895914D01*
X140271476Y-99895914D02*
X140176238Y-99943533D01*
X142901333Y-86494580D02*
X142853714Y-86542200D01*
X142853714Y-86542200D02*
X142710857Y-86589819D01*
X142710857Y-86589819D02*
X142615619Y-86589819D01*
X142615619Y-86589819D02*
X142472762Y-86542200D01*
X142472762Y-86542200D02*
X142377524Y-86446961D01*
X142377524Y-86446961D02*
X142329905Y-86351723D01*
X142329905Y-86351723D02*
X142282286Y-86161247D01*
X142282286Y-86161247D02*
X142282286Y-86018390D01*
X142282286Y-86018390D02*
X142329905Y-85827914D01*
X142329905Y-85827914D02*
X142377524Y-85732676D01*
X142377524Y-85732676D02*
X142472762Y-85637438D01*
X142472762Y-85637438D02*
X142615619Y-85589819D01*
X142615619Y-85589819D02*
X142710857Y-85589819D01*
X142710857Y-85589819D02*
X142853714Y-85637438D01*
X142853714Y-85637438D02*
X142901333Y-85685057D01*
X143234667Y-85589819D02*
X143853714Y-85589819D01*
X143853714Y-85589819D02*
X143520381Y-85970771D01*
X143520381Y-85970771D02*
X143663238Y-85970771D01*
X143663238Y-85970771D02*
X143758476Y-86018390D01*
X143758476Y-86018390D02*
X143806095Y-86066009D01*
X143806095Y-86066009D02*
X143853714Y-86161247D01*
X143853714Y-86161247D02*
X143853714Y-86399342D01*
X143853714Y-86399342D02*
X143806095Y-86494580D01*
X143806095Y-86494580D02*
X143758476Y-86542200D01*
X143758476Y-86542200D02*
X143663238Y-86589819D01*
X143663238Y-86589819D02*
X143377524Y-86589819D01*
X143377524Y-86589819D02*
X143282286Y-86542200D01*
X143282286Y-86542200D02*
X143234667Y-86494580D01*
X129743580Y-80049666D02*
X129791200Y-80097285D01*
X129791200Y-80097285D02*
X129838819Y-80240142D01*
X129838819Y-80240142D02*
X129838819Y-80335380D01*
X129838819Y-80335380D02*
X129791200Y-80478237D01*
X129791200Y-80478237D02*
X129695961Y-80573475D01*
X129695961Y-80573475D02*
X129600723Y-80621094D01*
X129600723Y-80621094D02*
X129410247Y-80668713D01*
X129410247Y-80668713D02*
X129267390Y-80668713D01*
X129267390Y-80668713D02*
X129076914Y-80621094D01*
X129076914Y-80621094D02*
X128981676Y-80573475D01*
X128981676Y-80573475D02*
X128886438Y-80478237D01*
X128886438Y-80478237D02*
X128838819Y-80335380D01*
X128838819Y-80335380D02*
X128838819Y-80240142D01*
X128838819Y-80240142D02*
X128886438Y-80097285D01*
X128886438Y-80097285D02*
X128934057Y-80049666D01*
X129838819Y-79097285D02*
X129838819Y-79668713D01*
X129838819Y-79382999D02*
X128838819Y-79382999D01*
X128838819Y-79382999D02*
X128981676Y-79478237D01*
X128981676Y-79478237D02*
X129076914Y-79573475D01*
X129076914Y-79573475D02*
X129124533Y-79668713D01*
X135929761Y-72101819D02*
X135596428Y-71625628D01*
X135358333Y-72101819D02*
X135358333Y-71101819D01*
X135358333Y-71101819D02*
X135739285Y-71101819D01*
X135739285Y-71101819D02*
X135834523Y-71149438D01*
X135834523Y-71149438D02*
X135882142Y-71197057D01*
X135882142Y-71197057D02*
X135929761Y-71292295D01*
X135929761Y-71292295D02*
X135929761Y-71435152D01*
X135929761Y-71435152D02*
X135882142Y-71530390D01*
X135882142Y-71530390D02*
X135834523Y-71578009D01*
X135834523Y-71578009D02*
X135739285Y-71625628D01*
X135739285Y-71625628D02*
X135358333Y-71625628D01*
X136215476Y-71101819D02*
X136548809Y-72101819D01*
X136548809Y-72101819D02*
X136882142Y-71101819D01*
X137739285Y-72101819D02*
X137167857Y-72101819D01*
X137453571Y-72101819D02*
X137453571Y-71101819D01*
X137453571Y-71101819D02*
X137358333Y-71244676D01*
X137358333Y-71244676D02*
X137263095Y-71339914D01*
X137263095Y-71339914D02*
X137167857Y-71387533D01*
X147735819Y-58546904D02*
X148545342Y-58546904D01*
X148545342Y-58546904D02*
X148640580Y-58499285D01*
X148640580Y-58499285D02*
X148688200Y-58451666D01*
X148688200Y-58451666D02*
X148735819Y-58356428D01*
X148735819Y-58356428D02*
X148735819Y-58165952D01*
X148735819Y-58165952D02*
X148688200Y-58070714D01*
X148688200Y-58070714D02*
X148640580Y-58023095D01*
X148640580Y-58023095D02*
X148545342Y-57975476D01*
X148545342Y-57975476D02*
X147735819Y-57975476D01*
X148735819Y-56975476D02*
X148735819Y-57546904D01*
X148735819Y-57261190D02*
X147735819Y-57261190D01*
X147735819Y-57261190D02*
X147878676Y-57356428D01*
X147878676Y-57356428D02*
X147973914Y-57451666D01*
X147973914Y-57451666D02*
X148021533Y-57546904D01*
X158668819Y-55070333D02*
X159383104Y-55070333D01*
X159383104Y-55070333D02*
X159525961Y-55117952D01*
X159525961Y-55117952D02*
X159621200Y-55213190D01*
X159621200Y-55213190D02*
X159668819Y-55356047D01*
X159668819Y-55356047D02*
X159668819Y-55451285D01*
X158764057Y-54641761D02*
X158716438Y-54594142D01*
X158716438Y-54594142D02*
X158668819Y-54498904D01*
X158668819Y-54498904D02*
X158668819Y-54260809D01*
X158668819Y-54260809D02*
X158716438Y-54165571D01*
X158716438Y-54165571D02*
X158764057Y-54117952D01*
X158764057Y-54117952D02*
X158859295Y-54070333D01*
X158859295Y-54070333D02*
X158954533Y-54070333D01*
X158954533Y-54070333D02*
X159097390Y-54117952D01*
X159097390Y-54117952D02*
X159668819Y-54689380D01*
X159668819Y-54689380D02*
X159668819Y-54070333D01*
X133569819Y-85177238D02*
X133093628Y-85510571D01*
X133569819Y-85748666D02*
X132569819Y-85748666D01*
X132569819Y-85748666D02*
X132569819Y-85367714D01*
X132569819Y-85367714D02*
X132617438Y-85272476D01*
X132617438Y-85272476D02*
X132665057Y-85224857D01*
X132665057Y-85224857D02*
X132760295Y-85177238D01*
X132760295Y-85177238D02*
X132903152Y-85177238D01*
X132903152Y-85177238D02*
X132998390Y-85224857D01*
X132998390Y-85224857D02*
X133046009Y-85272476D01*
X133046009Y-85272476D02*
X133093628Y-85367714D01*
X133093628Y-85367714D02*
X133093628Y-85748666D01*
X132569819Y-84891523D02*
X133569819Y-84558190D01*
X133569819Y-84558190D02*
X132569819Y-84224857D01*
X132665057Y-83939142D02*
X132617438Y-83891523D01*
X132617438Y-83891523D02*
X132569819Y-83796285D01*
X132569819Y-83796285D02*
X132569819Y-83558190D01*
X132569819Y-83558190D02*
X132617438Y-83462952D01*
X132617438Y-83462952D02*
X132665057Y-83415333D01*
X132665057Y-83415333D02*
X132760295Y-83367714D01*
X132760295Y-83367714D02*
X132855533Y-83367714D01*
X132855533Y-83367714D02*
X132998390Y-83415333D01*
X132998390Y-83415333D02*
X133569819Y-83986761D01*
X133569819Y-83986761D02*
X133569819Y-83367714D01*
X154675819Y-93003666D02*
X154675819Y-93479856D01*
X154675819Y-93479856D02*
X153675819Y-93479856D01*
X154675819Y-92146523D02*
X154675819Y-92717951D01*
X154675819Y-92432237D02*
X153675819Y-92432237D01*
X153675819Y-92432237D02*
X153818676Y-92527475D01*
X153818676Y-92527475D02*
X153913914Y-92622713D01*
X153913914Y-92622713D02*
X153961533Y-92717951D01*
X161016333Y-57594580D02*
X160968714Y-57642200D01*
X160968714Y-57642200D02*
X160825857Y-57689819D01*
X160825857Y-57689819D02*
X160730619Y-57689819D01*
X160730619Y-57689819D02*
X160587762Y-57642200D01*
X160587762Y-57642200D02*
X160492524Y-57546961D01*
X160492524Y-57546961D02*
X160444905Y-57451723D01*
X160444905Y-57451723D02*
X160397286Y-57261247D01*
X160397286Y-57261247D02*
X160397286Y-57118390D01*
X160397286Y-57118390D02*
X160444905Y-56927914D01*
X160444905Y-56927914D02*
X160492524Y-56832676D01*
X160492524Y-56832676D02*
X160587762Y-56737438D01*
X160587762Y-56737438D02*
X160730619Y-56689819D01*
X160730619Y-56689819D02*
X160825857Y-56689819D01*
X160825857Y-56689819D02*
X160968714Y-56737438D01*
X160968714Y-56737438D02*
X161016333Y-56785057D01*
X161873476Y-57023152D02*
X161873476Y-57689819D01*
X161635381Y-56642200D02*
X161397286Y-57356485D01*
X161397286Y-57356485D02*
X162016333Y-57356485D01*
X161758333Y-96847819D02*
X161282143Y-96847819D01*
X161282143Y-96847819D02*
X161282143Y-95847819D01*
X162044048Y-95943057D02*
X162091667Y-95895438D01*
X162091667Y-95895438D02*
X162186905Y-95847819D01*
X162186905Y-95847819D02*
X162425000Y-95847819D01*
X162425000Y-95847819D02*
X162520238Y-95895438D01*
X162520238Y-95895438D02*
X162567857Y-95943057D01*
X162567857Y-95943057D02*
X162615476Y-96038295D01*
X162615476Y-96038295D02*
X162615476Y-96133533D01*
X162615476Y-96133533D02*
X162567857Y-96276390D01*
X162567857Y-96276390D02*
X161996429Y-96847819D01*
X161996429Y-96847819D02*
X162615476Y-96847819D01*
X158472285Y-67749009D02*
X158615142Y-67796628D01*
X158615142Y-67796628D02*
X158662761Y-67844247D01*
X158662761Y-67844247D02*
X158710380Y-67939485D01*
X158710380Y-67939485D02*
X158710380Y-68082342D01*
X158710380Y-68082342D02*
X158662761Y-68177580D01*
X158662761Y-68177580D02*
X158615142Y-68225200D01*
X158615142Y-68225200D02*
X158519904Y-68272819D01*
X158519904Y-68272819D02*
X158138952Y-68272819D01*
X158138952Y-68272819D02*
X158138952Y-67272819D01*
X158138952Y-67272819D02*
X158472285Y-67272819D01*
X158472285Y-67272819D02*
X158567523Y-67320438D01*
X158567523Y-67320438D02*
X158615142Y-67368057D01*
X158615142Y-67368057D02*
X158662761Y-67463295D01*
X158662761Y-67463295D02*
X158662761Y-67558533D01*
X158662761Y-67558533D02*
X158615142Y-67653771D01*
X158615142Y-67653771D02*
X158567523Y-67701390D01*
X158567523Y-67701390D02*
X158472285Y-67749009D01*
X158472285Y-67749009D02*
X158138952Y-67749009D01*
X158996095Y-67272819D02*
X159567523Y-67272819D01*
X159281809Y-68272819D02*
X159281809Y-67272819D01*
X160424666Y-68272819D02*
X159853238Y-68272819D01*
X160138952Y-68272819D02*
X160138952Y-67272819D01*
X160138952Y-67272819D02*
X160043714Y-67415676D01*
X160043714Y-67415676D02*
X159948476Y-67510914D01*
X159948476Y-67510914D02*
X159853238Y-67558533D01*
D12*
%TO.C,C2*%
X143263252Y-82777000D02*
X142740748Y-82777000D01*
X143263252Y-81307000D02*
X142740748Y-81307000D01*
%TO.C,C5*%
X142797000Y-64785775D02*
X142797000Y-64285775D01*
X142547000Y-64535775D02*
X143047000Y-64535775D01*
X141692000Y-61981000D02*
X146852000Y-61981000D01*
X141692000Y-61941000D02*
X146852000Y-61941000D01*
X141693000Y-61901000D02*
X146851000Y-61901000D01*
X141694000Y-61861000D02*
X146850000Y-61861000D01*
X141696000Y-61821000D02*
X146848000Y-61821000D01*
X141699000Y-61781000D02*
X146845000Y-61781000D01*
X141703000Y-61741000D02*
X143232000Y-61741000D01*
X145312000Y-61741000D02*
X146841000Y-61741000D01*
X141707000Y-61701000D02*
X143232000Y-61701000D01*
X145312000Y-61701000D02*
X146837000Y-61701000D01*
X141711000Y-61661000D02*
X143232000Y-61661000D01*
X145312000Y-61661000D02*
X146833000Y-61661000D01*
X141716000Y-61621000D02*
X143232000Y-61621000D01*
X145312000Y-61621000D02*
X146828000Y-61621000D01*
X141722000Y-61581000D02*
X143232000Y-61581000D01*
X145312000Y-61581000D02*
X146822000Y-61581000D01*
X141729000Y-61541000D02*
X143232000Y-61541000D01*
X145312000Y-61541000D02*
X146815000Y-61541000D01*
X141736000Y-61501000D02*
X143232000Y-61501000D01*
X145312000Y-61501000D02*
X146808000Y-61501000D01*
X141744000Y-61461000D02*
X143232000Y-61461000D01*
X145312000Y-61461000D02*
X146800000Y-61461000D01*
X141752000Y-61421000D02*
X143232000Y-61421000D01*
X145312000Y-61421000D02*
X146792000Y-61421000D01*
X141761000Y-61381000D02*
X143232000Y-61381000D01*
X145312000Y-61381000D02*
X146783000Y-61381000D01*
X141771000Y-61341000D02*
X143232000Y-61341000D01*
X145312000Y-61341000D02*
X146773000Y-61341000D01*
X141781000Y-61301000D02*
X143232000Y-61301000D01*
X145312000Y-61301000D02*
X146763000Y-61301000D01*
X141792000Y-61260000D02*
X143232000Y-61260000D01*
X145312000Y-61260000D02*
X146752000Y-61260000D01*
X141804000Y-61220000D02*
X143232000Y-61220000D01*
X145312000Y-61220000D02*
X146740000Y-61220000D01*
X141817000Y-61180000D02*
X143232000Y-61180000D01*
X145312000Y-61180000D02*
X146727000Y-61180000D01*
X141830000Y-61140000D02*
X143232000Y-61140000D01*
X145312000Y-61140000D02*
X146714000Y-61140000D01*
X141844000Y-61100000D02*
X143232000Y-61100000D01*
X145312000Y-61100000D02*
X146700000Y-61100000D01*
X141858000Y-61060000D02*
X143232000Y-61060000D01*
X145312000Y-61060000D02*
X146686000Y-61060000D01*
X141874000Y-61020000D02*
X143232000Y-61020000D01*
X145312000Y-61020000D02*
X146670000Y-61020000D01*
X141890000Y-60980000D02*
X143232000Y-60980000D01*
X145312000Y-60980000D02*
X146654000Y-60980000D01*
X141907000Y-60940000D02*
X143232000Y-60940000D01*
X145312000Y-60940000D02*
X146637000Y-60940000D01*
X141924000Y-60900000D02*
X143232000Y-60900000D01*
X145312000Y-60900000D02*
X146620000Y-60900000D01*
X141943000Y-60860000D02*
X143232000Y-60860000D01*
X145312000Y-60860000D02*
X146601000Y-60860000D01*
X141962000Y-60820000D02*
X143232000Y-60820000D01*
X145312000Y-60820000D02*
X146582000Y-60820000D01*
X141982000Y-60780000D02*
X143232000Y-60780000D01*
X145312000Y-60780000D02*
X146562000Y-60780000D01*
X142004000Y-60740000D02*
X143232000Y-60740000D01*
X145312000Y-60740000D02*
X146540000Y-60740000D01*
X142025000Y-60700000D02*
X143232000Y-60700000D01*
X145312000Y-60700000D02*
X146519000Y-60700000D01*
X142048000Y-60660000D02*
X143232000Y-60660000D01*
X145312000Y-60660000D02*
X146496000Y-60660000D01*
X142072000Y-60620000D02*
X143232000Y-60620000D01*
X145312000Y-60620000D02*
X146472000Y-60620000D01*
X142097000Y-60580000D02*
X143232000Y-60580000D01*
X145312000Y-60580000D02*
X146447000Y-60580000D01*
X142123000Y-60540000D02*
X143232000Y-60540000D01*
X145312000Y-60540000D02*
X146421000Y-60540000D01*
X142150000Y-60500000D02*
X143232000Y-60500000D01*
X145312000Y-60500000D02*
X146394000Y-60500000D01*
X142177000Y-60460000D02*
X143232000Y-60460000D01*
X145312000Y-60460000D02*
X146367000Y-60460000D01*
X142207000Y-60420000D02*
X143232000Y-60420000D01*
X145312000Y-60420000D02*
X146337000Y-60420000D01*
X142237000Y-60380000D02*
X143232000Y-60380000D01*
X145312000Y-60380000D02*
X146307000Y-60380000D01*
X142268000Y-60340000D02*
X143232000Y-60340000D01*
X145312000Y-60340000D02*
X146276000Y-60340000D01*
X142301000Y-60300000D02*
X143232000Y-60300000D01*
X145312000Y-60300000D02*
X146243000Y-60300000D01*
X142335000Y-60260000D02*
X143232000Y-60260000D01*
X145312000Y-60260000D02*
X146209000Y-60260000D01*
X142371000Y-60220000D02*
X143232000Y-60220000D01*
X145312000Y-60220000D02*
X146173000Y-60220000D01*
X142408000Y-60180000D02*
X143232000Y-60180000D01*
X145312000Y-60180000D02*
X146136000Y-60180000D01*
X142446000Y-60140000D02*
X143232000Y-60140000D01*
X145312000Y-60140000D02*
X146098000Y-60140000D01*
X142487000Y-60100000D02*
X143232000Y-60100000D01*
X145312000Y-60100000D02*
X146057000Y-60100000D01*
X142529000Y-60060000D02*
X143232000Y-60060000D01*
X145312000Y-60060000D02*
X146015000Y-60060000D01*
X142573000Y-60020000D02*
X143232000Y-60020000D01*
X145312000Y-60020000D02*
X145971000Y-60020000D01*
X142619000Y-59980000D02*
X143232000Y-59980000D01*
X145312000Y-59980000D02*
X145925000Y-59980000D01*
X142667000Y-59940000D02*
X143232000Y-59940000D01*
X145312000Y-59940000D02*
X145877000Y-59940000D01*
X142718000Y-59900000D02*
X143232000Y-59900000D01*
X145312000Y-59900000D02*
X145826000Y-59900000D01*
X142772000Y-59860000D02*
X143232000Y-59860000D01*
X145312000Y-59860000D02*
X145772000Y-59860000D01*
X142829000Y-59820000D02*
X143232000Y-59820000D01*
X145312000Y-59820000D02*
X145715000Y-59820000D01*
X142889000Y-59780000D02*
X143232000Y-59780000D01*
X145312000Y-59780000D02*
X145655000Y-59780000D01*
X142953000Y-59740000D02*
X143232000Y-59740000D01*
X145312000Y-59740000D02*
X145591000Y-59740000D01*
X143021000Y-59700000D02*
X143232000Y-59700000D01*
X145312000Y-59700000D02*
X145523000Y-59700000D01*
X143094000Y-59660000D02*
X145450000Y-59660000D01*
X143174000Y-59620000D02*
X145370000Y-59620000D01*
X143261000Y-59580000D02*
X145283000Y-59580000D01*
X143357000Y-59540000D02*
X145187000Y-59540000D01*
X143467000Y-59500000D02*
X145077000Y-59500000D01*
X143595000Y-59460000D02*
X144949000Y-59460000D01*
X143754000Y-59420000D02*
X144790000Y-59420000D01*
X143988000Y-59380000D02*
X144556000Y-59380000D01*
X146892000Y-61981000D02*
G75*
G03*
X146892000Y-61981000I-2620000J0D01*
G01*
%TO.C,J1*%
X134941000Y-99374000D02*
X134941000Y-98044000D01*
X136271000Y-99374000D02*
X134941000Y-99374000D01*
X137541000Y-99374000D02*
X150301000Y-99374000D01*
X137541000Y-99374000D02*
X137541000Y-96714000D01*
X150301000Y-99374000D02*
X150301000Y-96714000D01*
X137541000Y-96714000D02*
X150301000Y-96714000D01*
%TO.C,C3*%
X143329252Y-85190000D02*
X142806748Y-85190000D01*
X143329252Y-83720000D02*
X142806748Y-83720000D01*
%TO.C,C1*%
X130329000Y-80144252D02*
X130329000Y-79621748D01*
X131799000Y-80144252D02*
X131799000Y-79621748D01*
%TO.C,RV1*%
X133050000Y-72777000D02*
X133050000Y-74563000D01*
X133050000Y-72777000D02*
X140000000Y-72777000D01*
X133050000Y-75553000D02*
X133050000Y-77517000D01*
X133050000Y-77517000D02*
X140000000Y-77517000D01*
X140000000Y-72777000D02*
X140000000Y-74563000D01*
X140000000Y-75553000D02*
X140000000Y-77517000D01*
%TO.C,U1*%
X149371000Y-61885000D02*
X149371000Y-55875000D01*
X156191000Y-59635000D02*
X156191000Y-55875000D01*
X149371000Y-55875000D02*
X150631000Y-55875000D01*
X156191000Y-55875000D02*
X154931000Y-55875000D01*
%TO.C,J2*%
X160214000Y-56067000D02*
X160214000Y-54737000D01*
X161544000Y-56067000D02*
X160214000Y-56067000D01*
X162814000Y-56067000D02*
X165414000Y-56067000D01*
X162814000Y-56067000D02*
X162814000Y-53407000D01*
X165414000Y-56067000D02*
X165414000Y-53407000D01*
X162814000Y-53407000D02*
X165414000Y-53407000D01*
%TO.C,RV2*%
X134245000Y-88057000D02*
X136031000Y-88057000D01*
X134245000Y-88057000D02*
X134245000Y-81107000D01*
X137021000Y-88057000D02*
X138985000Y-88057000D01*
X138985000Y-88057000D02*
X138985000Y-81107000D01*
X134245000Y-81107000D02*
X136031000Y-81107000D01*
X137021000Y-81107000D02*
X138985000Y-81107000D01*
%TO.C,L1*%
X156591000Y-92737000D02*
X156591000Y-92667000D01*
X157961000Y-94107000D02*
G75*
G03*
X157961000Y-94107000I-1370000J0D01*
G01*
%TO.C,C4*%
X158378225Y-59510000D02*
X158878225Y-59510000D01*
X158628225Y-59260000D02*
X158628225Y-59760000D01*
X161183000Y-58405000D02*
X161183000Y-63565000D01*
X161223000Y-58405000D02*
X161223000Y-63565000D01*
X161263000Y-58406000D02*
X161263000Y-63564000D01*
X161303000Y-58407000D02*
X161303000Y-63563000D01*
X161343000Y-58409000D02*
X161343000Y-63561000D01*
X161383000Y-58412000D02*
X161383000Y-63558000D01*
X161423000Y-58416000D02*
X161423000Y-59945000D01*
X161423000Y-62025000D02*
X161423000Y-63554000D01*
X161463000Y-58420000D02*
X161463000Y-59945000D01*
X161463000Y-62025000D02*
X161463000Y-63550000D01*
X161503000Y-58424000D02*
X161503000Y-59945000D01*
X161503000Y-62025000D02*
X161503000Y-63546000D01*
X161543000Y-58429000D02*
X161543000Y-59945000D01*
X161543000Y-62025000D02*
X161543000Y-63541000D01*
X161583000Y-58435000D02*
X161583000Y-59945000D01*
X161583000Y-62025000D02*
X161583000Y-63535000D01*
X161623000Y-58442000D02*
X161623000Y-59945000D01*
X161623000Y-62025000D02*
X161623000Y-63528000D01*
X161663000Y-58449000D02*
X161663000Y-59945000D01*
X161663000Y-62025000D02*
X161663000Y-63521000D01*
X161703000Y-58457000D02*
X161703000Y-59945000D01*
X161703000Y-62025000D02*
X161703000Y-63513000D01*
X161743000Y-58465000D02*
X161743000Y-59945000D01*
X161743000Y-62025000D02*
X161743000Y-63505000D01*
X161783000Y-58474000D02*
X161783000Y-59945000D01*
X161783000Y-62025000D02*
X161783000Y-63496000D01*
X161823000Y-58484000D02*
X161823000Y-59945000D01*
X161823000Y-62025000D02*
X161823000Y-63486000D01*
X161863000Y-58494000D02*
X161863000Y-59945000D01*
X161863000Y-62025000D02*
X161863000Y-63476000D01*
X161904000Y-58505000D02*
X161904000Y-59945000D01*
X161904000Y-62025000D02*
X161904000Y-63465000D01*
X161944000Y-58517000D02*
X161944000Y-59945000D01*
X161944000Y-62025000D02*
X161944000Y-63453000D01*
X161984000Y-58530000D02*
X161984000Y-59945000D01*
X161984000Y-62025000D02*
X161984000Y-63440000D01*
X162024000Y-58543000D02*
X162024000Y-59945000D01*
X162024000Y-62025000D02*
X162024000Y-63427000D01*
X162064000Y-58557000D02*
X162064000Y-59945000D01*
X162064000Y-62025000D02*
X162064000Y-63413000D01*
X162104000Y-58571000D02*
X162104000Y-59945000D01*
X162104000Y-62025000D02*
X162104000Y-63399000D01*
X162144000Y-58587000D02*
X162144000Y-59945000D01*
X162144000Y-62025000D02*
X162144000Y-63383000D01*
X162184000Y-58603000D02*
X162184000Y-59945000D01*
X162184000Y-62025000D02*
X162184000Y-63367000D01*
X162224000Y-58620000D02*
X162224000Y-59945000D01*
X162224000Y-62025000D02*
X162224000Y-63350000D01*
X162264000Y-58637000D02*
X162264000Y-59945000D01*
X162264000Y-62025000D02*
X162264000Y-63333000D01*
X162304000Y-58656000D02*
X162304000Y-59945000D01*
X162304000Y-62025000D02*
X162304000Y-63314000D01*
X162344000Y-58675000D02*
X162344000Y-59945000D01*
X162344000Y-62025000D02*
X162344000Y-63295000D01*
X162384000Y-58695000D02*
X162384000Y-59945000D01*
X162384000Y-62025000D02*
X162384000Y-63275000D01*
X162424000Y-58717000D02*
X162424000Y-59945000D01*
X162424000Y-62025000D02*
X162424000Y-63253000D01*
X162464000Y-58738000D02*
X162464000Y-59945000D01*
X162464000Y-62025000D02*
X162464000Y-63232000D01*
X162504000Y-58761000D02*
X162504000Y-59945000D01*
X162504000Y-62025000D02*
X162504000Y-63209000D01*
X162544000Y-58785000D02*
X162544000Y-59945000D01*
X162544000Y-62025000D02*
X162544000Y-63185000D01*
X162584000Y-58810000D02*
X162584000Y-59945000D01*
X162584000Y-62025000D02*
X162584000Y-63160000D01*
X162624000Y-58836000D02*
X162624000Y-59945000D01*
X162624000Y-62025000D02*
X162624000Y-63134000D01*
X162664000Y-58863000D02*
X162664000Y-59945000D01*
X162664000Y-62025000D02*
X162664000Y-63107000D01*
X162704000Y-58890000D02*
X162704000Y-59945000D01*
X162704000Y-62025000D02*
X162704000Y-63080000D01*
X162744000Y-58920000D02*
X162744000Y-59945000D01*
X162744000Y-62025000D02*
X162744000Y-63050000D01*
X162784000Y-58950000D02*
X162784000Y-59945000D01*
X162784000Y-62025000D02*
X162784000Y-63020000D01*
X162824000Y-58981000D02*
X162824000Y-59945000D01*
X162824000Y-62025000D02*
X162824000Y-62989000D01*
X162864000Y-59014000D02*
X162864000Y-59945000D01*
X162864000Y-62025000D02*
X162864000Y-62956000D01*
X162904000Y-59048000D02*
X162904000Y-59945000D01*
X162904000Y-62025000D02*
X162904000Y-62922000D01*
X162944000Y-59084000D02*
X162944000Y-59945000D01*
X162944000Y-62025000D02*
X162944000Y-62886000D01*
X162984000Y-59121000D02*
X162984000Y-59945000D01*
X162984000Y-62025000D02*
X162984000Y-62849000D01*
X163024000Y-59159000D02*
X163024000Y-59945000D01*
X163024000Y-62025000D02*
X163024000Y-62811000D01*
X163064000Y-59200000D02*
X163064000Y-59945000D01*
X163064000Y-62025000D02*
X163064000Y-62770000D01*
X163104000Y-59242000D02*
X163104000Y-59945000D01*
X163104000Y-62025000D02*
X163104000Y-62728000D01*
X163144000Y-59286000D02*
X163144000Y-59945000D01*
X163144000Y-62025000D02*
X163144000Y-62684000D01*
X163184000Y-59332000D02*
X163184000Y-59945000D01*
X163184000Y-62025000D02*
X163184000Y-62638000D01*
X163224000Y-59380000D02*
X163224000Y-59945000D01*
X163224000Y-62025000D02*
X163224000Y-62590000D01*
X163264000Y-59431000D02*
X163264000Y-59945000D01*
X163264000Y-62025000D02*
X163264000Y-62539000D01*
X163304000Y-59485000D02*
X163304000Y-59945000D01*
X163304000Y-62025000D02*
X163304000Y-62485000D01*
X163344000Y-59542000D02*
X163344000Y-59945000D01*
X163344000Y-62025000D02*
X163344000Y-62428000D01*
X163384000Y-59602000D02*
X163384000Y-59945000D01*
X163384000Y-62025000D02*
X163384000Y-62368000D01*
X163424000Y-59666000D02*
X163424000Y-59945000D01*
X163424000Y-62025000D02*
X163424000Y-62304000D01*
X163464000Y-59734000D02*
X163464000Y-59945000D01*
X163464000Y-62025000D02*
X163464000Y-62236000D01*
X163504000Y-59807000D02*
X163504000Y-62163000D01*
X163544000Y-59887000D02*
X163544000Y-62083000D01*
X163584000Y-59974000D02*
X163584000Y-61996000D01*
X163624000Y-60070000D02*
X163624000Y-61900000D01*
X163664000Y-60180000D02*
X163664000Y-61790000D01*
X163704000Y-60308000D02*
X163704000Y-61662000D01*
X163744000Y-60467000D02*
X163744000Y-61503000D01*
X163784000Y-60701000D02*
X163784000Y-61269000D01*
X163803000Y-60985000D02*
G75*
G03*
X163803000Y-60985000I-2620000J0D01*
G01*
%TO.C,L2*%
X162052000Y-92737000D02*
X162052000Y-92667000D01*
X163422000Y-94107000D02*
G75*
G03*
X163422000Y-94107000I-1370000J0D01*
G01*
%TD*%
M02*
