%TF.GenerationSoftware,KiCad,Pcbnew,7.0.7*%
%TF.CreationDate,2024-03-21T17:46:42+00:00*%
%TF.ProjectId,BT401_Digimodes,42543430-315f-4446-9967-696d6f646573,rev?*%
%TF.SameCoordinates,Original*%
%TF.FileFunction,Copper,L1,Top*%
%TF.FilePolarity,Positive*%
%FSLAX46Y46*%
G04 Gerber Fmt 4.6, Leading zero omitted, Abs format (unit mm)*
G04 Created by KiCad (PCBNEW 7.0.7) date 2024-03-21 17:46:42*
%MOMM*%
%LPD*%
G01*
G04 APERTURE LIST*
G04 Aperture macros list*
%AMRoundRect*
0 Rectangle with rounded corners*
0 $1 Rounding radius*
0 $2 $3 $4 $5 $6 $7 $8 $9 X,Y pos of 4 corners*
0 Add a 4 corners polygon primitive as box body*
4,1,4,$2,$3,$4,$5,$6,$7,$8,$9,$2,$3,0*
0 Add four circle primitives for the rounded corners*
1,1,$1+$1,$2,$3*
1,1,$1+$1,$4,$5*
1,1,$1+$1,$6,$7*
1,1,$1+$1,$8,$9*
0 Add four rect primitives between the rounded corners*
20,1,$1+$1,$2,$3,$4,$5,0*
20,1,$1+$1,$4,$5,$6,$7,0*
20,1,$1+$1,$6,$7,$8,$9,0*
20,1,$1+$1,$8,$9,$2,$3,0*%
G04 Aperture macros list end*
%TA.AperFunction,ComponentPad*%
%ADD10C,5.500000*%
%TD*%
%TA.AperFunction,SMDPad,CuDef*%
%ADD11RoundRect,0.250000X0.250000X0.475000X-0.250000X0.475000X-0.250000X-0.475000X0.250000X-0.475000X0*%
%TD*%
%TA.AperFunction,ComponentPad*%
%ADD12R,1.600000X1.600000*%
%TD*%
%TA.AperFunction,ComponentPad*%
%ADD13C,1.600000*%
%TD*%
%TA.AperFunction,ComponentPad*%
%ADD14R,1.700000X1.700000*%
%TD*%
%TA.AperFunction,ComponentPad*%
%ADD15O,1.700000X1.700000*%
%TD*%
%TA.AperFunction,SMDPad,CuDef*%
%ADD16RoundRect,0.250000X0.475000X-0.250000X0.475000X0.250000X-0.475000X0.250000X-0.475000X-0.250000X0*%
%TD*%
%TA.AperFunction,ComponentPad*%
%ADD17C,1.440000*%
%TD*%
%TA.AperFunction,SMDPad,CuDef*%
%ADD18R,1.500000X2.000000*%
%TD*%
%TA.AperFunction,SMDPad,CuDef*%
%ADD19R,3.800000X2.000000*%
%TD*%
%TA.AperFunction,ComponentPad*%
%ADD20O,1.600000X1.600000*%
%TD*%
%TA.AperFunction,SMDPad,CuDef*%
%ADD21R,3.000000X0.800000*%
%TD*%
%TA.AperFunction,ViaPad*%
%ADD22C,0.800000*%
%TD*%
%TA.AperFunction,Conductor*%
%ADD23C,0.500000*%
%TD*%
%TA.AperFunction,Conductor*%
%ADD24C,0.250000*%
%TD*%
G04 APERTURE END LIST*
D10*
%TO.P,,3*%
%TO.N,N/C*%
X130657600Y-97840800D03*
%TD*%
D11*
%TO.P,C2,1*%
%TO.N,Net-(BT1-DACR)*%
X143952000Y-82042000D03*
%TO.P,C2,2*%
%TO.N,Net-(C2-Pad2)*%
X142052000Y-82042000D03*
%TD*%
D12*
%TO.P,C5,1*%
%TO.N,+5V*%
X144272000Y-63231000D03*
D13*
%TO.P,C5,2*%
%TO.N,GND*%
X144272000Y-60731000D03*
%TD*%
D10*
%TO.P,REF\u002A\u002A,2*%
%TO.N,N/C*%
X167386000Y-97917000D03*
%TD*%
D14*
%TO.P,J1,1,Pin_1*%
%TO.N,TRX Data Out*%
X136271000Y-98044000D03*
D15*
%TO.P,J1,2,Pin_2*%
%TO.N,TRX Data In*%
X138811000Y-98044000D03*
%TO.P,J1,3,Pin_3*%
%TO.N,TRX Data Gnd*%
X141351000Y-98044000D03*
%TO.P,J1,4,Pin_4*%
%TO.N,GND*%
X143891000Y-98044000D03*
%TO.P,J1,5,Pin_5*%
%TO.N,TRX CAT RX*%
X146431000Y-98044000D03*
%TO.P,J1,6,Pin_6*%
%TO.N,TRX CAT TX*%
X148971000Y-98044000D03*
%TD*%
D11*
%TO.P,C3,1*%
%TO.N,Net-(BT1-DACL)*%
X144018000Y-84455000D03*
%TO.P,C3,2*%
%TO.N,Net-(C2-Pad2)*%
X142118000Y-84455000D03*
%TD*%
D16*
%TO.P,C1,1*%
%TO.N,TRX Data Out*%
X131064000Y-80833000D03*
%TO.P,C1,2*%
%TO.N,Net-(C1-Pad2)*%
X131064000Y-78933000D03*
%TD*%
D17*
%TO.P,RV1,1,1*%
%TO.N,Net-(BT1-PA0)*%
X139065000Y-75057000D03*
%TO.P,RV1,2,2*%
%TO.N,Net-(C1-Pad2)*%
X136525000Y-75057000D03*
%TO.P,RV1,3,3*%
%TO.N,TRX Data Gnd*%
X133985000Y-75057000D03*
%TD*%
D18*
%TO.P,U1,1,GND*%
%TO.N,GND*%
X150481000Y-60935000D03*
%TO.P,U1,2,VO*%
%TO.N,+5V*%
X152781000Y-60935000D03*
D19*
X152781000Y-54635000D03*
D18*
%TO.P,U1,3,VI*%
%TO.N,+12V*%
X155081000Y-60935000D03*
%TD*%
D14*
%TO.P,J2,1,Pin_1*%
%TO.N,+12V*%
X161544000Y-54737000D03*
D15*
%TO.P,J2,2,Pin_2*%
%TO.N,GND*%
X164084000Y-54737000D03*
%TD*%
D17*
%TO.P,RV2,1,1*%
%TO.N,Net-(C2-Pad2)*%
X136525000Y-82042000D03*
%TO.P,RV2,2,2*%
%TO.N,TRX Data In*%
X136525000Y-84582000D03*
%TO.P,RV2,3,3*%
%TO.N,TRX Data Gnd*%
X136525000Y-87122000D03*
%TD*%
D13*
%TO.P,L1,1*%
%TO.N,TRX CAT RX*%
X156591000Y-94107000D03*
D20*
%TO.P,L1,2*%
%TO.N,Net-(BT1-TX)*%
X156591000Y-91567000D03*
%TD*%
D12*
%TO.P,C4,1*%
%TO.N,+12V*%
X159933000Y-60985000D03*
D13*
%TO.P,C4,2*%
%TO.N,GND*%
X162433000Y-60985000D03*
%TD*%
%TO.P,L2,1*%
%TO.N,TRX CAT TX*%
X162052000Y-94107000D03*
D20*
%TO.P,L2,2*%
%TO.N,Net-(BT1-RX)*%
X162052000Y-91567000D03*
%TD*%
D21*
%TO.P,BT1,1,PA3*%
%TO.N,unconnected-(BT1-PA3-Pad1)*%
X151892000Y-72898000D03*
%TO.P,BT1,2,PA4*%
%TO.N,unconnected-(BT1-PA4-Pad2)*%
X151892000Y-74168000D03*
%TO.P,BT1,3,PA5*%
%TO.N,unconnected-(BT1-PA5-Pad3)*%
X151892000Y-75438000D03*
%TO.P,BT1,4,DM*%
%TO.N,unconnected-(BT1-DM-Pad4)*%
X151892000Y-76708000D03*
%TO.P,BT1,5,DP*%
%TO.N,unconnected-(BT1-DP-Pad5)*%
X151892000Y-77978000D03*
%TO.P,BT1,6,3v3*%
%TO.N,unconnected-(BT1-3v3-Pad6)*%
X151892000Y-79248000D03*
%TO.P,BT1,7,DVDD*%
%TO.N,unconnected-(BT1-DVDD-Pad7)*%
X151892000Y-80518000D03*
%TO.P,BT1,8,PA0*%
%TO.N,Net-(BT1-PA0)*%
X151892000Y-81788000D03*
%TO.P,BT1,9,DACR*%
%TO.N,Net-(BT1-DACR)*%
X151892000Y-83058000D03*
%TO.P,BT1,10,DACL*%
%TO.N,Net-(BT1-DACL)*%
X151892000Y-84328000D03*
%TO.P,BT1,11,SGND*%
%TO.N,TRX Data Gnd*%
X151892000Y-85598000D03*
%TO.P,BT1,12,GND*%
%TO.N,unconnected-(BT1-GND-Pad12)*%
X151892000Y-86868000D03*
%TO.P,BT1,13,5.0V*%
%TO.N,unconnected-(BT1-5.0V-Pad13)*%
X151892000Y-88138000D03*
%TO.P,BT1,14,PC1*%
%TO.N,unconnected-(BT1-PC1-Pad14)*%
X167392000Y-88138000D03*
%TO.P,BT1,15,PC3*%
%TO.N,unconnected-(BT1-PC3-Pad15)*%
X167392000Y-86868000D03*
%TO.P,BT1,16,PC4*%
%TO.N,unconnected-(BT1-PC4-Pad16)*%
X167392000Y-85598000D03*
%TO.P,BT1,17,PC5*%
%TO.N,unconnected-(BT1-PC5-Pad17)*%
X167392000Y-84328000D03*
%TO.P,BT1,18,PR2*%
%TO.N,unconnected-(BT1-PR2-Pad18)*%
X167392000Y-83058000D03*
%TO.P,BT1,19,PR1*%
%TO.N,unconnected-(BT1-PR1-Pad19)*%
X167392000Y-81788000D03*
%TO.P,BT1,20,PB6*%
%TO.N,unconnected-(BT1-PB6-Pad20)*%
X167392000Y-80518000D03*
%TO.P,BT1,21,PB5*%
%TO.N,unconnected-(BT1-PB5-Pad21)*%
X167392000Y-79248000D03*
%TO.P,BT1,22,PB4*%
%TO.N,unconnected-(BT1-PB4-Pad22)*%
X167392000Y-77978000D03*
%TO.P,BT1,23,PB3*%
%TO.N,unconnected-(BT1-PB3-Pad23)*%
X167392000Y-76708000D03*
%TO.P,BT1,24,PB2*%
%TO.N,unconnected-(BT1-PB2-Pad24)*%
X167392000Y-75438000D03*
%TO.P,BT1,25,PB1*%
%TO.N,unconnected-(BT1-PB1-Pad25)*%
X167392000Y-74168000D03*
%TO.P,BT1,26,PB0*%
%TO.N,unconnected-(BT1-PB0-Pad26)*%
X167392000Y-72898000D03*
%TO.P,BT1,27,BTANT-*%
%TO.N,unconnected-(BT1-BTANT--Pad27)*%
X167386000Y-71574000D03*
%TO.P,BT1,28,BTANT+*%
%TO.N,unconnected-(BT1-BTANT+-Pad28)*%
X167386000Y-67056000D03*
D13*
%TO.P,BT1,29,GND*%
%TO.N,GND*%
X156210000Y-88138000D03*
%TO.P,BT1,30,TX*%
%TO.N,Net-(BT1-TX)*%
X158750000Y-88138000D03*
%TO.P,BT1,31,RX*%
%TO.N,Net-(BT1-RX)*%
X161290000Y-88138000D03*
%TO.P,BT1,32,5.0V*%
%TO.N,+5V*%
X163830000Y-88138000D03*
%TD*%
D10*
%TO.P,REF\u002A\u002A,1*%
%TO.N,N/C*%
X130683000Y-55626000D03*
%TD*%
D22*
%TO.N,GND*%
X146177000Y-73787000D03*
X155067000Y-76962000D03*
X137160000Y-89916000D03*
X159893000Y-93091000D03*
X142621000Y-89154000D03*
X139573000Y-79248000D03*
%TD*%
D23*
%TO.N,Net-(BT1-PA0)*%
X148898000Y-81842000D02*
X142113000Y-75057000D01*
X151892000Y-81842000D02*
X148898000Y-81842000D01*
X142113000Y-75057000D02*
X139065000Y-75057000D01*
%TO.N,Net-(BT1-DACR)*%
X145542000Y-82042000D02*
X143952000Y-82042000D01*
X151892000Y-83112000D02*
X146612000Y-83112000D01*
X146612000Y-83112000D02*
X145542000Y-82042000D01*
%TO.N,Net-(BT1-DACL)*%
X144091000Y-84382000D02*
X151892000Y-84382000D01*
D24*
X144018000Y-84455000D02*
X144091000Y-84382000D01*
D23*
%TO.N,TRX Data Gnd*%
X137287000Y-70358000D02*
X133985000Y-73660000D01*
X156464000Y-71374000D02*
X155448000Y-70358000D01*
X150142000Y-85652000D02*
X155394000Y-85652000D01*
X136525000Y-87122000D02*
X141351000Y-91948000D01*
X155394000Y-85652000D02*
X156464000Y-84582000D01*
X141351000Y-98044000D02*
X141351000Y-94443000D01*
X156464000Y-84582000D02*
X156464000Y-71374000D01*
X155448000Y-70358000D02*
X137287000Y-70358000D01*
X133985000Y-73660000D02*
X133985000Y-75057000D01*
X141351000Y-94443000D02*
X150142000Y-85652000D01*
X141351000Y-91948000D02*
X141351000Y-94443000D01*
%TO.N,Net-(BT1-TX)*%
X156591000Y-91567000D02*
X158750000Y-89408000D01*
X158750000Y-89408000D02*
X158750000Y-88192000D01*
%TO.N,Net-(BT1-RX)*%
X162052000Y-91567000D02*
X161290000Y-90805000D01*
X161290000Y-90805000D02*
X161290000Y-88192000D01*
%TO.N,+5V*%
X163830000Y-88192000D02*
X163830000Y-73406000D01*
X163830000Y-73406000D02*
X152781000Y-62357000D01*
X144272000Y-63231000D02*
X152440000Y-63231000D01*
X152440000Y-63231000D02*
X152781000Y-62890000D01*
X152781000Y-62357000D02*
X152781000Y-60935000D01*
X152781000Y-60935000D02*
X152781000Y-62890000D01*
%TO.N,TRX Data Out*%
X136271000Y-98044000D02*
X136271000Y-93599000D01*
X131064000Y-88392000D02*
X131064000Y-80833000D01*
X136271000Y-93599000D02*
X131064000Y-88392000D01*
%TO.N,Net-(C1-Pad2)*%
X136525000Y-78232000D02*
X136525000Y-75057000D01*
X131064000Y-78933000D02*
X135824000Y-78933000D01*
X135824000Y-78933000D02*
X136525000Y-78232000D01*
%TO.N,Net-(C2-Pad2)*%
X136525000Y-82042000D02*
X142052000Y-82042000D01*
D24*
X142052000Y-82042000D02*
X142052000Y-84389000D01*
X142052000Y-84389000D02*
X142118000Y-84455000D01*
D23*
%TO.N,+12V*%
X159933000Y-60985000D02*
X159933000Y-56348000D01*
X159933000Y-56348000D02*
X161544000Y-54737000D01*
X159933000Y-60985000D02*
X155131000Y-60985000D01*
X155131000Y-60985000D02*
X155081000Y-60935000D01*
%TO.N,TRX Data In*%
X138811000Y-93481305D02*
X138811000Y-98044000D01*
X135382000Y-84582000D02*
X134747000Y-85217000D01*
X134747000Y-89417305D02*
X138811000Y-93481305D01*
X134747000Y-85217000D02*
X134747000Y-89417305D01*
X136525000Y-84582000D02*
X135382000Y-84582000D01*
%TO.N,TRX CAT RX*%
X146431000Y-95377000D02*
X147701000Y-94107000D01*
X146431000Y-98044000D02*
X146431000Y-95377000D01*
X147701000Y-94107000D02*
X156591000Y-94107000D01*
%TO.N,TRX CAT TX*%
X160655000Y-98044000D02*
X162052000Y-96647000D01*
X162052000Y-96647000D02*
X162052000Y-94107000D01*
X148971000Y-98044000D02*
X160655000Y-98044000D01*
%TD*%
%TA.AperFunction,Conductor*%
%TO.N,GND*%
G36*
X160087518Y-88653572D02*
G01*
X160109724Y-88684137D01*
X160159426Y-88790723D01*
X160159434Y-88790737D01*
X160289946Y-88977130D01*
X160289947Y-88977132D01*
X160289950Y-88977135D01*
X160289953Y-88977139D01*
X160450861Y-89138047D01*
X160497284Y-89170552D01*
X160534106Y-89219416D01*
X160539500Y-89251648D01*
X160539500Y-90743115D01*
X160538455Y-90757461D01*
X160534711Y-90783023D01*
X160539312Y-90835624D01*
X160539500Y-90839923D01*
X160539500Y-90848707D01*
X160543306Y-90881275D01*
X160550000Y-90957796D01*
X160550299Y-90958697D01*
X160554649Y-90978316D01*
X160554758Y-90979253D01*
X160581025Y-91051423D01*
X160605186Y-91124335D01*
X160605682Y-91125139D01*
X160614437Y-91143222D01*
X160614763Y-91144117D01*
X160656965Y-91208283D01*
X160697288Y-91273656D01*
X160697293Y-91273661D01*
X160697957Y-91274326D01*
X160710654Y-91289913D01*
X160711167Y-91290694D01*
X160711170Y-91290696D01*
X160731302Y-91309690D01*
X160760654Y-91363375D01*
X160761988Y-91390328D01*
X160746532Y-91566996D01*
X160746532Y-91567003D01*
X160766363Y-91793684D01*
X160825262Y-92013500D01*
X160921426Y-92219723D01*
X160921434Y-92219737D01*
X161051946Y-92406130D01*
X161051947Y-92406132D01*
X161051950Y-92406135D01*
X161051953Y-92406139D01*
X161212861Y-92567047D01*
X161212864Y-92567049D01*
X161212867Y-92567052D01*
X161212869Y-92567053D01*
X161304385Y-92631132D01*
X161399266Y-92697568D01*
X161399267Y-92697568D01*
X161399271Y-92697571D01*
X161505863Y-92747276D01*
X161550611Y-92789004D01*
X161562285Y-92849065D01*
X161536427Y-92904518D01*
X161505863Y-92926724D01*
X161399271Y-92976428D01*
X161399262Y-92976434D01*
X161212869Y-93106946D01*
X161212867Y-93106947D01*
X161051947Y-93267867D01*
X161051946Y-93267869D01*
X160921434Y-93454262D01*
X160921426Y-93454276D01*
X160825262Y-93660499D01*
X160766363Y-93880315D01*
X160746532Y-94106996D01*
X160746532Y-94107003D01*
X160766363Y-94333684D01*
X160766364Y-94333691D01*
X160766365Y-94333692D01*
X160775109Y-94366324D01*
X160825262Y-94553500D01*
X160921426Y-94759723D01*
X160921434Y-94759737D01*
X161051946Y-94946130D01*
X161051947Y-94946132D01*
X161051950Y-94946135D01*
X161051953Y-94946139D01*
X161212861Y-95107047D01*
X161259284Y-95139552D01*
X161296106Y-95188416D01*
X161301500Y-95220648D01*
X161301500Y-96295123D01*
X161282593Y-96353314D01*
X161272504Y-96365127D01*
X160373128Y-97264504D01*
X160318611Y-97292281D01*
X160303124Y-97293500D01*
X150145686Y-97293500D01*
X150087495Y-97274593D01*
X150064591Y-97251285D01*
X150009495Y-97172599D01*
X149842401Y-97005505D01*
X149842397Y-97005502D01*
X149842396Y-97005501D01*
X149699489Y-96905437D01*
X149648830Y-96869965D01*
X149434663Y-96770097D01*
X149206408Y-96708937D01*
X149206407Y-96708936D01*
X149206400Y-96708935D01*
X148971004Y-96688341D01*
X148970996Y-96688341D01*
X148735599Y-96708935D01*
X148507332Y-96770098D01*
X148293181Y-96869959D01*
X148293173Y-96869963D01*
X148099603Y-97005501D01*
X147932501Y-97172603D01*
X147796963Y-97366173D01*
X147790724Y-97379554D01*
X147748995Y-97424301D01*
X147688933Y-97435975D01*
X147633481Y-97410116D01*
X147611276Y-97379554D01*
X147605036Y-97366173D01*
X147469498Y-97172603D01*
X147469497Y-97172602D01*
X147469495Y-97172599D01*
X147302401Y-97005505D01*
X147225517Y-96951670D01*
X147223715Y-96950408D01*
X147186893Y-96901543D01*
X147181500Y-96869312D01*
X147181500Y-95728875D01*
X147200407Y-95670684D01*
X147210496Y-95658871D01*
X147982871Y-94886496D01*
X148037388Y-94858719D01*
X148052875Y-94857500D01*
X155477352Y-94857500D01*
X155535543Y-94876407D01*
X155558446Y-94899714D01*
X155590953Y-94946139D01*
X155751861Y-95107047D01*
X155751864Y-95107049D01*
X155751867Y-95107052D01*
X155751869Y-95107053D01*
X155797956Y-95139323D01*
X155938266Y-95237568D01*
X155938272Y-95237571D01*
X155938276Y-95237573D01*
X156144500Y-95333737D01*
X156144504Y-95333739D01*
X156364308Y-95392635D01*
X156364312Y-95392635D01*
X156364315Y-95392636D01*
X156590997Y-95412468D01*
X156591000Y-95412468D01*
X156591003Y-95412468D01*
X156817684Y-95392636D01*
X156817685Y-95392635D01*
X156817692Y-95392635D01*
X157037496Y-95333739D01*
X157243734Y-95237568D01*
X157430139Y-95107047D01*
X157591047Y-94946139D01*
X157721568Y-94759734D01*
X157817739Y-94553496D01*
X157876635Y-94333692D01*
X157896468Y-94107000D01*
X157881454Y-93935388D01*
X157876636Y-93880315D01*
X157876635Y-93880312D01*
X157876635Y-93880308D01*
X157817739Y-93660504D01*
X157799306Y-93620974D01*
X157721573Y-93454276D01*
X157721571Y-93454272D01*
X157721568Y-93454266D01*
X157660465Y-93367001D01*
X157591053Y-93267869D01*
X157591052Y-93267867D01*
X157591048Y-93267863D01*
X157591047Y-93267861D01*
X157430139Y-93106953D01*
X157430135Y-93106950D01*
X157430132Y-93106947D01*
X157430130Y-93106946D01*
X157243737Y-92976434D01*
X157243736Y-92976433D01*
X157243734Y-92976432D01*
X157243731Y-92976430D01*
X157243723Y-92976426D01*
X157137137Y-92926724D01*
X157092389Y-92884996D01*
X157080714Y-92824935D01*
X157106572Y-92769482D01*
X157137137Y-92747276D01*
X157243723Y-92697573D01*
X157243721Y-92697573D01*
X157243734Y-92697568D01*
X157430139Y-92567047D01*
X157591047Y-92406139D01*
X157721568Y-92219734D01*
X157817739Y-92013496D01*
X157876635Y-91793692D01*
X157878381Y-91773743D01*
X157896468Y-91567002D01*
X157896468Y-91566999D01*
X157888741Y-91478684D01*
X157880853Y-91388525D01*
X157894616Y-91328910D01*
X157909468Y-91309898D01*
X159236937Y-89982429D01*
X159247816Y-89973030D01*
X159268530Y-89957610D01*
X159302464Y-89917167D01*
X159305364Y-89914002D01*
X159311591Y-89907777D01*
X159322663Y-89893774D01*
X159331940Y-89882040D01*
X159381302Y-89823214D01*
X159381716Y-89822389D01*
X159392537Y-89805401D01*
X159393111Y-89804677D01*
X159425575Y-89735057D01*
X159460040Y-89666433D01*
X159460251Y-89665543D01*
X159466866Y-89646510D01*
X159467257Y-89645673D01*
X159482788Y-89570449D01*
X159482871Y-89570101D01*
X159500500Y-89495721D01*
X159500500Y-89494786D01*
X159502546Y-89474765D01*
X159502733Y-89473857D01*
X159500500Y-89397102D01*
X159500500Y-89251648D01*
X159519407Y-89193457D01*
X159542714Y-89170553D01*
X159589139Y-89138047D01*
X159750047Y-88977139D01*
X159880568Y-88790734D01*
X159908369Y-88731115D01*
X159930276Y-88684137D01*
X159972004Y-88639389D01*
X160032065Y-88627714D01*
X160087518Y-88653572D01*
G37*
%TD.AperFunction*%
%TA.AperFunction,Conductor*%
G36*
X135666501Y-87989549D02*
G01*
X135737481Y-88060529D01*
X135912419Y-88183021D01*
X135912420Y-88183021D01*
X135912421Y-88183022D01*
X135912429Y-88183026D01*
X136105966Y-88273274D01*
X136105970Y-88273276D01*
X136312253Y-88328549D01*
X136312257Y-88328549D01*
X136312260Y-88328550D01*
X136524997Y-88347162D01*
X136525000Y-88347162D01*
X136525001Y-88347162D01*
X136533227Y-88346442D01*
X136629627Y-88338007D01*
X136689241Y-88351770D01*
X136708258Y-88366626D01*
X140571504Y-92229871D01*
X140599281Y-92284388D01*
X140600500Y-92299875D01*
X140600500Y-94356209D01*
X140598455Y-94376226D01*
X140598265Y-94377142D01*
X140600500Y-94453916D01*
X140600500Y-96869312D01*
X140581593Y-96927503D01*
X140558285Y-96950408D01*
X140479601Y-97005503D01*
X140312501Y-97172603D01*
X140176963Y-97366173D01*
X140176961Y-97366176D01*
X140170721Y-97379558D01*
X140128990Y-97424303D01*
X140068928Y-97435974D01*
X140013477Y-97410113D01*
X139991273Y-97379549D01*
X139985153Y-97366424D01*
X139985035Y-97366171D01*
X139860164Y-97187836D01*
X139849498Y-97172603D01*
X139849497Y-97172602D01*
X139849495Y-97172599D01*
X139682401Y-97005505D01*
X139605517Y-96951670D01*
X139603715Y-96950408D01*
X139566893Y-96901543D01*
X139561500Y-96869312D01*
X139561500Y-93543189D01*
X139562545Y-93528842D01*
X139563532Y-93522101D01*
X139566289Y-93503282D01*
X139561687Y-93450681D01*
X139561500Y-93446380D01*
X139561500Y-93437603D01*
X139561500Y-93437596D01*
X139557693Y-93405029D01*
X139550999Y-93328508D01*
X139550704Y-93327620D01*
X139546349Y-93307977D01*
X139546241Y-93307050D01*
X139519974Y-93234881D01*
X139495814Y-93161971D01*
X139495327Y-93161181D01*
X139486554Y-93143059D01*
X139486237Y-93142188D01*
X139444028Y-93078013D01*
X139403712Y-93012650D01*
X139403045Y-93011983D01*
X139390335Y-92996377D01*
X139389830Y-92995609D01*
X139389829Y-92995608D01*
X139333964Y-92942902D01*
X135526496Y-89135433D01*
X135498719Y-89080916D01*
X135497500Y-89065429D01*
X135497500Y-88059555D01*
X135516407Y-88001364D01*
X135565907Y-87965400D01*
X135627093Y-87965400D01*
X135666501Y-87989549D01*
G37*
%TD.AperFunction*%
%TA.AperFunction,Conductor*%
G36*
X137848919Y-75332422D02*
G01*
X137887424Y-75379972D01*
X137890623Y-75389817D01*
X137911273Y-75466882D01*
X137913725Y-75476034D01*
X138003973Y-75669570D01*
X138003977Y-75669578D01*
X138125002Y-75842422D01*
X138126471Y-75844519D01*
X138277481Y-75995529D01*
X138277484Y-75995531D01*
X138277485Y-75995532D01*
X138280473Y-75997624D01*
X138452419Y-76118021D01*
X138452420Y-76118021D01*
X138452421Y-76118022D01*
X138452429Y-76118026D01*
X138645966Y-76208274D01*
X138645970Y-76208276D01*
X138852253Y-76263549D01*
X138852257Y-76263549D01*
X138852260Y-76263550D01*
X139064997Y-76282162D01*
X139065000Y-76282162D01*
X139065003Y-76282162D01*
X139277739Y-76263550D01*
X139277740Y-76263549D01*
X139277747Y-76263549D01*
X139484030Y-76208276D01*
X139677581Y-76118021D01*
X139852519Y-75995529D01*
X140003529Y-75844519D01*
X140003535Y-75844511D01*
X140004918Y-75842864D01*
X140005624Y-75842422D01*
X140006585Y-75841462D01*
X140006806Y-75841683D01*
X140056806Y-75810441D01*
X140080756Y-75807500D01*
X141761124Y-75807500D01*
X141819315Y-75826407D01*
X141831128Y-75836496D01*
X148187128Y-82192496D01*
X148214905Y-82247013D01*
X148205334Y-82307445D01*
X148162069Y-82350710D01*
X148117124Y-82361500D01*
X146963875Y-82361500D01*
X146905684Y-82342593D01*
X146893871Y-82332504D01*
X146116437Y-81555069D01*
X146107031Y-81544183D01*
X146091614Y-81523474D01*
X146091609Y-81523469D01*
X146082733Y-81516021D01*
X146051176Y-81489542D01*
X146047999Y-81486630D01*
X146041774Y-81480406D01*
X146016041Y-81460059D01*
X145957215Y-81410698D01*
X145957206Y-81410692D01*
X145956365Y-81410270D01*
X145939417Y-81399473D01*
X145938682Y-81398892D01*
X145938670Y-81398885D01*
X145869057Y-81366424D01*
X145800434Y-81331960D01*
X145800426Y-81331958D01*
X145799523Y-81331744D01*
X145780525Y-81325140D01*
X145779677Y-81324744D01*
X145779670Y-81324742D01*
X145704435Y-81309207D01*
X145679529Y-81303304D01*
X145629721Y-81291500D01*
X145629719Y-81291500D01*
X145628791Y-81291500D01*
X145608771Y-81289455D01*
X145607854Y-81289265D01*
X145531083Y-81291500D01*
X144969105Y-81291500D01*
X144910914Y-81272593D01*
X144884844Y-81244472D01*
X144794714Y-81098347D01*
X144794713Y-81098346D01*
X144794712Y-81098344D01*
X144670656Y-80974288D01*
X144670653Y-80974286D01*
X144670652Y-80974285D01*
X144521336Y-80882187D01*
X144521335Y-80882186D01*
X144521334Y-80882186D01*
X144354797Y-80827001D01*
X144354794Y-80827000D01*
X144252016Y-80816500D01*
X143651983Y-80816500D01*
X143549211Y-80826999D01*
X143549199Y-80827002D01*
X143382663Y-80882187D01*
X143233347Y-80974285D01*
X143109287Y-81098345D01*
X143086261Y-81135677D01*
X143039619Y-81175278D01*
X142978609Y-81179901D01*
X142926533Y-81147780D01*
X142917739Y-81135677D01*
X142907084Y-81118403D01*
X142894712Y-81098344D01*
X142770656Y-80974288D01*
X142770653Y-80974286D01*
X142770652Y-80974285D01*
X142621336Y-80882187D01*
X142621335Y-80882186D01*
X142621334Y-80882186D01*
X142454797Y-80827001D01*
X142454794Y-80827000D01*
X142352016Y-80816500D01*
X141751983Y-80816500D01*
X141649211Y-80826999D01*
X141649199Y-80827002D01*
X141482663Y-80882187D01*
X141333347Y-80974285D01*
X141209285Y-81098347D01*
X141119156Y-81244472D01*
X141072515Y-81284074D01*
X141034895Y-81291500D01*
X137540756Y-81291500D01*
X137482565Y-81272593D01*
X137464918Y-81256136D01*
X137463535Y-81254488D01*
X137463531Y-81254484D01*
X137463529Y-81254481D01*
X137312519Y-81103471D01*
X137312515Y-81103468D01*
X137312514Y-81103467D01*
X137137578Y-80980977D01*
X137137570Y-80980973D01*
X136944033Y-80890725D01*
X136944034Y-80890725D01*
X136875269Y-80872299D01*
X136737747Y-80835451D01*
X136737746Y-80835450D01*
X136737739Y-80835449D01*
X136525003Y-80816838D01*
X136524997Y-80816838D01*
X136312260Y-80835449D01*
X136105965Y-80890725D01*
X135912429Y-80980973D01*
X135912421Y-80980977D01*
X135737485Y-81103467D01*
X135586467Y-81254485D01*
X135463977Y-81429421D01*
X135463973Y-81429429D01*
X135373725Y-81622965D01*
X135318449Y-81829260D01*
X135299838Y-82041996D01*
X135299838Y-82042003D01*
X135318449Y-82254739D01*
X135318450Y-82254746D01*
X135318451Y-82254747D01*
X135329366Y-82295483D01*
X135373725Y-82461034D01*
X135463973Y-82654570D01*
X135463977Y-82654578D01*
X135585002Y-82827422D01*
X135586471Y-82829519D01*
X135737481Y-82980529D01*
X135912419Y-83103021D01*
X135912420Y-83103021D01*
X135912421Y-83103022D01*
X135912429Y-83103026D01*
X136000049Y-83143884D01*
X136087349Y-83184593D01*
X136105966Y-83193274D01*
X136105970Y-83193276D01*
X136192171Y-83216373D01*
X136243485Y-83249697D01*
X136265412Y-83306819D01*
X136249576Y-83365919D01*
X136202027Y-83404424D01*
X136192176Y-83407625D01*
X136121122Y-83426664D01*
X136105966Y-83430725D01*
X135912429Y-83520973D01*
X135912421Y-83520977D01*
X135737485Y-83643467D01*
X135586464Y-83794488D01*
X135585082Y-83796136D01*
X135584375Y-83796577D01*
X135583415Y-83797538D01*
X135583193Y-83797316D01*
X135533194Y-83828559D01*
X135509244Y-83831500D01*
X135443884Y-83831500D01*
X135429537Y-83830455D01*
X135428670Y-83830328D01*
X135403977Y-83826711D01*
X135403975Y-83826711D01*
X135403974Y-83826711D01*
X135403973Y-83826711D01*
X135387860Y-83828120D01*
X135351375Y-83831312D01*
X135347077Y-83831500D01*
X135338291Y-83831500D01*
X135305724Y-83835306D01*
X135229209Y-83842000D01*
X135229204Y-83842000D01*
X135229203Y-83842001D01*
X135229201Y-83842001D01*
X135229199Y-83842002D01*
X135228300Y-83842300D01*
X135208681Y-83846649D01*
X135207748Y-83846758D01*
X135207743Y-83846759D01*
X135135576Y-83873025D01*
X135062667Y-83897185D01*
X135062656Y-83897190D01*
X135061853Y-83897686D01*
X135043782Y-83906435D01*
X135042887Y-83906760D01*
X135042885Y-83906761D01*
X134978708Y-83948971D01*
X134913345Y-83989287D01*
X134913333Y-83989297D01*
X134912670Y-83989961D01*
X134897101Y-84002644D01*
X134896310Y-84003164D01*
X134896305Y-84003168D01*
X134843598Y-84059033D01*
X134260068Y-84642561D01*
X134249188Y-84651964D01*
X134228471Y-84667388D01*
X134228469Y-84667390D01*
X134194537Y-84707826D01*
X134191628Y-84711002D01*
X134185414Y-84717218D01*
X134185405Y-84717227D01*
X134165059Y-84742959D01*
X134115698Y-84801785D01*
X134115697Y-84801787D01*
X134115269Y-84802640D01*
X134104481Y-84819574D01*
X134103888Y-84820323D01*
X134071424Y-84889942D01*
X134036960Y-84958565D01*
X134036959Y-84958567D01*
X134036744Y-84959478D01*
X134030143Y-84978469D01*
X134029744Y-84979323D01*
X134029740Y-84979335D01*
X134014207Y-85054565D01*
X133996500Y-85129276D01*
X133996500Y-85130222D01*
X133994458Y-85150212D01*
X133994266Y-85151141D01*
X133994265Y-85151146D01*
X133996500Y-85227916D01*
X133996500Y-89355420D01*
X133995455Y-89369766D01*
X133991711Y-89395328D01*
X133996312Y-89447929D01*
X133996500Y-89452228D01*
X133996500Y-89461012D01*
X134000306Y-89493580D01*
X134007000Y-89570101D01*
X134007299Y-89571002D01*
X134011649Y-89590621D01*
X134011758Y-89591558D01*
X134038025Y-89663728D01*
X134062186Y-89736640D01*
X134062682Y-89737444D01*
X134071437Y-89755527D01*
X134071763Y-89756422D01*
X134113965Y-89820588D01*
X134154288Y-89885961D01*
X134154293Y-89885966D01*
X134154957Y-89886631D01*
X134167654Y-89902218D01*
X134168167Y-89902998D01*
X134168169Y-89903000D01*
X134168170Y-89903001D01*
X134224017Y-89955690D01*
X138031505Y-93763178D01*
X138059281Y-93817693D01*
X138060500Y-93833180D01*
X138060500Y-96869312D01*
X138041593Y-96927503D01*
X138018285Y-96950408D01*
X137939598Y-97005505D01*
X137785044Y-97160059D01*
X137730528Y-97187836D01*
X137670096Y-97178265D01*
X137626831Y-97135000D01*
X137616608Y-97100633D01*
X137615091Y-97086522D01*
X137615091Y-97086517D01*
X137615089Y-97086511D01*
X137564797Y-96951670D01*
X137478549Y-96836458D01*
X137478548Y-96836457D01*
X137478546Y-96836454D01*
X137478541Y-96836450D01*
X137363329Y-96750202D01*
X137228488Y-96699910D01*
X137228483Y-96699909D01*
X137228481Y-96699908D01*
X137228477Y-96699908D01*
X137197249Y-96696550D01*
X137168873Y-96693500D01*
X137168870Y-96693500D01*
X137120500Y-96693500D01*
X137062309Y-96674593D01*
X137026345Y-96625093D01*
X137021500Y-96594500D01*
X137021500Y-93660884D01*
X137022545Y-93646537D01*
X137022584Y-93646266D01*
X137026289Y-93620977D01*
X137021687Y-93568376D01*
X137021500Y-93564075D01*
X137021500Y-93555298D01*
X137021500Y-93555291D01*
X137017693Y-93522724D01*
X137010999Y-93446203D01*
X137010704Y-93445315D01*
X137006349Y-93425672D01*
X137006241Y-93424745D01*
X136979974Y-93352576D01*
X136955814Y-93279666D01*
X136955324Y-93278871D01*
X136946557Y-93260763D01*
X136946237Y-93259883D01*
X136946235Y-93259881D01*
X136946235Y-93259879D01*
X136904034Y-93195716D01*
X136883220Y-93161972D01*
X136863712Y-93130344D01*
X136863043Y-93129675D01*
X136850337Y-93114076D01*
X136849830Y-93113304D01*
X136843098Y-93106953D01*
X136793982Y-93060614D01*
X134461229Y-90727861D01*
X131843493Y-88110125D01*
X131815718Y-88055611D01*
X131814500Y-88040136D01*
X131814500Y-81850104D01*
X131833407Y-81791914D01*
X131861528Y-81765844D01*
X131878956Y-81755093D01*
X132007656Y-81675712D01*
X132131712Y-81551656D01*
X132223814Y-81402334D01*
X132278999Y-81235797D01*
X132289500Y-81133009D01*
X132289499Y-80532992D01*
X132289499Y-80532991D01*
X132289499Y-80532983D01*
X132279000Y-80430211D01*
X132278999Y-80430209D01*
X132278999Y-80430203D01*
X132223814Y-80263666D01*
X132131712Y-80114344D01*
X132007656Y-79990288D01*
X132007653Y-79990286D01*
X132007652Y-79990285D01*
X131970323Y-79967261D01*
X131930722Y-79920620D01*
X131926098Y-79859610D01*
X131958218Y-79807534D01*
X131970323Y-79798739D01*
X132007654Y-79775713D01*
X132007653Y-79775713D01*
X132007656Y-79775712D01*
X132039264Y-79744103D01*
X132070873Y-79712496D01*
X132125390Y-79684719D01*
X132140876Y-79683500D01*
X135762116Y-79683500D01*
X135776463Y-79684545D01*
X135802023Y-79688289D01*
X135854624Y-79683687D01*
X135858923Y-79683500D01*
X135867701Y-79683500D01*
X135867709Y-79683500D01*
X135900275Y-79679693D01*
X135976789Y-79673000D01*
X135976789Y-79672999D01*
X135976797Y-79672999D01*
X135977687Y-79672703D01*
X135997332Y-79668348D01*
X135998255Y-79668241D01*
X136070423Y-79641974D01*
X136143334Y-79617814D01*
X136144117Y-79617330D01*
X136162245Y-79608554D01*
X136163117Y-79608237D01*
X136227283Y-79566034D01*
X136292656Y-79525712D01*
X136293308Y-79525058D01*
X136308929Y-79512333D01*
X136309696Y-79511830D01*
X136362385Y-79455982D01*
X137011937Y-78806429D01*
X137022816Y-78797030D01*
X137043530Y-78781610D01*
X137077464Y-78741167D01*
X137080364Y-78738002D01*
X137086591Y-78731777D01*
X137106940Y-78706040D01*
X137156302Y-78647214D01*
X137156716Y-78646389D01*
X137167537Y-78629401D01*
X137168111Y-78628677D01*
X137200575Y-78559057D01*
X137235040Y-78490433D01*
X137235253Y-78489536D01*
X137241865Y-78470512D01*
X137242257Y-78469673D01*
X137257791Y-78394437D01*
X137275500Y-78319721D01*
X137275500Y-78318789D01*
X137277545Y-78298770D01*
X137277734Y-78297853D01*
X137275500Y-78221082D01*
X137275500Y-76072756D01*
X137294407Y-76014565D01*
X137310864Y-75996918D01*
X137312511Y-75995535D01*
X137312512Y-75995533D01*
X137312519Y-75995529D01*
X137463529Y-75844519D01*
X137586021Y-75669581D01*
X137676276Y-75476030D01*
X137699374Y-75389826D01*
X137732697Y-75338514D01*
X137789818Y-75316587D01*
X137848919Y-75332422D01*
G37*
%TD.AperFunction*%
%TA.AperFunction,Conductor*%
G36*
X141093086Y-82811407D02*
G01*
X141119156Y-82839528D01*
X141209285Y-82985652D01*
X141209286Y-82985653D01*
X141209288Y-82985656D01*
X141333344Y-83109712D01*
X141379472Y-83138163D01*
X141419073Y-83184803D01*
X141426500Y-83222424D01*
X141426500Y-83319124D01*
X141407593Y-83377315D01*
X141397504Y-83389127D01*
X141275286Y-83511345D01*
X141183187Y-83660663D01*
X141128000Y-83827205D01*
X141117500Y-83929983D01*
X141117500Y-84980016D01*
X141127999Y-85082788D01*
X141128000Y-85082795D01*
X141128001Y-85082797D01*
X141150624Y-85151070D01*
X141183187Y-85249336D01*
X141275285Y-85398652D01*
X141275286Y-85398653D01*
X141275288Y-85398656D01*
X141399344Y-85522712D01*
X141399346Y-85522713D01*
X141399347Y-85522714D01*
X141474004Y-85568763D01*
X141548666Y-85614814D01*
X141715203Y-85669999D01*
X141817991Y-85680500D01*
X142418008Y-85680499D01*
X142418016Y-85680499D01*
X142520788Y-85670000D01*
X142520788Y-85669999D01*
X142520797Y-85669999D01*
X142687334Y-85614814D01*
X142836656Y-85522712D01*
X142960712Y-85398656D01*
X142983739Y-85361322D01*
X143030380Y-85321722D01*
X143091390Y-85317098D01*
X143143466Y-85349218D01*
X143152261Y-85361323D01*
X143175285Y-85398652D01*
X143175286Y-85398653D01*
X143175288Y-85398656D01*
X143299344Y-85522712D01*
X143299346Y-85522713D01*
X143299347Y-85522714D01*
X143374004Y-85568763D01*
X143448666Y-85614814D01*
X143615203Y-85669999D01*
X143717991Y-85680500D01*
X144318008Y-85680499D01*
X144318016Y-85680499D01*
X144420788Y-85670000D01*
X144420788Y-85669999D01*
X144420797Y-85669999D01*
X144587334Y-85614814D01*
X144736656Y-85522712D01*
X144860712Y-85398656D01*
X144952814Y-85249334D01*
X144969042Y-85200359D01*
X145005294Y-85151070D01*
X145063017Y-85132500D01*
X149361125Y-85132500D01*
X149419316Y-85151407D01*
X149455280Y-85200907D01*
X149455280Y-85262093D01*
X149431129Y-85301504D01*
X142270504Y-92462128D01*
X142215987Y-92489905D01*
X142155555Y-92480334D01*
X142112290Y-92437069D01*
X142101500Y-92392124D01*
X142101500Y-92009884D01*
X142102545Y-91995537D01*
X142102584Y-91995266D01*
X142106289Y-91969977D01*
X142101687Y-91917376D01*
X142101500Y-91913075D01*
X142101500Y-91904298D01*
X142101500Y-91904291D01*
X142097693Y-91871724D01*
X142090999Y-91795203D01*
X142090704Y-91794315D01*
X142086349Y-91774672D01*
X142086241Y-91773745D01*
X142059974Y-91701576D01*
X142035814Y-91628666D01*
X142035327Y-91627876D01*
X142026554Y-91609754D01*
X142026237Y-91608883D01*
X141984028Y-91544708D01*
X141943712Y-91479345D01*
X141943045Y-91478678D01*
X141930335Y-91463072D01*
X141929830Y-91462304D01*
X141929829Y-91462303D01*
X141873964Y-91409597D01*
X137769626Y-87305258D01*
X137741849Y-87250741D01*
X137741007Y-87226632D01*
X137750162Y-87122000D01*
X137746128Y-87075887D01*
X137731550Y-86909260D01*
X137731549Y-86909257D01*
X137731549Y-86909253D01*
X137676276Y-86702970D01*
X137586021Y-86509419D01*
X137500471Y-86387240D01*
X137463532Y-86334485D01*
X137463531Y-86334484D01*
X137463529Y-86334481D01*
X137312519Y-86183471D01*
X137312515Y-86183468D01*
X137312514Y-86183467D01*
X137137578Y-86060977D01*
X137137570Y-86060973D01*
X136944033Y-85970725D01*
X136944034Y-85970725D01*
X136934882Y-85968273D01*
X136857826Y-85947625D01*
X136806514Y-85914303D01*
X136784587Y-85857182D01*
X136800422Y-85798081D01*
X136847972Y-85759576D01*
X136857817Y-85756376D01*
X136944030Y-85733276D01*
X137137581Y-85643021D01*
X137312519Y-85520529D01*
X137463529Y-85369519D01*
X137586021Y-85194581D01*
X137676276Y-85001030D01*
X137731549Y-84794747D01*
X137731797Y-84791919D01*
X137750162Y-84582003D01*
X137750162Y-84581996D01*
X137731550Y-84369260D01*
X137731549Y-84369257D01*
X137731549Y-84369253D01*
X137676276Y-84162970D01*
X137627809Y-84059033D01*
X137586026Y-83969429D01*
X137586022Y-83969421D01*
X137535442Y-83897185D01*
X137488718Y-83830455D01*
X137463532Y-83794485D01*
X137463531Y-83794484D01*
X137463529Y-83794481D01*
X137312519Y-83643471D01*
X137312515Y-83643468D01*
X137312514Y-83643467D01*
X137137578Y-83520977D01*
X137137570Y-83520973D01*
X136944033Y-83430725D01*
X136944034Y-83430725D01*
X136934882Y-83428273D01*
X136857826Y-83407625D01*
X136806514Y-83374303D01*
X136784587Y-83317182D01*
X136800422Y-83258081D01*
X136847972Y-83219576D01*
X136857817Y-83216376D01*
X136944030Y-83193276D01*
X137137581Y-83103021D01*
X137312519Y-82980529D01*
X137463529Y-82829519D01*
X137463535Y-82829511D01*
X137464918Y-82827864D01*
X137465624Y-82827422D01*
X137466585Y-82826462D01*
X137466806Y-82826683D01*
X137516806Y-82795441D01*
X137540756Y-82792500D01*
X141034895Y-82792500D01*
X141093086Y-82811407D01*
G37*
%TD.AperFunction*%
%TA.AperFunction,Conductor*%
G36*
X155154315Y-71127407D02*
G01*
X155166128Y-71137496D01*
X155684504Y-71655872D01*
X155712281Y-71710389D01*
X155713500Y-71725876D01*
X155713500Y-84230123D01*
X155694593Y-84288314D01*
X155684504Y-84300127D01*
X155112128Y-84872504D01*
X155057611Y-84900281D01*
X155042124Y-84901500D01*
X153989208Y-84901500D01*
X153931017Y-84882593D01*
X153895053Y-84833093D01*
X153890775Y-84791919D01*
X153891031Y-84789527D01*
X153892500Y-84775873D01*
X153892499Y-83880128D01*
X153886091Y-83820517D01*
X153851432Y-83727594D01*
X153848813Y-83666467D01*
X153851424Y-83658428D01*
X153886091Y-83565483D01*
X153892500Y-83505873D01*
X153892499Y-82610128D01*
X153886091Y-82550517D01*
X153851432Y-82457594D01*
X153848813Y-82396468D01*
X153851426Y-82388421D01*
X153886091Y-82295483D01*
X153892500Y-82235873D01*
X153892499Y-81340128D01*
X153886091Y-81280517D01*
X153851432Y-81187594D01*
X153848813Y-81126468D01*
X153851426Y-81118421D01*
X153886091Y-81025483D01*
X153892500Y-80965873D01*
X153892499Y-80070128D01*
X153886091Y-80010517D01*
X153851432Y-79917594D01*
X153848813Y-79856467D01*
X153851424Y-79848428D01*
X153886091Y-79755483D01*
X153892500Y-79695873D01*
X153892499Y-78800128D01*
X153886091Y-78740517D01*
X153851432Y-78647594D01*
X153848813Y-78586467D01*
X153851424Y-78578428D01*
X153886091Y-78485483D01*
X153892500Y-78425873D01*
X153892499Y-77530128D01*
X153886091Y-77470517D01*
X153851432Y-77377594D01*
X153848813Y-77316468D01*
X153851426Y-77308421D01*
X153886091Y-77215483D01*
X153892500Y-77155873D01*
X153892499Y-76260128D01*
X153886091Y-76200517D01*
X153851432Y-76107594D01*
X153848813Y-76046468D01*
X153851426Y-76038421D01*
X153886091Y-75945483D01*
X153892500Y-75885873D01*
X153892499Y-74990128D01*
X153886091Y-74930517D01*
X153851432Y-74837594D01*
X153848813Y-74776467D01*
X153851424Y-74768428D01*
X153886091Y-74675483D01*
X153892500Y-74615873D01*
X153892499Y-73720128D01*
X153886091Y-73660517D01*
X153851432Y-73567594D01*
X153848813Y-73506467D01*
X153851424Y-73498428D01*
X153886091Y-73405483D01*
X153892500Y-73345873D01*
X153892499Y-72450128D01*
X153886091Y-72390517D01*
X153886089Y-72390511D01*
X153835797Y-72255670D01*
X153749549Y-72140458D01*
X153749548Y-72140457D01*
X153749546Y-72140454D01*
X153670774Y-72081485D01*
X153634329Y-72054202D01*
X153499488Y-72003910D01*
X153499483Y-72003909D01*
X153499481Y-72003908D01*
X153499477Y-72003908D01*
X153468249Y-72000550D01*
X153439873Y-71997500D01*
X153439870Y-71997500D01*
X150344133Y-71997500D01*
X150344129Y-71997500D01*
X150344128Y-71997501D01*
X150336949Y-71998272D01*
X150284519Y-72003908D01*
X150284514Y-72003909D01*
X150149670Y-72054202D01*
X150034458Y-72140450D01*
X150034450Y-72140458D01*
X149948202Y-72255670D01*
X149897910Y-72390511D01*
X149897908Y-72390522D01*
X149891500Y-72450129D01*
X149891500Y-73345866D01*
X149891501Y-73345870D01*
X149897909Y-73405485D01*
X149932565Y-73498404D01*
X149935185Y-73559533D01*
X149932566Y-73567595D01*
X149897909Y-73660516D01*
X149897908Y-73660522D01*
X149891500Y-73720129D01*
X149891500Y-74615866D01*
X149891500Y-74615869D01*
X149891501Y-74615872D01*
X149894705Y-74645677D01*
X149897909Y-74675485D01*
X149932565Y-74768404D01*
X149935185Y-74829533D01*
X149932566Y-74837595D01*
X149897909Y-74930516D01*
X149897908Y-74930522D01*
X149891500Y-74990129D01*
X149891500Y-75885866D01*
X149891501Y-75885870D01*
X149897909Y-75945485D01*
X149932565Y-76038404D01*
X149935185Y-76099533D01*
X149932566Y-76107595D01*
X149897909Y-76200516D01*
X149897908Y-76200522D01*
X149891500Y-76260129D01*
X149891500Y-77155866D01*
X149891501Y-77155870D01*
X149897909Y-77215485D01*
X149932565Y-77308404D01*
X149935185Y-77369533D01*
X149932566Y-77377595D01*
X149897909Y-77470516D01*
X149897908Y-77470522D01*
X149891500Y-77530129D01*
X149891500Y-78425866D01*
X149891501Y-78425870D01*
X149897909Y-78485485D01*
X149932565Y-78578404D01*
X149935185Y-78639533D01*
X149932566Y-78647595D01*
X149897909Y-78740516D01*
X149897908Y-78740522D01*
X149891500Y-78800129D01*
X149891500Y-79695866D01*
X149891501Y-79695870D01*
X149897909Y-79755485D01*
X149932565Y-79848404D01*
X149935185Y-79909533D01*
X149932566Y-79917595D01*
X149897909Y-80010516D01*
X149897908Y-80010522D01*
X149891500Y-80070129D01*
X149891500Y-80965866D01*
X149891501Y-80965875D01*
X149893226Y-80981921D01*
X149880645Y-81041799D01*
X149835272Y-81082846D01*
X149794793Y-81091500D01*
X149249876Y-81091500D01*
X149191685Y-81072593D01*
X149179872Y-81062504D01*
X142687437Y-74570069D01*
X142678031Y-74559183D01*
X142662614Y-74538474D01*
X142662609Y-74538469D01*
X142653733Y-74531021D01*
X142622176Y-74504542D01*
X142618999Y-74501630D01*
X142612774Y-74495406D01*
X142587041Y-74475059D01*
X142528215Y-74425698D01*
X142528206Y-74425692D01*
X142527365Y-74425270D01*
X142510417Y-74414473D01*
X142509682Y-74413892D01*
X142509670Y-74413885D01*
X142440057Y-74381424D01*
X142371434Y-74346960D01*
X142371426Y-74346958D01*
X142370523Y-74346744D01*
X142351525Y-74340140D01*
X142350677Y-74339744D01*
X142350670Y-74339742D01*
X142275435Y-74324207D01*
X142250529Y-74318304D01*
X142200721Y-74306500D01*
X142200719Y-74306500D01*
X142199791Y-74306500D01*
X142179771Y-74304455D01*
X142178854Y-74304265D01*
X142102083Y-74306500D01*
X140080756Y-74306500D01*
X140022565Y-74287593D01*
X140004918Y-74271136D01*
X140003535Y-74269488D01*
X140003531Y-74269484D01*
X140003529Y-74269481D01*
X139852519Y-74118471D01*
X139852515Y-74118468D01*
X139852514Y-74118467D01*
X139677578Y-73995977D01*
X139677570Y-73995973D01*
X139484033Y-73905725D01*
X139484034Y-73905725D01*
X139415269Y-73887299D01*
X139277747Y-73850451D01*
X139277746Y-73850450D01*
X139277739Y-73850449D01*
X139065003Y-73831838D01*
X139064997Y-73831838D01*
X138852260Y-73850449D01*
X138645965Y-73905725D01*
X138452429Y-73995973D01*
X138452421Y-73995977D01*
X138277485Y-74118467D01*
X138126467Y-74269485D01*
X138003977Y-74444421D01*
X138003973Y-74444429D01*
X137913725Y-74637966D01*
X137913723Y-74637970D01*
X137913724Y-74637970D01*
X137903673Y-74675483D01*
X137890627Y-74724171D01*
X137857303Y-74775485D01*
X137800181Y-74797412D01*
X137741081Y-74781576D01*
X137702576Y-74734027D01*
X137699373Y-74724171D01*
X137676276Y-74637970D01*
X137614060Y-74504549D01*
X137586026Y-74444429D01*
X137586022Y-74444421D01*
X137572912Y-74425698D01*
X137463529Y-74269481D01*
X137312519Y-74118471D01*
X137312515Y-74118468D01*
X137312514Y-74118467D01*
X137137578Y-73995977D01*
X137137570Y-73995973D01*
X136944033Y-73905725D01*
X136944034Y-73905725D01*
X136875269Y-73887299D01*
X136737747Y-73850451D01*
X136737746Y-73850450D01*
X136737739Y-73850449D01*
X136525003Y-73831838D01*
X136524997Y-73831838D01*
X136312260Y-73850449D01*
X136105965Y-73905725D01*
X135912429Y-73995973D01*
X135912421Y-73995977D01*
X135737485Y-74118467D01*
X135586467Y-74269485D01*
X135463977Y-74444421D01*
X135463973Y-74444429D01*
X135373725Y-74637966D01*
X135373723Y-74637970D01*
X135373724Y-74637970D01*
X135363673Y-74675483D01*
X135350627Y-74724171D01*
X135317303Y-74775485D01*
X135260181Y-74797412D01*
X135201081Y-74781576D01*
X135162576Y-74734027D01*
X135159373Y-74724171D01*
X135136276Y-74637970D01*
X135074060Y-74504549D01*
X135046026Y-74444429D01*
X135046022Y-74444421D01*
X135032912Y-74425698D01*
X134923529Y-74269481D01*
X134772519Y-74118471D01*
X134772515Y-74118468D01*
X134772510Y-74118463D01*
X134770855Y-74117074D01*
X134770412Y-74116365D01*
X134769462Y-74115415D01*
X134769681Y-74115195D01*
X134738438Y-74065182D01*
X134735500Y-74041243D01*
X134735500Y-74011875D01*
X134754407Y-73953684D01*
X134764496Y-73941871D01*
X137568871Y-71137496D01*
X137623388Y-71109719D01*
X137638875Y-71108500D01*
X155096124Y-71108500D01*
X155154315Y-71127407D01*
G37*
%TD.AperFunction*%
%TA.AperFunction,Conductor*%
G36*
X171154691Y-51962407D02*
G01*
X171190655Y-52011907D01*
X171195500Y-52042500D01*
X171195500Y-101373211D01*
X171176593Y-101431402D01*
X171127093Y-101467366D01*
X171096215Y-101472211D01*
X127225959Y-101345784D01*
X127167823Y-101326709D01*
X127132002Y-101277105D01*
X127127244Y-101247043D01*
X127118488Y-97840800D01*
X127402326Y-97840800D01*
X127421408Y-98192757D01*
X127478432Y-98540593D01*
X127572724Y-98880200D01*
X127572726Y-98880205D01*
X127572727Y-98880209D01*
X127572729Y-98880214D01*
X127703193Y-99207654D01*
X127868295Y-99519069D01*
X128066099Y-99810808D01*
X128066103Y-99810813D01*
X128066104Y-99810814D01*
X128294281Y-100079445D01*
X128294291Y-100079455D01*
X128550176Y-100321843D01*
X128550180Y-100321846D01*
X128830782Y-100535154D01*
X129132802Y-100716874D01*
X129452699Y-100864874D01*
X129786722Y-100977419D01*
X129786727Y-100977420D01*
X129786730Y-100977421D01*
X130130950Y-101053190D01*
X130130951Y-101053190D01*
X130130955Y-101053191D01*
X130397828Y-101082215D01*
X130481362Y-101091300D01*
X130481363Y-101091300D01*
X130833838Y-101091300D01*
X130901291Y-101083963D01*
X131184245Y-101053191D01*
X131528469Y-100977421D01*
X131528470Y-100977421D01*
X131528472Y-100977420D01*
X131528478Y-100977419D01*
X131862501Y-100864874D01*
X132182398Y-100716874D01*
X132484418Y-100535154D01*
X132765020Y-100321846D01*
X133020914Y-100079450D01*
X133249101Y-99810808D01*
X133446905Y-99519069D01*
X133612007Y-99207654D01*
X133742471Y-98880214D01*
X133766217Y-98794688D01*
X133836767Y-98540593D01*
X133879586Y-98279408D01*
X133893791Y-98192757D01*
X133912874Y-97840800D01*
X133893791Y-97488843D01*
X133886603Y-97445000D01*
X133839253Y-97156172D01*
X133836768Y-97141012D01*
X133836767Y-97141011D01*
X133836767Y-97141006D01*
X133742475Y-96801399D01*
X133742473Y-96801394D01*
X133742471Y-96801386D01*
X133612007Y-96473946D01*
X133446905Y-96162531D01*
X133249101Y-95870792D01*
X133230279Y-95848633D01*
X133020918Y-95602154D01*
X133020908Y-95602144D01*
X132765023Y-95359756D01*
X132484422Y-95146449D01*
X132484421Y-95146448D01*
X132484418Y-95146446D01*
X132182398Y-94964726D01*
X132027205Y-94892926D01*
X131862506Y-94816728D01*
X131862503Y-94816727D01*
X131862501Y-94816726D01*
X131528478Y-94704181D01*
X131528477Y-94704180D01*
X131528469Y-94704178D01*
X131184249Y-94628409D01*
X131184250Y-94628409D01*
X130833838Y-94590300D01*
X130833837Y-94590300D01*
X130481363Y-94590300D01*
X130481362Y-94590300D01*
X130130949Y-94628409D01*
X129786731Y-94704178D01*
X129786729Y-94704178D01*
X129452693Y-94816728D01*
X129132810Y-94964722D01*
X129132804Y-94964725D01*
X129132802Y-94964726D01*
X128844040Y-95138469D01*
X128830782Y-95146446D01*
X128830777Y-95146449D01*
X128550176Y-95359756D01*
X128294291Y-95602144D01*
X128294281Y-95602154D01*
X128066104Y-95870785D01*
X128066099Y-95870791D01*
X128066099Y-95870792D01*
X127868295Y-96162531D01*
X127703193Y-96473946D01*
X127599291Y-96734722D01*
X127572726Y-96801394D01*
X127572724Y-96801399D01*
X127478432Y-97141006D01*
X127421408Y-97488842D01*
X127402326Y-97840800D01*
X127118488Y-97840800D01*
X127075538Y-81133016D01*
X129838500Y-81133016D01*
X129848999Y-81235788D01*
X129849000Y-81235795D01*
X129849001Y-81235797D01*
X129903045Y-81398892D01*
X129904187Y-81402336D01*
X129996285Y-81551652D01*
X129996286Y-81551653D01*
X129996288Y-81551656D01*
X130120344Y-81675712D01*
X130120346Y-81675713D01*
X130120347Y-81675714D01*
X130266471Y-81765844D01*
X130306073Y-81812485D01*
X130313499Y-81850105D01*
X130313499Y-88330117D01*
X130312454Y-88344463D01*
X130308710Y-88370022D01*
X130311173Y-88398173D01*
X130313312Y-88422624D01*
X130313500Y-88426923D01*
X130313500Y-88435707D01*
X130317306Y-88468275D01*
X130324000Y-88544796D01*
X130324299Y-88545697D01*
X130328649Y-88565316D01*
X130328758Y-88566253D01*
X130355025Y-88638423D01*
X130379186Y-88711335D01*
X130379682Y-88712139D01*
X130388437Y-88730222D01*
X130388763Y-88731117D01*
X130430965Y-88795283D01*
X130471288Y-88860656D01*
X130471293Y-88860661D01*
X130471957Y-88861326D01*
X130484654Y-88876913D01*
X130485167Y-88877693D01*
X130485169Y-88877695D01*
X130485170Y-88877696D01*
X130541017Y-88930385D01*
X135491505Y-93880873D01*
X135519281Y-93935388D01*
X135520500Y-93950875D01*
X135520500Y-96594500D01*
X135501593Y-96652691D01*
X135452093Y-96688655D01*
X135421502Y-96693500D01*
X135373132Y-96693500D01*
X135373128Y-96693501D01*
X135313519Y-96699908D01*
X135313514Y-96699909D01*
X135178670Y-96750202D01*
X135063458Y-96836450D01*
X135063450Y-96836458D01*
X134977202Y-96951670D01*
X134926910Y-97086511D01*
X134926908Y-97086522D01*
X134920500Y-97146129D01*
X134920500Y-98941866D01*
X134920501Y-98941870D01*
X134926908Y-99001480D01*
X134926909Y-99001485D01*
X134977202Y-99136329D01*
X135063450Y-99251541D01*
X135063454Y-99251546D01*
X135063457Y-99251548D01*
X135063458Y-99251549D01*
X135178670Y-99337797D01*
X135313511Y-99388089D01*
X135313512Y-99388089D01*
X135313517Y-99388091D01*
X135373127Y-99394500D01*
X137168872Y-99394499D01*
X137228483Y-99388091D01*
X137295907Y-99362943D01*
X137363329Y-99337797D01*
X137363329Y-99337796D01*
X137363331Y-99337796D01*
X137478546Y-99251546D01*
X137564796Y-99136331D01*
X137615091Y-99001483D01*
X137616609Y-98987362D01*
X137641628Y-98931527D01*
X137694689Y-98901060D01*
X137755524Y-98907600D01*
X137785042Y-98927938D01*
X137939599Y-99082495D01*
X138133170Y-99218035D01*
X138347337Y-99317903D01*
X138575592Y-99379063D01*
X138575596Y-99379063D01*
X138575599Y-99379064D01*
X138810996Y-99399659D01*
X138811000Y-99399659D01*
X138811004Y-99399659D01*
X139046400Y-99379064D01*
X139046401Y-99379063D01*
X139046408Y-99379063D01*
X139274663Y-99317903D01*
X139488830Y-99218035D01*
X139682401Y-99082495D01*
X139849495Y-98915401D01*
X139985035Y-98721830D01*
X139991275Y-98708447D01*
X140033003Y-98663700D01*
X140093064Y-98652025D01*
X140148517Y-98677883D01*
X140170724Y-98708447D01*
X140176965Y-98721830D01*
X140231626Y-98799894D01*
X140307042Y-98907600D01*
X140312505Y-98915401D01*
X140479599Y-99082495D01*
X140673170Y-99218035D01*
X140887337Y-99317903D01*
X141115592Y-99379063D01*
X141115596Y-99379063D01*
X141115599Y-99379064D01*
X141350996Y-99399659D01*
X141351000Y-99399659D01*
X141351004Y-99399659D01*
X141586400Y-99379064D01*
X141586401Y-99379063D01*
X141586408Y-99379063D01*
X141814663Y-99317903D01*
X142028830Y-99218035D01*
X142222401Y-99082495D01*
X142389495Y-98915401D01*
X142525035Y-98721830D01*
X142531275Y-98708448D01*
X142531551Y-98707857D01*
X142573279Y-98663108D01*
X142633340Y-98651433D01*
X142688793Y-98677290D01*
X142711001Y-98707856D01*
X142717399Y-98721577D01*
X142852886Y-98915073D01*
X143019926Y-99082113D01*
X143213422Y-99217600D01*
X143427510Y-99317430D01*
X143655686Y-99378570D01*
X143765999Y-99388220D01*
X143766000Y-99388220D01*
X143766000Y-98643000D01*
X143784907Y-98584809D01*
X143834407Y-98548845D01*
X143865000Y-98544000D01*
X143917000Y-98544000D01*
X143975191Y-98562907D01*
X144011155Y-98612407D01*
X144016000Y-98643000D01*
X144016000Y-99388220D01*
X144126313Y-99378570D01*
X144354489Y-99317430D01*
X144568577Y-99217600D01*
X144762073Y-99082113D01*
X144929113Y-98915073D01*
X145064599Y-98721579D01*
X145064600Y-98721577D01*
X145070996Y-98707860D01*
X145112722Y-98663109D01*
X145172783Y-98651431D01*
X145228237Y-98677286D01*
X145250447Y-98707853D01*
X145255755Y-98719235D01*
X145256965Y-98721830D01*
X145311626Y-98799894D01*
X145387042Y-98907600D01*
X145392505Y-98915401D01*
X145559599Y-99082495D01*
X145753170Y-99218035D01*
X145967337Y-99317903D01*
X146195592Y-99379063D01*
X146195596Y-99379063D01*
X146195599Y-99379064D01*
X146430996Y-99399659D01*
X146431000Y-99399659D01*
X146431004Y-99399659D01*
X146666400Y-99379064D01*
X146666401Y-99379063D01*
X146666408Y-99379063D01*
X146894663Y-99317903D01*
X147108830Y-99218035D01*
X147302401Y-99082495D01*
X147469495Y-98915401D01*
X147605035Y-98721830D01*
X147611275Y-98708447D01*
X147653003Y-98663700D01*
X147713064Y-98652025D01*
X147768517Y-98677883D01*
X147790724Y-98708447D01*
X147796965Y-98721830D01*
X147851626Y-98799894D01*
X147927042Y-98907600D01*
X147932505Y-98915401D01*
X148099599Y-99082495D01*
X148293170Y-99218035D01*
X148507337Y-99317903D01*
X148735592Y-99379063D01*
X148735596Y-99379063D01*
X148735599Y-99379064D01*
X148970996Y-99399659D01*
X148971000Y-99399659D01*
X148971004Y-99399659D01*
X149206400Y-99379064D01*
X149206401Y-99379063D01*
X149206408Y-99379063D01*
X149434663Y-99317903D01*
X149648830Y-99218035D01*
X149842401Y-99082495D01*
X150009495Y-98915401D01*
X150064590Y-98836716D01*
X150113456Y-98799894D01*
X150145687Y-98794500D01*
X160593116Y-98794500D01*
X160607463Y-98795545D01*
X160633023Y-98799289D01*
X160685624Y-98794687D01*
X160689923Y-98794500D01*
X160698701Y-98794500D01*
X160698709Y-98794500D01*
X160731275Y-98790693D01*
X160807789Y-98784000D01*
X160807789Y-98783999D01*
X160807797Y-98783999D01*
X160808687Y-98783703D01*
X160828332Y-98779348D01*
X160829255Y-98779241D01*
X160901423Y-98752974D01*
X160974334Y-98728814D01*
X160975117Y-98728330D01*
X160993245Y-98719554D01*
X160994117Y-98719237D01*
X161058283Y-98677034D01*
X161123656Y-98636712D01*
X161124308Y-98636058D01*
X161139929Y-98623333D01*
X161140696Y-98622830D01*
X161150530Y-98612407D01*
X161193386Y-98566981D01*
X161506523Y-98253844D01*
X161843366Y-97917000D01*
X164130726Y-97917000D01*
X164149808Y-98268957D01*
X164206832Y-98616793D01*
X164301124Y-98956400D01*
X164301126Y-98956405D01*
X164301127Y-98956409D01*
X164301129Y-98956414D01*
X164431593Y-99283854D01*
X164596695Y-99595269D01*
X164794499Y-99887008D01*
X164794503Y-99887013D01*
X164794504Y-99887014D01*
X165022681Y-100155645D01*
X165022691Y-100155655D01*
X165278576Y-100398043D01*
X165278580Y-100398046D01*
X165559182Y-100611354D01*
X165861202Y-100793074D01*
X166181099Y-100941074D01*
X166515122Y-101053619D01*
X166515127Y-101053620D01*
X166515130Y-101053621D01*
X166859350Y-101129390D01*
X166859351Y-101129390D01*
X166859355Y-101129391D01*
X167126228Y-101158415D01*
X167209762Y-101167500D01*
X167209763Y-101167500D01*
X167562238Y-101167500D01*
X167629691Y-101160163D01*
X167912645Y-101129391D01*
X168256869Y-101053621D01*
X168256870Y-101053621D01*
X168256872Y-101053620D01*
X168256878Y-101053619D01*
X168590901Y-100941074D01*
X168910798Y-100793074D01*
X169212818Y-100611354D01*
X169493420Y-100398046D01*
X169749314Y-100155650D01*
X169977501Y-99887008D01*
X170175305Y-99595269D01*
X170340407Y-99283854D01*
X170470871Y-98956414D01*
X170492028Y-98880214D01*
X170565167Y-98616793D01*
X170570411Y-98584809D01*
X170622191Y-98268957D01*
X170641274Y-97917000D01*
X170622191Y-97565043D01*
X170596792Y-97410116D01*
X170565167Y-97217206D01*
X170470875Y-96877599D01*
X170470873Y-96877594D01*
X170470871Y-96877586D01*
X170340407Y-96550146D01*
X170175305Y-96238731D01*
X169977501Y-95946992D01*
X169912770Y-95870785D01*
X169749318Y-95678354D01*
X169749308Y-95678344D01*
X169493423Y-95435956D01*
X169212822Y-95222649D01*
X169212821Y-95222648D01*
X169212818Y-95222646D01*
X168910798Y-95040926D01*
X168746086Y-94964722D01*
X168590906Y-94892928D01*
X168590903Y-94892927D01*
X168590901Y-94892926D01*
X168256878Y-94780381D01*
X168256877Y-94780380D01*
X168256869Y-94780378D01*
X167912649Y-94704609D01*
X167912650Y-94704609D01*
X167562238Y-94666500D01*
X167562237Y-94666500D01*
X167209763Y-94666500D01*
X167209762Y-94666500D01*
X166859349Y-94704609D01*
X166515131Y-94780378D01*
X166515129Y-94780378D01*
X166181093Y-94892928D01*
X165861210Y-95040922D01*
X165861204Y-95040925D01*
X165861202Y-95040926D01*
X165697659Y-95139327D01*
X165559182Y-95222646D01*
X165559177Y-95222649D01*
X165278576Y-95435956D01*
X165022691Y-95678344D01*
X165022681Y-95678354D01*
X164794504Y-95946985D01*
X164794499Y-95946991D01*
X164794499Y-95946992D01*
X164596695Y-96238731D01*
X164431593Y-96550146D01*
X164304166Y-96869965D01*
X164301126Y-96877594D01*
X164301124Y-96877599D01*
X164206832Y-97217206D01*
X164149808Y-97565042D01*
X164130726Y-97917000D01*
X161843366Y-97917000D01*
X162538933Y-97221432D01*
X162549812Y-97212033D01*
X162570530Y-97196610D01*
X162604469Y-97156161D01*
X162607370Y-97152995D01*
X162613590Y-97146777D01*
X162633927Y-97121055D01*
X162683302Y-97062214D01*
X162683716Y-97061389D01*
X162694537Y-97044401D01*
X162695111Y-97043677D01*
X162727569Y-96974069D01*
X162762040Y-96905433D01*
X162762252Y-96904537D01*
X162768866Y-96885507D01*
X162769256Y-96884673D01*
X162784784Y-96809467D01*
X162794003Y-96770570D01*
X162802500Y-96734722D01*
X162802500Y-96733786D01*
X162804546Y-96713765D01*
X162804733Y-96712857D01*
X162804352Y-96699778D01*
X162802500Y-96636102D01*
X162802500Y-95220648D01*
X162821407Y-95162457D01*
X162844714Y-95139553D01*
X162891139Y-95107047D01*
X163052047Y-94946139D01*
X163182568Y-94759734D01*
X163278739Y-94553496D01*
X163337635Y-94333692D01*
X163357468Y-94107000D01*
X163342454Y-93935388D01*
X163337636Y-93880315D01*
X163337635Y-93880312D01*
X163337635Y-93880308D01*
X163278739Y-93660504D01*
X163260306Y-93620974D01*
X163182573Y-93454276D01*
X163182571Y-93454272D01*
X163182568Y-93454266D01*
X163121465Y-93367001D01*
X163052053Y-93267869D01*
X163052052Y-93267867D01*
X163052048Y-93267863D01*
X163052047Y-93267861D01*
X162891139Y-93106953D01*
X162891135Y-93106950D01*
X162891132Y-93106947D01*
X162891130Y-93106946D01*
X162704737Y-92976434D01*
X162704736Y-92976433D01*
X162704734Y-92976432D01*
X162704731Y-92976430D01*
X162704723Y-92976426D01*
X162598137Y-92926724D01*
X162553389Y-92884996D01*
X162541714Y-92824935D01*
X162567572Y-92769482D01*
X162598137Y-92747276D01*
X162704723Y-92697573D01*
X162704721Y-92697573D01*
X162704734Y-92697568D01*
X162891139Y-92567047D01*
X163052047Y-92406139D01*
X163182568Y-92219734D01*
X163278739Y-92013496D01*
X163337635Y-91793692D01*
X163339381Y-91773743D01*
X163357468Y-91567003D01*
X163357468Y-91566996D01*
X163337636Y-91340315D01*
X163337635Y-91340312D01*
X163337635Y-91340308D01*
X163278739Y-91120504D01*
X163212872Y-90979253D01*
X163182573Y-90914276D01*
X163182571Y-90914272D01*
X163182568Y-90914266D01*
X163090674Y-90783026D01*
X163052053Y-90727869D01*
X163052052Y-90727867D01*
X163052049Y-90727864D01*
X163052047Y-90727861D01*
X162891139Y-90566953D01*
X162891135Y-90566950D01*
X162891132Y-90566947D01*
X162891130Y-90566946D01*
X162704737Y-90436434D01*
X162704736Y-90436433D01*
X162704734Y-90436432D01*
X162704731Y-90436430D01*
X162704723Y-90436426D01*
X162498499Y-90340262D01*
X162498500Y-90340262D01*
X162425227Y-90320628D01*
X162278692Y-90281365D01*
X162278691Y-90281364D01*
X162278684Y-90281363D01*
X162130871Y-90268431D01*
X162074550Y-90244524D01*
X162043037Y-90192078D01*
X162040500Y-90169808D01*
X162040500Y-89251648D01*
X162059407Y-89193457D01*
X162082714Y-89170553D01*
X162129139Y-89138047D01*
X162290047Y-88977139D01*
X162420568Y-88790734D01*
X162448369Y-88731115D01*
X162470276Y-88684137D01*
X162512004Y-88639389D01*
X162572065Y-88627714D01*
X162627518Y-88653572D01*
X162649724Y-88684137D01*
X162699426Y-88790723D01*
X162699434Y-88790737D01*
X162829946Y-88977130D01*
X162829947Y-88977132D01*
X162829950Y-88977135D01*
X162829953Y-88977139D01*
X162990861Y-89138047D01*
X162990864Y-89138049D01*
X162990867Y-89138052D01*
X162990869Y-89138053D01*
X163002820Y-89146421D01*
X163177266Y-89268568D01*
X163177272Y-89268571D01*
X163177276Y-89268573D01*
X163324578Y-89337261D01*
X163363519Y-89355420D01*
X163383500Y-89364737D01*
X163383504Y-89364739D01*
X163603308Y-89423635D01*
X163603312Y-89423635D01*
X163603315Y-89423636D01*
X163829997Y-89443468D01*
X163830000Y-89443468D01*
X163830003Y-89443468D01*
X164056684Y-89423636D01*
X164056685Y-89423635D01*
X164056692Y-89423635D01*
X164276496Y-89364739D01*
X164482734Y-89268568D01*
X164669139Y-89138047D01*
X164830047Y-88977139D01*
X164960568Y-88790734D01*
X165056739Y-88584496D01*
X165115635Y-88364692D01*
X165115644Y-88364597D01*
X165135468Y-88138003D01*
X165135468Y-88137996D01*
X165115636Y-87911315D01*
X165115635Y-87911312D01*
X165115635Y-87911308D01*
X165056739Y-87691504D01*
X165056098Y-87690129D01*
X164960573Y-87485276D01*
X164960570Y-87485271D01*
X164960568Y-87485266D01*
X164841954Y-87315866D01*
X164830053Y-87298869D01*
X164830052Y-87298867D01*
X164830049Y-87298864D01*
X164830047Y-87298861D01*
X164669139Y-87137953D01*
X164669135Y-87137950D01*
X164669133Y-87137948D01*
X164622715Y-87105445D01*
X164585893Y-87056580D01*
X164580500Y-87024350D01*
X164580500Y-73467884D01*
X164581545Y-73453537D01*
X164581584Y-73453266D01*
X164585289Y-73427977D01*
X164580687Y-73375376D01*
X164580500Y-73371075D01*
X164580500Y-73362298D01*
X164580500Y-73362291D01*
X164576693Y-73329724D01*
X164569999Y-73253203D01*
X164569704Y-73252315D01*
X164565349Y-73232672D01*
X164565241Y-73231745D01*
X164538974Y-73159576D01*
X164514814Y-73086666D01*
X164514327Y-73085876D01*
X164505554Y-73067754D01*
X164505237Y-73066883D01*
X164463028Y-73002708D01*
X164422712Y-72937345D01*
X164422045Y-72936678D01*
X164409335Y-72921072D01*
X164408830Y-72920304D01*
X164408829Y-72920303D01*
X164352964Y-72867597D01*
X163507233Y-72021866D01*
X165385500Y-72021866D01*
X165385501Y-72021870D01*
X165391908Y-72081480D01*
X165391909Y-72081485D01*
X165439636Y-72209447D01*
X165442256Y-72270576D01*
X165439636Y-72278639D01*
X165397910Y-72390511D01*
X165397908Y-72390522D01*
X165391500Y-72450129D01*
X165391500Y-73345866D01*
X165391501Y-73345870D01*
X165397909Y-73405485D01*
X165432565Y-73498404D01*
X165435185Y-73559533D01*
X165432566Y-73567595D01*
X165397909Y-73660516D01*
X165397908Y-73660522D01*
X165391500Y-73720129D01*
X165391500Y-74615866D01*
X165391500Y-74615869D01*
X165391501Y-74615872D01*
X165394705Y-74645677D01*
X165397909Y-74675485D01*
X165432565Y-74768404D01*
X165435185Y-74829533D01*
X165432566Y-74837595D01*
X165397909Y-74930516D01*
X165397908Y-74930522D01*
X165391500Y-74990129D01*
X165391500Y-75885866D01*
X165391501Y-75885870D01*
X165397909Y-75945485D01*
X165432565Y-76038404D01*
X165435185Y-76099533D01*
X165432566Y-76107595D01*
X165397909Y-76200516D01*
X165397908Y-76200522D01*
X165391500Y-76260129D01*
X165391500Y-77155866D01*
X165391501Y-77155870D01*
X165397909Y-77215485D01*
X165432565Y-77308404D01*
X165435185Y-77369533D01*
X165432566Y-77377595D01*
X165397909Y-77470516D01*
X165397908Y-77470522D01*
X165391500Y-77530129D01*
X165391500Y-78425866D01*
X165391501Y-78425870D01*
X165397909Y-78485485D01*
X165432565Y-78578404D01*
X165435185Y-78639533D01*
X165432566Y-78647595D01*
X165397909Y-78740516D01*
X165397908Y-78740522D01*
X165391500Y-78800129D01*
X165391500Y-79695866D01*
X165391501Y-79695870D01*
X165397909Y-79755485D01*
X165432565Y-79848404D01*
X165435185Y-79909533D01*
X165432566Y-79917595D01*
X165397909Y-80010516D01*
X165397908Y-80010522D01*
X165391500Y-80070129D01*
X165391500Y-80965866D01*
X165391500Y-80965869D01*
X165391501Y-80965872D01*
X165392406Y-80974288D01*
X165397909Y-81025485D01*
X165432565Y-81118404D01*
X165435185Y-81179533D01*
X165432566Y-81187595D01*
X165397909Y-81280516D01*
X165397908Y-81280522D01*
X165391500Y-81340129D01*
X165391500Y-82235866D01*
X165391501Y-82235870D01*
X165397909Y-82295485D01*
X165432565Y-82388404D01*
X165435185Y-82449533D01*
X165432566Y-82457595D01*
X165397909Y-82550516D01*
X165397908Y-82550522D01*
X165391500Y-82610129D01*
X165391500Y-83505866D01*
X165391500Y-83505869D01*
X165391501Y-83505872D01*
X165392090Y-83511347D01*
X165397909Y-83565485D01*
X165432565Y-83658404D01*
X165435185Y-83719533D01*
X165432566Y-83727595D01*
X165397909Y-83820516D01*
X165397908Y-83820522D01*
X165391500Y-83880129D01*
X165391500Y-84775866D01*
X165391501Y-84775870D01*
X165397909Y-84835485D01*
X165432565Y-84928404D01*
X165435185Y-84989533D01*
X165432566Y-84997595D01*
X165397909Y-85090516D01*
X165397908Y-85090522D01*
X165391500Y-85150129D01*
X165391500Y-86045866D01*
X165391501Y-86045870D01*
X165397909Y-86105485D01*
X165432565Y-86198404D01*
X165435185Y-86259533D01*
X165432566Y-86267595D01*
X165397909Y-86360516D01*
X165397908Y-86360522D01*
X165391500Y-86420129D01*
X165391500Y-87315866D01*
X165391501Y-87315870D01*
X165397909Y-87375485D01*
X165432565Y-87468404D01*
X165435185Y-87529533D01*
X165432566Y-87537595D01*
X165397909Y-87630516D01*
X165397908Y-87630522D01*
X165391500Y-87690129D01*
X165391500Y-88585866D01*
X165391501Y-88585870D01*
X165397908Y-88645480D01*
X165397909Y-88645485D01*
X165448202Y-88780329D01*
X165508335Y-88860656D01*
X165534454Y-88895546D01*
X165534457Y-88895548D01*
X165534458Y-88895549D01*
X165649670Y-88981797D01*
X165784511Y-89032089D01*
X165784512Y-89032089D01*
X165784517Y-89032091D01*
X165844127Y-89038500D01*
X168939872Y-89038499D01*
X168999483Y-89032091D01*
X169066907Y-89006943D01*
X169134329Y-88981797D01*
X169134329Y-88981796D01*
X169134331Y-88981796D01*
X169249546Y-88895546D01*
X169335796Y-88780331D01*
X169354486Y-88730222D01*
X169386089Y-88645488D01*
X169386090Y-88645485D01*
X169386091Y-88645483D01*
X169392500Y-88585873D01*
X169392499Y-87690128D01*
X169386091Y-87630517D01*
X169351432Y-87537594D01*
X169348813Y-87476468D01*
X169351426Y-87468421D01*
X169386091Y-87375483D01*
X169392500Y-87315873D01*
X169392499Y-86420128D01*
X169386091Y-86360517D01*
X169351432Y-86267594D01*
X169348813Y-86206467D01*
X169351424Y-86198428D01*
X169386091Y-86105483D01*
X169392500Y-86045873D01*
X169392499Y-85150128D01*
X169386091Y-85090517D01*
X169351432Y-84997594D01*
X169348813Y-84936468D01*
X169351426Y-84928421D01*
X169386091Y-84835483D01*
X169392500Y-84775873D01*
X169392499Y-83880128D01*
X169386091Y-83820517D01*
X169351432Y-83727594D01*
X169348813Y-83666467D01*
X169351424Y-83658428D01*
X169386091Y-83565483D01*
X169392500Y-83505873D01*
X169392499Y-82610128D01*
X169386091Y-82550517D01*
X169351432Y-82457594D01*
X169348813Y-82396468D01*
X169351426Y-82388421D01*
X169386091Y-82295483D01*
X169392500Y-82235873D01*
X169392499Y-81340128D01*
X169386091Y-81280517D01*
X169351432Y-81187594D01*
X169348813Y-81126467D01*
X169351424Y-81118428D01*
X169386091Y-81025483D01*
X169392500Y-80965873D01*
X169392499Y-80070128D01*
X169386091Y-80010517D01*
X169351432Y-79917594D01*
X169348813Y-79856468D01*
X169351426Y-79848421D01*
X169386091Y-79755483D01*
X169392500Y-79695873D01*
X169392499Y-78800128D01*
X169386091Y-78740517D01*
X169351432Y-78647594D01*
X169348813Y-78586467D01*
X169351424Y-78578428D01*
X169386091Y-78485483D01*
X169392500Y-78425873D01*
X169392499Y-77530128D01*
X169386091Y-77470517D01*
X169351432Y-77377594D01*
X169348813Y-77316468D01*
X169351426Y-77308421D01*
X169386091Y-77215483D01*
X169392500Y-77155873D01*
X169392499Y-76260128D01*
X169386091Y-76200517D01*
X169351432Y-76107594D01*
X169348813Y-76046467D01*
X169351424Y-76038428D01*
X169386091Y-75945483D01*
X169392500Y-75885873D01*
X169392499Y-74990128D01*
X169386091Y-74930517D01*
X169351432Y-74837594D01*
X169348813Y-74776468D01*
X169351426Y-74768421D01*
X169386091Y-74675483D01*
X169392500Y-74615873D01*
X169392499Y-73720128D01*
X169386091Y-73660517D01*
X169351432Y-73567594D01*
X169348813Y-73506467D01*
X169351424Y-73498428D01*
X169386091Y-73405483D01*
X169392500Y-73345873D01*
X169392499Y-72450128D01*
X169386091Y-72390517D01*
X169338363Y-72262551D01*
X169335743Y-72201422D01*
X169338353Y-72193386D01*
X169380091Y-72081483D01*
X169386500Y-72021873D01*
X169386499Y-71126128D01*
X169380091Y-71066517D01*
X169375670Y-71054664D01*
X169329797Y-70931670D01*
X169243549Y-70816458D01*
X169243548Y-70816457D01*
X169243546Y-70816454D01*
X169243541Y-70816450D01*
X169128329Y-70730202D01*
X168993488Y-70679910D01*
X168993483Y-70679909D01*
X168993481Y-70679908D01*
X168993477Y-70679908D01*
X168962249Y-70676550D01*
X168933873Y-70673500D01*
X168933870Y-70673500D01*
X165838133Y-70673500D01*
X165838129Y-70673500D01*
X165838128Y-70673501D01*
X165830949Y-70674272D01*
X165778519Y-70679908D01*
X165778514Y-70679909D01*
X165643670Y-70730202D01*
X165528458Y-70816450D01*
X165528450Y-70816458D01*
X165442202Y-70931670D01*
X165391910Y-71066511D01*
X165391908Y-71066522D01*
X165385500Y-71126129D01*
X165385500Y-72021866D01*
X163507233Y-72021866D01*
X158989234Y-67503866D01*
X165385500Y-67503866D01*
X165385501Y-67503870D01*
X165391908Y-67563480D01*
X165391909Y-67563485D01*
X165442202Y-67698329D01*
X165528450Y-67813541D01*
X165528454Y-67813546D01*
X165528457Y-67813548D01*
X165528458Y-67813549D01*
X165643670Y-67899797D01*
X165778511Y-67950089D01*
X165778512Y-67950089D01*
X165778517Y-67950091D01*
X165838127Y-67956500D01*
X168933872Y-67956499D01*
X168993483Y-67950091D01*
X169060907Y-67924943D01*
X169128329Y-67899797D01*
X169128329Y-67899796D01*
X169128331Y-67899796D01*
X169243546Y-67813546D01*
X169329796Y-67698331D01*
X169380091Y-67563483D01*
X169386500Y-67503873D01*
X169386499Y-66608128D01*
X169380091Y-66548517D01*
X169380089Y-66548511D01*
X169329797Y-66413670D01*
X169243549Y-66298458D01*
X169243548Y-66298457D01*
X169243546Y-66298454D01*
X169243541Y-66298450D01*
X169128329Y-66212202D01*
X168993488Y-66161910D01*
X168993483Y-66161909D01*
X168993481Y-66161908D01*
X168993477Y-66161908D01*
X168962249Y-66158550D01*
X168933873Y-66155500D01*
X168933870Y-66155500D01*
X165838133Y-66155500D01*
X165838129Y-66155500D01*
X165838128Y-66155501D01*
X165830949Y-66156272D01*
X165778519Y-66161908D01*
X165778514Y-66161909D01*
X165643670Y-66212202D01*
X165528458Y-66298450D01*
X165528450Y-66298458D01*
X165442202Y-66413670D01*
X165391910Y-66548511D01*
X165391908Y-66548522D01*
X165385500Y-66608129D01*
X165385500Y-67503866D01*
X158989234Y-67503866D01*
X154052419Y-62567051D01*
X154024642Y-62512534D01*
X154034213Y-62452102D01*
X154077478Y-62408837D01*
X154137910Y-62399266D01*
X154157019Y-62404289D01*
X154223511Y-62429089D01*
X154223512Y-62429089D01*
X154223517Y-62429091D01*
X154283127Y-62435500D01*
X155878872Y-62435499D01*
X155938483Y-62429091D01*
X156061714Y-62383129D01*
X156073329Y-62378797D01*
X156073329Y-62378796D01*
X156073331Y-62378796D01*
X156188546Y-62292546D01*
X156274796Y-62177331D01*
X156325091Y-62042483D01*
X156331500Y-61982873D01*
X156331500Y-61834500D01*
X156350407Y-61776309D01*
X156399907Y-61740345D01*
X156430500Y-61735500D01*
X158533501Y-61735500D01*
X158591692Y-61754407D01*
X158627656Y-61803907D01*
X158631827Y-61830248D01*
X158632359Y-61830220D01*
X158632501Y-61832870D01*
X158638908Y-61892480D01*
X158638909Y-61892485D01*
X158689202Y-62027329D01*
X158754933Y-62115134D01*
X158775454Y-62142546D01*
X158775457Y-62142548D01*
X158775458Y-62142549D01*
X158890670Y-62228797D01*
X159025511Y-62279089D01*
X159025512Y-62279089D01*
X159025517Y-62279091D01*
X159085127Y-62285500D01*
X160780872Y-62285499D01*
X160840483Y-62279091D01*
X160907907Y-62253943D01*
X160975329Y-62228797D01*
X160975329Y-62228796D01*
X160975331Y-62228796D01*
X161090546Y-62142546D01*
X161176796Y-62027331D01*
X161191763Y-61987204D01*
X161210522Y-61936908D01*
X161227091Y-61892483D01*
X161232741Y-61839927D01*
X161257760Y-61784092D01*
X161310821Y-61753626D01*
X161371656Y-61760166D01*
X161412270Y-61793728D01*
X161426776Y-61814445D01*
X161991764Y-61249457D01*
X162046281Y-61221680D01*
X162106713Y-61231251D01*
X162131768Y-61249454D01*
X162168542Y-61286228D01*
X162196318Y-61340743D01*
X162186747Y-61401175D01*
X162168541Y-61426234D01*
X161603553Y-61991222D01*
X161780518Y-62115134D01*
X161986676Y-62211266D01*
X162206402Y-62270142D01*
X162432997Y-62289966D01*
X162433003Y-62289966D01*
X162659597Y-62270142D01*
X162879323Y-62211266D01*
X163085483Y-62115133D01*
X163085484Y-62115133D01*
X163262446Y-61991222D01*
X162697458Y-61426234D01*
X162669681Y-61371717D01*
X162679252Y-61311285D01*
X162697452Y-61286233D01*
X162734230Y-61249455D01*
X162788743Y-61221681D01*
X162849175Y-61231252D01*
X162874234Y-61249458D01*
X163439222Y-61814446D01*
X163563133Y-61637484D01*
X163563133Y-61637483D01*
X163659266Y-61431323D01*
X163718142Y-61211597D01*
X163737966Y-60985003D01*
X163737966Y-60984996D01*
X163718142Y-60758402D01*
X163659266Y-60538676D01*
X163563134Y-60332518D01*
X163439222Y-60155553D01*
X162874234Y-60720541D01*
X162819717Y-60748318D01*
X162759285Y-60738747D01*
X162734229Y-60720543D01*
X162697455Y-60683769D01*
X162669680Y-60629255D01*
X162679251Y-60568823D01*
X162697457Y-60543764D01*
X163262445Y-59978776D01*
X163085481Y-59854865D01*
X162879323Y-59758733D01*
X162659597Y-59699857D01*
X162433003Y-59680034D01*
X162432997Y-59680034D01*
X162206402Y-59699857D01*
X161986676Y-59758733D01*
X161780518Y-59854865D01*
X161603553Y-59978776D01*
X162168541Y-60543764D01*
X162196318Y-60598281D01*
X162186747Y-60658713D01*
X162168541Y-60683772D01*
X162131772Y-60720541D01*
X162077255Y-60748318D01*
X162016823Y-60738747D01*
X161991764Y-60720541D01*
X161426775Y-60155552D01*
X161412267Y-60176273D01*
X161363402Y-60213095D01*
X161302226Y-60214162D01*
X161252106Y-60179066D01*
X161232740Y-60130070D01*
X161227091Y-60077517D01*
X161227089Y-60077511D01*
X161176797Y-59942670D01*
X161090549Y-59827458D01*
X161090548Y-59827457D01*
X161090546Y-59827454D01*
X160998747Y-59758733D01*
X160975329Y-59741202D01*
X160840488Y-59690910D01*
X160840483Y-59690909D01*
X160840481Y-59690908D01*
X160840477Y-59690908D01*
X160780869Y-59684499D01*
X160778223Y-59684358D01*
X160778288Y-59683131D01*
X160724309Y-59665593D01*
X160688345Y-59616093D01*
X160683500Y-59585500D01*
X160683500Y-56699875D01*
X160702407Y-56641684D01*
X160712490Y-56629877D01*
X161225872Y-56116494D01*
X161280389Y-56088718D01*
X161295876Y-56087499D01*
X162441867Y-56087499D01*
X162441872Y-56087499D01*
X162501483Y-56081091D01*
X162568906Y-56055943D01*
X162636329Y-56030797D01*
X162636329Y-56030796D01*
X162636331Y-56030796D01*
X162751546Y-55944546D01*
X162837796Y-55829331D01*
X162856696Y-55778659D01*
X162888089Y-55694488D01*
X162888088Y-55694488D01*
X162888091Y-55694483D01*
X162889677Y-55679725D01*
X162914694Y-55623889D01*
X162967753Y-55593421D01*
X163028588Y-55599958D01*
X163058114Y-55620301D01*
X163212926Y-55775113D01*
X163406422Y-55910600D01*
X163620510Y-56010430D01*
X163848686Y-56071570D01*
X163958999Y-56081220D01*
X163959000Y-56081220D01*
X163959000Y-55336000D01*
X163977907Y-55277809D01*
X164027407Y-55241845D01*
X164058000Y-55237000D01*
X164110000Y-55237000D01*
X164168191Y-55255907D01*
X164204155Y-55305407D01*
X164209000Y-55336000D01*
X164209000Y-56081220D01*
X164319313Y-56071570D01*
X164547489Y-56010430D01*
X164761577Y-55910600D01*
X164955073Y-55775113D01*
X165122113Y-55608073D01*
X165257600Y-55414577D01*
X165357430Y-55200489D01*
X165418570Y-54972312D01*
X165428221Y-54862000D01*
X164683000Y-54862000D01*
X164624809Y-54843093D01*
X164588845Y-54793593D01*
X164584000Y-54763000D01*
X164584000Y-54711000D01*
X164602907Y-54652809D01*
X164652407Y-54616845D01*
X164683000Y-54612000D01*
X165428221Y-54612000D01*
X165428221Y-54611999D01*
X165418570Y-54501687D01*
X165357429Y-54273505D01*
X165257605Y-54059432D01*
X165257601Y-54059424D01*
X165122113Y-53865926D01*
X164955073Y-53698886D01*
X164761577Y-53563399D01*
X164547489Y-53463569D01*
X164319312Y-53402429D01*
X164209000Y-53392778D01*
X164209000Y-54138000D01*
X164190093Y-54196191D01*
X164140593Y-54232155D01*
X164110000Y-54237000D01*
X164058000Y-54237000D01*
X163999809Y-54218093D01*
X163963845Y-54168593D01*
X163959000Y-54138000D01*
X163959000Y-53392778D01*
X163958999Y-53392778D01*
X163848687Y-53402429D01*
X163620505Y-53463570D01*
X163406432Y-53563394D01*
X163406424Y-53563398D01*
X163212925Y-53698887D01*
X163212921Y-53698890D01*
X163058113Y-53853698D01*
X163003597Y-53881475D01*
X162943165Y-53871904D01*
X162899900Y-53828639D01*
X162889677Y-53794273D01*
X162888091Y-53779517D01*
X162888089Y-53779511D01*
X162837797Y-53644670D01*
X162751549Y-53529458D01*
X162751548Y-53529457D01*
X162751546Y-53529454D01*
X162751541Y-53529450D01*
X162636329Y-53443202D01*
X162501488Y-53392910D01*
X162501483Y-53392909D01*
X162501481Y-53392908D01*
X162501477Y-53392908D01*
X162470249Y-53389550D01*
X162441873Y-53386500D01*
X162441870Y-53386500D01*
X160646133Y-53386500D01*
X160646129Y-53386500D01*
X160646128Y-53386501D01*
X160638949Y-53387272D01*
X160586519Y-53392908D01*
X160586514Y-53392909D01*
X160451670Y-53443202D01*
X160336458Y-53529450D01*
X160336450Y-53529458D01*
X160250202Y-53644670D01*
X160199910Y-53779511D01*
X160199908Y-53779522D01*
X160193500Y-53839129D01*
X160193500Y-54985123D01*
X160174593Y-55043314D01*
X160164504Y-55055127D01*
X159446069Y-55773561D01*
X159435188Y-55782964D01*
X159414471Y-55798388D01*
X159414469Y-55798390D01*
X159380537Y-55838826D01*
X159377628Y-55842002D01*
X159371414Y-55848218D01*
X159371405Y-55848227D01*
X159351059Y-55873959D01*
X159301698Y-55932785D01*
X159301697Y-55932787D01*
X159301269Y-55933640D01*
X159290481Y-55950574D01*
X159289888Y-55951323D01*
X159257424Y-56020942D01*
X159222960Y-56089565D01*
X159222959Y-56089567D01*
X159222744Y-56090478D01*
X159216143Y-56109469D01*
X159215744Y-56110323D01*
X159215740Y-56110335D01*
X159200207Y-56185565D01*
X159182500Y-56260280D01*
X159182500Y-56261209D01*
X159180455Y-56281226D01*
X159180265Y-56282142D01*
X159182500Y-56358916D01*
X159182500Y-59585500D01*
X159163593Y-59643691D01*
X159114093Y-59679655D01*
X159087751Y-59683840D01*
X159087779Y-59684359D01*
X159085128Y-59684501D01*
X159025519Y-59690908D01*
X159025514Y-59690909D01*
X158890670Y-59741202D01*
X158775458Y-59827450D01*
X158775450Y-59827458D01*
X158689202Y-59942670D01*
X158638910Y-60077511D01*
X158638908Y-60077522D01*
X158632499Y-60137130D01*
X158632358Y-60139777D01*
X158631131Y-60139711D01*
X158613593Y-60193691D01*
X158564093Y-60229655D01*
X158533500Y-60234500D01*
X156430499Y-60234500D01*
X156372308Y-60215593D01*
X156336344Y-60166093D01*
X156331499Y-60135500D01*
X156331499Y-59887132D01*
X156331499Y-59887128D01*
X156325091Y-59827517D01*
X156325066Y-59827450D01*
X156274797Y-59692670D01*
X156188549Y-59577458D01*
X156188548Y-59577457D01*
X156188546Y-59577454D01*
X156173892Y-59566484D01*
X156073329Y-59491202D01*
X155938488Y-59440910D01*
X155938483Y-59440909D01*
X155938481Y-59440908D01*
X155938477Y-59440908D01*
X155907249Y-59437550D01*
X155878873Y-59434500D01*
X155878870Y-59434500D01*
X154283133Y-59434500D01*
X154283129Y-59434500D01*
X154283128Y-59434501D01*
X154278486Y-59435000D01*
X154223519Y-59440908D01*
X154223514Y-59440909D01*
X154088670Y-59491202D01*
X153990329Y-59564821D01*
X153932414Y-59584558D01*
X153873959Y-59566484D01*
X153871671Y-59564821D01*
X153773329Y-59491202D01*
X153638488Y-59440910D01*
X153638483Y-59440909D01*
X153638481Y-59440908D01*
X153638477Y-59440908D01*
X153607249Y-59437550D01*
X153578873Y-59434500D01*
X153578870Y-59434500D01*
X151983133Y-59434500D01*
X151983129Y-59434500D01*
X151983128Y-59434501D01*
X151978486Y-59435000D01*
X151923519Y-59440908D01*
X151923514Y-59440909D01*
X151788670Y-59491202D01*
X151689912Y-59565133D01*
X151631997Y-59584870D01*
X151573542Y-59566796D01*
X151571254Y-59565133D01*
X151473090Y-59491647D01*
X151473088Y-59491646D01*
X151338381Y-59441403D01*
X151338370Y-59441401D01*
X151278824Y-59435000D01*
X150606000Y-59435000D01*
X150606000Y-60961000D01*
X150587093Y-61019191D01*
X150537593Y-61055155D01*
X150507000Y-61060000D01*
X149231001Y-61060000D01*
X149231000Y-61060001D01*
X149231000Y-61982824D01*
X149230999Y-61982824D01*
X149237401Y-62042370D01*
X149237403Y-62042381D01*
X149287646Y-62177088D01*
X149287647Y-62177090D01*
X149373807Y-62292184D01*
X149373816Y-62292193D01*
X149387247Y-62302248D01*
X149422500Y-62352257D01*
X149421624Y-62413436D01*
X149384956Y-62462417D01*
X149327917Y-62480500D01*
X145671499Y-62480500D01*
X145613308Y-62461593D01*
X145577344Y-62412093D01*
X145573172Y-62385751D01*
X145572641Y-62385780D01*
X145572499Y-62383147D01*
X145572499Y-62383128D01*
X145566091Y-62323517D01*
X145554405Y-62292184D01*
X145515797Y-62188670D01*
X145429549Y-62073458D01*
X145429548Y-62073457D01*
X145429546Y-62073454D01*
X145388181Y-62042488D01*
X145314329Y-61987202D01*
X145179488Y-61936910D01*
X145179478Y-61936908D01*
X145126927Y-61931258D01*
X145071091Y-61906238D01*
X145040625Y-61853176D01*
X145047167Y-61792342D01*
X145080728Y-61751729D01*
X145101446Y-61737222D01*
X144536458Y-61172234D01*
X144508681Y-61117717D01*
X144518252Y-61057285D01*
X144536452Y-61032233D01*
X144573230Y-60995455D01*
X144627743Y-60967681D01*
X144688175Y-60977252D01*
X144713234Y-60995458D01*
X145278222Y-61560446D01*
X145402133Y-61383484D01*
X145402133Y-61383483D01*
X145498266Y-61177323D01*
X145557142Y-60957597D01*
X145570055Y-60809998D01*
X149231000Y-60809998D01*
X149231001Y-60810000D01*
X150355999Y-60810000D01*
X150356000Y-60809998D01*
X150356000Y-59435001D01*
X150355999Y-59435000D01*
X149683176Y-59435000D01*
X149623629Y-59441401D01*
X149623618Y-59441403D01*
X149488911Y-59491646D01*
X149488909Y-59491647D01*
X149373815Y-59577807D01*
X149373807Y-59577815D01*
X149287647Y-59692909D01*
X149287646Y-59692911D01*
X149237403Y-59827618D01*
X149237401Y-59827629D01*
X149231000Y-59887175D01*
X149231000Y-60809998D01*
X145570055Y-60809998D01*
X145576966Y-60731003D01*
X145576966Y-60730996D01*
X145557142Y-60504402D01*
X145498266Y-60284676D01*
X145402134Y-60078518D01*
X145278222Y-59901553D01*
X144713234Y-60466541D01*
X144658717Y-60494318D01*
X144598285Y-60484747D01*
X144573229Y-60466543D01*
X144536455Y-60429769D01*
X144508680Y-60375255D01*
X144518251Y-60314823D01*
X144536457Y-60289764D01*
X145101445Y-59724776D01*
X144924481Y-59600865D01*
X144718323Y-59504733D01*
X144498597Y-59445857D01*
X144272003Y-59426034D01*
X144271997Y-59426034D01*
X144045402Y-59445857D01*
X143825676Y-59504733D01*
X143619518Y-59600865D01*
X143442553Y-59724776D01*
X144007541Y-60289764D01*
X144035318Y-60344281D01*
X144025747Y-60404713D01*
X144007541Y-60429772D01*
X143970772Y-60466541D01*
X143916255Y-60494318D01*
X143855823Y-60484747D01*
X143830764Y-60466541D01*
X143265776Y-59901553D01*
X143141865Y-60078518D01*
X143045733Y-60284676D01*
X142986857Y-60504402D01*
X142967034Y-60730996D01*
X142967034Y-60731003D01*
X142986857Y-60957597D01*
X143045733Y-61177323D01*
X143141865Y-61383481D01*
X143265776Y-61560445D01*
X143830764Y-60995457D01*
X143885281Y-60967680D01*
X143945713Y-60977251D01*
X143970768Y-60995454D01*
X144007542Y-61032228D01*
X144035318Y-61086743D01*
X144025747Y-61147175D01*
X144007541Y-61172234D01*
X143442553Y-61737222D01*
X143463273Y-61751730D01*
X143500095Y-61800594D01*
X143501163Y-61861770D01*
X143466069Y-61911891D01*
X143417071Y-61931259D01*
X143364519Y-61936908D01*
X143364514Y-61936909D01*
X143229670Y-61987202D01*
X143114458Y-62073450D01*
X143114450Y-62073458D01*
X143028202Y-62188670D01*
X142977910Y-62323511D01*
X142977908Y-62323522D01*
X142971500Y-62383129D01*
X142971500Y-64078866D01*
X142971501Y-64078870D01*
X142977908Y-64138480D01*
X142977909Y-64138485D01*
X143028202Y-64273329D01*
X143114450Y-64388541D01*
X143114454Y-64388546D01*
X143114457Y-64388548D01*
X143114458Y-64388549D01*
X143229670Y-64474797D01*
X143364511Y-64525089D01*
X143364512Y-64525089D01*
X143364517Y-64525091D01*
X143424127Y-64531500D01*
X145119872Y-64531499D01*
X145179483Y-64525091D01*
X145246907Y-64499943D01*
X145314329Y-64474797D01*
X145314329Y-64474796D01*
X145314331Y-64474796D01*
X145429546Y-64388546D01*
X145515796Y-64273331D01*
X145566091Y-64138483D01*
X145572500Y-64078873D01*
X145572500Y-64078866D01*
X145572642Y-64076223D01*
X145573868Y-64076288D01*
X145591407Y-64022309D01*
X145640907Y-63986345D01*
X145671500Y-63981500D01*
X152378116Y-63981500D01*
X152392463Y-63982545D01*
X152418023Y-63986289D01*
X152470624Y-63981687D01*
X152474923Y-63981500D01*
X152483701Y-63981500D01*
X152483709Y-63981500D01*
X152516275Y-63977693D01*
X152592789Y-63971000D01*
X152592789Y-63970999D01*
X152592797Y-63970999D01*
X152593687Y-63970703D01*
X152613332Y-63966348D01*
X152614255Y-63966241D01*
X152686423Y-63939974D01*
X152759334Y-63915814D01*
X152760117Y-63915330D01*
X152778245Y-63906554D01*
X152779117Y-63906237D01*
X152843283Y-63864034D01*
X152908656Y-63823712D01*
X152909308Y-63823058D01*
X152924929Y-63810333D01*
X152925696Y-63809830D01*
X152975544Y-63756992D01*
X153029229Y-63727641D01*
X153089914Y-63735450D01*
X153117559Y-63754926D01*
X163050504Y-73687871D01*
X163078281Y-73742388D01*
X163079500Y-73757875D01*
X163079500Y-87024350D01*
X163060593Y-87082541D01*
X163037285Y-87105445D01*
X162990866Y-87137948D01*
X162829947Y-87298867D01*
X162829946Y-87298869D01*
X162699434Y-87485262D01*
X162699428Y-87485271D01*
X162649724Y-87591863D01*
X162607996Y-87636611D01*
X162547935Y-87648285D01*
X162492482Y-87622427D01*
X162470276Y-87591863D01*
X162420571Y-87485271D01*
X162420565Y-87485262D01*
X162414407Y-87476468D01*
X162301954Y-87315866D01*
X162290053Y-87298869D01*
X162290052Y-87298867D01*
X162290049Y-87298864D01*
X162290047Y-87298861D01*
X162129139Y-87137953D01*
X162129135Y-87137950D01*
X162129132Y-87137947D01*
X162129130Y-87137946D01*
X161942737Y-87007434D01*
X161942736Y-87007433D01*
X161942734Y-87007432D01*
X161942731Y-87007430D01*
X161942723Y-87007426D01*
X161736499Y-86911262D01*
X161736500Y-86911262D01*
X161518528Y-86852857D01*
X161516692Y-86852365D01*
X161516691Y-86852364D01*
X161516684Y-86852363D01*
X161290003Y-86832532D01*
X161289997Y-86832532D01*
X161063315Y-86852363D01*
X160843499Y-86911262D01*
X160637276Y-87007426D01*
X160637262Y-87007434D01*
X160450869Y-87137946D01*
X160450867Y-87137947D01*
X160289947Y-87298867D01*
X160289946Y-87298869D01*
X160159434Y-87485262D01*
X160159428Y-87485271D01*
X160109724Y-87591863D01*
X160067996Y-87636611D01*
X160007935Y-87648285D01*
X159952482Y-87622427D01*
X159930276Y-87591863D01*
X159880571Y-87485271D01*
X159880565Y-87485262D01*
X159874407Y-87476468D01*
X159761954Y-87315866D01*
X159750053Y-87298869D01*
X159750052Y-87298867D01*
X159750049Y-87298864D01*
X159750047Y-87298861D01*
X159589139Y-87137953D01*
X159589135Y-87137950D01*
X159589132Y-87137947D01*
X159589130Y-87137946D01*
X159402737Y-87007434D01*
X159402736Y-87007433D01*
X159402734Y-87007432D01*
X159402731Y-87007430D01*
X159402723Y-87007426D01*
X159196499Y-86911262D01*
X159196500Y-86911262D01*
X158978528Y-86852857D01*
X158976692Y-86852365D01*
X158976691Y-86852364D01*
X158976684Y-86852363D01*
X158750003Y-86832532D01*
X158749997Y-86832532D01*
X158523315Y-86852363D01*
X158303499Y-86911262D01*
X158097276Y-87007426D01*
X158097262Y-87007434D01*
X157910869Y-87137946D01*
X157910867Y-87137947D01*
X157749947Y-87298867D01*
X157749946Y-87298869D01*
X157619434Y-87485262D01*
X157619426Y-87485276D01*
X157569448Y-87592454D01*
X157527720Y-87637203D01*
X157467659Y-87648877D01*
X157412206Y-87623019D01*
X157389999Y-87592454D01*
X157340134Y-87485518D01*
X157216222Y-87308553D01*
X156724342Y-87800433D01*
X156669825Y-87828210D01*
X156609393Y-87818639D01*
X156589507Y-87805249D01*
X156550108Y-87771110D01*
X156518512Y-87718714D01*
X156523748Y-87657753D01*
X156544935Y-87626286D01*
X157039445Y-87131776D01*
X156862481Y-87007865D01*
X156656323Y-86911733D01*
X156436597Y-86852857D01*
X156210003Y-86833034D01*
X156209997Y-86833034D01*
X155983402Y-86852857D01*
X155763676Y-86911733D01*
X155557518Y-87007865D01*
X155380553Y-87131776D01*
X155875064Y-87626287D01*
X155902841Y-87680804D01*
X155893270Y-87741236D01*
X155869891Y-87771111D01*
X155830492Y-87805250D01*
X155774132Y-87829067D01*
X155714537Y-87815208D01*
X155695657Y-87800434D01*
X155203776Y-87308553D01*
X155079865Y-87485518D01*
X154983733Y-87691676D01*
X154924857Y-87911402D01*
X154905034Y-88137996D01*
X154905034Y-88138003D01*
X154924857Y-88364597D01*
X154983733Y-88584323D01*
X155079865Y-88790481D01*
X155203776Y-88967445D01*
X155695656Y-88475565D01*
X155750173Y-88447788D01*
X155810605Y-88457359D01*
X155830491Y-88470749D01*
X155869890Y-88504888D01*
X155901486Y-88557284D01*
X155896250Y-88618245D01*
X155875063Y-88649712D01*
X155380553Y-89144222D01*
X155557518Y-89268134D01*
X155763676Y-89364266D01*
X155983402Y-89423142D01*
X156209997Y-89442966D01*
X156210003Y-89442966D01*
X156436597Y-89423142D01*
X156656323Y-89364266D01*
X156862483Y-89268133D01*
X156862484Y-89268133D01*
X157039446Y-89144222D01*
X156544935Y-88649712D01*
X156517158Y-88595195D01*
X156526729Y-88534763D01*
X156550103Y-88504894D01*
X156589511Y-88470747D01*
X156645867Y-88446932D01*
X156705462Y-88460791D01*
X156724342Y-88475565D01*
X157216222Y-88967446D01*
X157340133Y-88790484D01*
X157340133Y-88790483D01*
X157389999Y-88683545D01*
X157431727Y-88638797D01*
X157491788Y-88627122D01*
X157547241Y-88652979D01*
X157569448Y-88683545D01*
X157619426Y-88790724D01*
X157619434Y-88790737D01*
X157749946Y-88977130D01*
X157749947Y-88977132D01*
X157749950Y-88977135D01*
X157749953Y-88977139D01*
X157864720Y-89091906D01*
X157892496Y-89146421D01*
X157882925Y-89206853D01*
X157864719Y-89231912D01*
X156848104Y-90248526D01*
X156793587Y-90276303D01*
X156769472Y-90277145D01*
X156591003Y-90261532D01*
X156590996Y-90261532D01*
X156364315Y-90281363D01*
X156144499Y-90340262D01*
X155938276Y-90436426D01*
X155938262Y-90436434D01*
X155751869Y-90566946D01*
X155751867Y-90566947D01*
X155590947Y-90727867D01*
X155590946Y-90727869D01*
X155460434Y-90914262D01*
X155460426Y-90914276D01*
X155364262Y-91120499D01*
X155305363Y-91340315D01*
X155285532Y-91566996D01*
X155285532Y-91567003D01*
X155305363Y-91793684D01*
X155364262Y-92013500D01*
X155460426Y-92219723D01*
X155460434Y-92219737D01*
X155590946Y-92406130D01*
X155590947Y-92406132D01*
X155590950Y-92406135D01*
X155590953Y-92406139D01*
X155751861Y-92567047D01*
X155751864Y-92567049D01*
X155751867Y-92567052D01*
X155751869Y-92567053D01*
X155843385Y-92631132D01*
X155938266Y-92697568D01*
X155938267Y-92697568D01*
X155938271Y-92697571D01*
X156044863Y-92747276D01*
X156089611Y-92789004D01*
X156101285Y-92849065D01*
X156075427Y-92904518D01*
X156044863Y-92926724D01*
X155938271Y-92976428D01*
X155938262Y-92976434D01*
X155751869Y-93106946D01*
X155751867Y-93106947D01*
X155590951Y-93267863D01*
X155558448Y-93314284D01*
X155509584Y-93351106D01*
X155477352Y-93356500D01*
X147762884Y-93356500D01*
X147748537Y-93355455D01*
X147747670Y-93355328D01*
X147722977Y-93351711D01*
X147722975Y-93351711D01*
X147722974Y-93351711D01*
X147722973Y-93351711D01*
X147707005Y-93353108D01*
X147670378Y-93356312D01*
X147666080Y-93356500D01*
X147657291Y-93356500D01*
X147624705Y-93360308D01*
X147548200Y-93367001D01*
X147547303Y-93367299D01*
X147527684Y-93371648D01*
X147526750Y-93371757D01*
X147526748Y-93371757D01*
X147475219Y-93390511D01*
X147454568Y-93398028D01*
X147440039Y-93402842D01*
X147381664Y-93422185D01*
X147381658Y-93422188D01*
X147380852Y-93422686D01*
X147362776Y-93431437D01*
X147361887Y-93431760D01*
X147297723Y-93473961D01*
X147232344Y-93514287D01*
X147232332Y-93514297D01*
X147231666Y-93514964D01*
X147216093Y-93527649D01*
X147215317Y-93528159D01*
X147215301Y-93528172D01*
X147162614Y-93584017D01*
X145944069Y-94802561D01*
X145933188Y-94811964D01*
X145912471Y-94827388D01*
X145912469Y-94827390D01*
X145878537Y-94867826D01*
X145875628Y-94871002D01*
X145869414Y-94877218D01*
X145869405Y-94877227D01*
X145849059Y-94902959D01*
X145799698Y-94961785D01*
X145799697Y-94961787D01*
X145799269Y-94962640D01*
X145788481Y-94979574D01*
X145787888Y-94980323D01*
X145755424Y-95049942D01*
X145720960Y-95118565D01*
X145720959Y-95118567D01*
X145720744Y-95119478D01*
X145714143Y-95138469D01*
X145713744Y-95139323D01*
X145713740Y-95139335D01*
X145698207Y-95214565D01*
X145680500Y-95289280D01*
X145680500Y-95290209D01*
X145678455Y-95310226D01*
X145678265Y-95311142D01*
X145680500Y-95387916D01*
X145680500Y-96869312D01*
X145661593Y-96927503D01*
X145638285Y-96950408D01*
X145559601Y-97005503D01*
X145392501Y-97172603D01*
X145256963Y-97366173D01*
X145256962Y-97366176D01*
X145250445Y-97380150D01*
X145208714Y-97424895D01*
X145148652Y-97436566D01*
X145093201Y-97410705D01*
X145070997Y-97380141D01*
X145064601Y-97366425D01*
X145064601Y-97366424D01*
X144929113Y-97172926D01*
X144762073Y-97005886D01*
X144568577Y-96870399D01*
X144354489Y-96770569D01*
X144126312Y-96709429D01*
X144016000Y-96699778D01*
X144016000Y-97445000D01*
X143997093Y-97503191D01*
X143947593Y-97539155D01*
X143917000Y-97544000D01*
X143865000Y-97544000D01*
X143806809Y-97525093D01*
X143770845Y-97475593D01*
X143766000Y-97445000D01*
X143766000Y-96699778D01*
X143765999Y-96699778D01*
X143655687Y-96709429D01*
X143427505Y-96770570D01*
X143213432Y-96870394D01*
X143213424Y-96870398D01*
X143019926Y-97005886D01*
X142852886Y-97172926D01*
X142717398Y-97366424D01*
X142711000Y-97380146D01*
X142669271Y-97424893D01*
X142609209Y-97436567D01*
X142553757Y-97410708D01*
X142531552Y-97380145D01*
X142525038Y-97366177D01*
X142525036Y-97366173D01*
X142389498Y-97172603D01*
X142389497Y-97172602D01*
X142389495Y-97172599D01*
X142222401Y-97005505D01*
X142145517Y-96951670D01*
X142143715Y-96950408D01*
X142106893Y-96901543D01*
X142101500Y-96869312D01*
X142101500Y-94794874D01*
X142120407Y-94736683D01*
X142130490Y-94724876D01*
X149722498Y-87132867D01*
X149777013Y-87105092D01*
X149837445Y-87114663D01*
X149880710Y-87157928D01*
X149891500Y-87202872D01*
X149891500Y-87315866D01*
X149891501Y-87315870D01*
X149897909Y-87375485D01*
X149932565Y-87468404D01*
X149935185Y-87529533D01*
X149932566Y-87537595D01*
X149897909Y-87630516D01*
X149897908Y-87630522D01*
X149891500Y-87690129D01*
X149891500Y-88585866D01*
X149891501Y-88585870D01*
X149897908Y-88645480D01*
X149897909Y-88645485D01*
X149948202Y-88780329D01*
X150008335Y-88860656D01*
X150034454Y-88895546D01*
X150034457Y-88895548D01*
X150034458Y-88895549D01*
X150149670Y-88981797D01*
X150284511Y-89032089D01*
X150284512Y-89032089D01*
X150284517Y-89032091D01*
X150344127Y-89038500D01*
X153439872Y-89038499D01*
X153499483Y-89032091D01*
X153566907Y-89006943D01*
X153634329Y-88981797D01*
X153634329Y-88981796D01*
X153634331Y-88981796D01*
X153749546Y-88895546D01*
X153835796Y-88780331D01*
X153854486Y-88730222D01*
X153886089Y-88645488D01*
X153886090Y-88645485D01*
X153886091Y-88645483D01*
X153892500Y-88585873D01*
X153892499Y-87690128D01*
X153886091Y-87630517D01*
X153851432Y-87537594D01*
X153848813Y-87476468D01*
X153851426Y-87468421D01*
X153886091Y-87375483D01*
X153892500Y-87315873D01*
X153892499Y-86501499D01*
X153911406Y-86443309D01*
X153960906Y-86407345D01*
X153991499Y-86402500D01*
X155332116Y-86402500D01*
X155346463Y-86403545D01*
X155372023Y-86407289D01*
X155424624Y-86402687D01*
X155428923Y-86402500D01*
X155437701Y-86402500D01*
X155437709Y-86402500D01*
X155470275Y-86398693D01*
X155470274Y-86398693D01*
X155546789Y-86392000D01*
X155546789Y-86391999D01*
X155546797Y-86391999D01*
X155547687Y-86391703D01*
X155567332Y-86387348D01*
X155568255Y-86387241D01*
X155640423Y-86360974D01*
X155713334Y-86336814D01*
X155714117Y-86336330D01*
X155732245Y-86327554D01*
X155733117Y-86327237D01*
X155797283Y-86285034D01*
X155862656Y-86244712D01*
X155863308Y-86244058D01*
X155878929Y-86231333D01*
X155879696Y-86230830D01*
X155932386Y-86174981D01*
X156950933Y-85156433D01*
X156961802Y-85147040D01*
X156982530Y-85131610D01*
X157016479Y-85091149D01*
X157019374Y-85087991D01*
X157025591Y-85081776D01*
X157045930Y-85056052D01*
X157095302Y-84997214D01*
X157095716Y-84996389D01*
X157106537Y-84979401D01*
X157107111Y-84978677D01*
X157139572Y-84909063D01*
X157174040Y-84840433D01*
X157174252Y-84839535D01*
X157180865Y-84820512D01*
X157181257Y-84819672D01*
X157196790Y-84744441D01*
X157214500Y-84669721D01*
X157214500Y-84668789D01*
X157216545Y-84648770D01*
X157216734Y-84647853D01*
X157214500Y-84571082D01*
X157214500Y-71435884D01*
X157215545Y-71421537D01*
X157215584Y-71421266D01*
X157219289Y-71395977D01*
X157214687Y-71343376D01*
X157214500Y-71339075D01*
X157214500Y-71330298D01*
X157214500Y-71330291D01*
X157210693Y-71297724D01*
X157203999Y-71221203D01*
X157203704Y-71220315D01*
X157199349Y-71200672D01*
X157199241Y-71199745D01*
X157172974Y-71127576D01*
X157148814Y-71054666D01*
X157148324Y-71053871D01*
X157139557Y-71035763D01*
X157139237Y-71034883D01*
X157139235Y-71034881D01*
X157139235Y-71034879D01*
X157097034Y-70970716D01*
X157072949Y-70931669D01*
X157056712Y-70905344D01*
X157056043Y-70904675D01*
X157043337Y-70889076D01*
X157042830Y-70888304D01*
X156986982Y-70835614D01*
X156022437Y-69871068D01*
X156013031Y-69860183D01*
X155997614Y-69839474D01*
X155997609Y-69839469D01*
X155988733Y-69832021D01*
X155957176Y-69805542D01*
X155953999Y-69802630D01*
X155947774Y-69796406D01*
X155922041Y-69776059D01*
X155863215Y-69726698D01*
X155863206Y-69726692D01*
X155862365Y-69726270D01*
X155845417Y-69715473D01*
X155844682Y-69714892D01*
X155844670Y-69714885D01*
X155775057Y-69682424D01*
X155706434Y-69647960D01*
X155706426Y-69647958D01*
X155705523Y-69647744D01*
X155686525Y-69641140D01*
X155685677Y-69640744D01*
X155685670Y-69640742D01*
X155610435Y-69625207D01*
X155580029Y-69618001D01*
X155535721Y-69607500D01*
X155535719Y-69607500D01*
X155534791Y-69607500D01*
X155514771Y-69605455D01*
X155513854Y-69605265D01*
X155437083Y-69607500D01*
X137348884Y-69607500D01*
X137334537Y-69606455D01*
X137333670Y-69606328D01*
X137308977Y-69602711D01*
X137308975Y-69602711D01*
X137308974Y-69602711D01*
X137308973Y-69602711D01*
X137293005Y-69604108D01*
X137256378Y-69607312D01*
X137252080Y-69607500D01*
X137243291Y-69607500D01*
X137210705Y-69611308D01*
X137134200Y-69618001D01*
X137133303Y-69618299D01*
X137113684Y-69622648D01*
X137112750Y-69622757D01*
X137112748Y-69622757D01*
X137063335Y-69640742D01*
X137040568Y-69649028D01*
X137026039Y-69653842D01*
X136967664Y-69673185D01*
X136967658Y-69673188D01*
X136966852Y-69673686D01*
X136948776Y-69682437D01*
X136947887Y-69682760D01*
X136883723Y-69724961D01*
X136818344Y-69765287D01*
X136818332Y-69765297D01*
X136817666Y-69765964D01*
X136802093Y-69778649D01*
X136801317Y-69779159D01*
X136801301Y-69779172D01*
X136779170Y-69802630D01*
X136748614Y-69835017D01*
X135910131Y-70673500D01*
X133498069Y-73085561D01*
X133487188Y-73094964D01*
X133466471Y-73110388D01*
X133466469Y-73110390D01*
X133432537Y-73150826D01*
X133429628Y-73154002D01*
X133423414Y-73160218D01*
X133423405Y-73160227D01*
X133403059Y-73185959D01*
X133353698Y-73244785D01*
X133353697Y-73244787D01*
X133353269Y-73245640D01*
X133342481Y-73262574D01*
X133341888Y-73263323D01*
X133309424Y-73332942D01*
X133274960Y-73401565D01*
X133274959Y-73401567D01*
X133274744Y-73402478D01*
X133268143Y-73421469D01*
X133267744Y-73422323D01*
X133267740Y-73422335D01*
X133252207Y-73497565D01*
X133234500Y-73572280D01*
X133234500Y-73573209D01*
X133232455Y-73593226D01*
X133232265Y-73594142D01*
X133234500Y-73670916D01*
X133234500Y-74041243D01*
X133215593Y-74099434D01*
X133199145Y-74117074D01*
X133197489Y-74118463D01*
X133046467Y-74269485D01*
X132923977Y-74444421D01*
X132923973Y-74444429D01*
X132833725Y-74637965D01*
X132778449Y-74844260D01*
X132759838Y-75056996D01*
X132759838Y-75057003D01*
X132778449Y-75269739D01*
X132833725Y-75476034D01*
X132923973Y-75669570D01*
X132923977Y-75669578D01*
X133045002Y-75842422D01*
X133046471Y-75844519D01*
X133197481Y-75995529D01*
X133197484Y-75995531D01*
X133197485Y-75995532D01*
X133200473Y-75997624D01*
X133372419Y-76118021D01*
X133372420Y-76118021D01*
X133372421Y-76118022D01*
X133372429Y-76118026D01*
X133565966Y-76208274D01*
X133565970Y-76208276D01*
X133772253Y-76263549D01*
X133772257Y-76263549D01*
X133772260Y-76263550D01*
X133984997Y-76282162D01*
X133985000Y-76282162D01*
X133985003Y-76282162D01*
X134197739Y-76263550D01*
X134197740Y-76263549D01*
X134197747Y-76263549D01*
X134404030Y-76208276D01*
X134597581Y-76118021D01*
X134772519Y-75995529D01*
X134923529Y-75844519D01*
X135046021Y-75669581D01*
X135136276Y-75476030D01*
X135159374Y-75389826D01*
X135192697Y-75338514D01*
X135249818Y-75316587D01*
X135308919Y-75332422D01*
X135347424Y-75379972D01*
X135350623Y-75389817D01*
X135371273Y-75466882D01*
X135373725Y-75476034D01*
X135463973Y-75669570D01*
X135463977Y-75669578D01*
X135585002Y-75842422D01*
X135586471Y-75844519D01*
X135737481Y-75995529D01*
X135737484Y-75995531D01*
X135737488Y-75995535D01*
X135739136Y-75996918D01*
X135739577Y-75997624D01*
X135740538Y-75998585D01*
X135740316Y-75998806D01*
X135771559Y-76048806D01*
X135774500Y-76072756D01*
X135774500Y-77880124D01*
X135755593Y-77938315D01*
X135745504Y-77950128D01*
X135542128Y-78153504D01*
X135487611Y-78181281D01*
X135472124Y-78182500D01*
X132140876Y-78182500D01*
X132082685Y-78163593D01*
X132070873Y-78153504D01*
X132007656Y-78090288D01*
X132007654Y-78090286D01*
X131858336Y-77998187D01*
X131858335Y-77998186D01*
X131858334Y-77998186D01*
X131691797Y-77943001D01*
X131691794Y-77943000D01*
X131589016Y-77932500D01*
X130538983Y-77932500D01*
X130436211Y-77942999D01*
X130436199Y-77943002D01*
X130269663Y-77998187D01*
X130120347Y-78090285D01*
X129996285Y-78214347D01*
X129904187Y-78363663D01*
X129849000Y-78530205D01*
X129838500Y-78632983D01*
X129838500Y-79233016D01*
X129848999Y-79335788D01*
X129849000Y-79335795D01*
X129849001Y-79335797D01*
X129888826Y-79455982D01*
X129904187Y-79502336D01*
X129996285Y-79651652D01*
X129996286Y-79651653D01*
X129996288Y-79651656D01*
X130120344Y-79775712D01*
X130157677Y-79798739D01*
X130197278Y-79845381D01*
X130201901Y-79906391D01*
X130169780Y-79958467D01*
X130157677Y-79967261D01*
X130120345Y-79990287D01*
X129996285Y-80114347D01*
X129904187Y-80263663D01*
X129849000Y-80430205D01*
X129838500Y-80532983D01*
X129838500Y-81133016D01*
X127075538Y-81133016D01*
X127009968Y-55626000D01*
X127427726Y-55626000D01*
X127446808Y-55977957D01*
X127503832Y-56325793D01*
X127598124Y-56665400D01*
X127598126Y-56665405D01*
X127598127Y-56665409D01*
X127598129Y-56665414D01*
X127728593Y-56992854D01*
X127893695Y-57304269D01*
X128091499Y-57596008D01*
X128091503Y-57596013D01*
X128091504Y-57596014D01*
X128319681Y-57864645D01*
X128319691Y-57864655D01*
X128575576Y-58107043D01*
X128575580Y-58107046D01*
X128856182Y-58320354D01*
X129158202Y-58502074D01*
X129478099Y-58650074D01*
X129812122Y-58762619D01*
X129812127Y-58762620D01*
X129812130Y-58762621D01*
X130156350Y-58838390D01*
X130156351Y-58838390D01*
X130156355Y-58838391D01*
X130423228Y-58867415D01*
X130506762Y-58876500D01*
X130506763Y-58876500D01*
X130859238Y-58876500D01*
X130926691Y-58869163D01*
X131209645Y-58838391D01*
X131553869Y-58762621D01*
X131553870Y-58762621D01*
X131553872Y-58762620D01*
X131553878Y-58762619D01*
X131887901Y-58650074D01*
X132207798Y-58502074D01*
X132509818Y-58320354D01*
X132790420Y-58107046D01*
X133046314Y-57864650D01*
X133274501Y-57596008D01*
X133472305Y-57304269D01*
X133637407Y-56992854D01*
X133767871Y-56665414D01*
X133767875Y-56665400D01*
X133862167Y-56325793D01*
X133919191Y-55977957D01*
X133921002Y-55944549D01*
X133935191Y-55682866D01*
X150380500Y-55682866D01*
X150380501Y-55682870D01*
X150386908Y-55742480D01*
X150386909Y-55742485D01*
X150437202Y-55877329D01*
X150523450Y-55992541D01*
X150523454Y-55992546D01*
X150523457Y-55992548D01*
X150523458Y-55992549D01*
X150638670Y-56078797D01*
X150773511Y-56129089D01*
X150773512Y-56129089D01*
X150773517Y-56129091D01*
X150833127Y-56135500D01*
X154728872Y-56135499D01*
X154788483Y-56129091D01*
X154892010Y-56090478D01*
X154923329Y-56078797D01*
X154923329Y-56078796D01*
X154923331Y-56078796D01*
X155038546Y-55992546D01*
X155124796Y-55877331D01*
X155135655Y-55848218D01*
X155175089Y-55742488D01*
X155175090Y-55742485D01*
X155175091Y-55742483D01*
X155181500Y-55682873D01*
X155181499Y-53587128D01*
X155175091Y-53527517D01*
X155175089Y-53527511D01*
X155124797Y-53392670D01*
X155038549Y-53277458D01*
X155038548Y-53277457D01*
X155038546Y-53277454D01*
X155038541Y-53277450D01*
X154923329Y-53191202D01*
X154788488Y-53140910D01*
X154788483Y-53140909D01*
X154788481Y-53140908D01*
X154788477Y-53140908D01*
X154757249Y-53137550D01*
X154728873Y-53134500D01*
X154728870Y-53134500D01*
X150833133Y-53134500D01*
X150833129Y-53134500D01*
X150833128Y-53134501D01*
X150825949Y-53135272D01*
X150773519Y-53140908D01*
X150773514Y-53140909D01*
X150638670Y-53191202D01*
X150523458Y-53277450D01*
X150523450Y-53277458D01*
X150437202Y-53392670D01*
X150386910Y-53527511D01*
X150386908Y-53527522D01*
X150380500Y-53587129D01*
X150380500Y-55682866D01*
X133935191Y-55682866D01*
X133938274Y-55626000D01*
X133919191Y-55274043D01*
X133913912Y-55241845D01*
X133862167Y-54926206D01*
X133767875Y-54586599D01*
X133767873Y-54586594D01*
X133767871Y-54586586D01*
X133637407Y-54259146D01*
X133472305Y-53947731D01*
X133274501Y-53655992D01*
X133216007Y-53587128D01*
X133046318Y-53387354D01*
X133046308Y-53387344D01*
X132790423Y-53144956D01*
X132509822Y-52931649D01*
X132509821Y-52931648D01*
X132509818Y-52931646D01*
X132207798Y-52749926D01*
X132097934Y-52699097D01*
X131887906Y-52601928D01*
X131887903Y-52601927D01*
X131887901Y-52601926D01*
X131553878Y-52489381D01*
X131553877Y-52489380D01*
X131553869Y-52489378D01*
X131209649Y-52413609D01*
X131209650Y-52413609D01*
X130859238Y-52375500D01*
X130859237Y-52375500D01*
X130506763Y-52375500D01*
X130506762Y-52375500D01*
X130156349Y-52413609D01*
X129812131Y-52489378D01*
X129812129Y-52489378D01*
X129478093Y-52601928D01*
X129158210Y-52749922D01*
X129158204Y-52749925D01*
X128856182Y-52931646D01*
X128856177Y-52931649D01*
X128575576Y-53144956D01*
X128319691Y-53387344D01*
X128319681Y-53387354D01*
X128091504Y-53655985D01*
X128091499Y-53655991D01*
X128091499Y-53655992D01*
X127893695Y-53947731D01*
X127834475Y-54059432D01*
X127728593Y-54259146D01*
X127598126Y-54586594D01*
X127598124Y-54586599D01*
X127503832Y-54926206D01*
X127446808Y-55274042D01*
X127427726Y-55626000D01*
X127009968Y-55626000D01*
X127000757Y-52042753D01*
X127019515Y-51984515D01*
X127068922Y-51948424D01*
X127099757Y-51943500D01*
X171096500Y-51943500D01*
X171154691Y-51962407D01*
G37*
%TD.AperFunction*%
%TD*%
M02*
